<?xml version="1.0" encoding="utf-8"?>
<!DOCTYPE svg PUBLIC "-//W3C//DTD SVG 1.1//EN" "http://www.w3.org/Graphics/SVG/1.1/DTD/svg11.dtd">
<svg version="1.1" id="Layer_1" xmlns="http://www.w3.org/2000/svg" xmlns:xlink="http://www.w3.org/1999/xlink" x="0px" y="0px"
	 width="24.109px" height="20px" viewBox="0 0 24.109 20" enable-background="new 0 0 24.109 20" xml:space="preserve">
<polygon fill="#008653" points="24.109,1.364 23.77,0 20.13,0.906 19.681,1.018 19.454,2.522 19.265,3.771 0,6.151 2.861,16.349 
	18.656,16.349 19.685,9.971 19.685,9.971 19.687,9.957 20.714,3.592 20.701,3.594 20.93,2.155 "/>
<path fill="#008653" d="M7.639,18.473C7.639,19.316,6.956,20,6.112,20l0,0c-0.843,0-1.527-0.684-1.527-1.527l0,0
	c0-0.844,0.684-1.527,1.527-1.527l0,0C6.956,16.946,7.639,17.629,7.639,18.473L7.639,18.473z"/>
<path fill="#008653" d="M16.6,18.473c0,0.843-0.684,1.527-1.527,1.527l0,0c-0.843,0-1.527-0.684-1.527-1.527l0,0
	c0-0.844,0.684-1.527,1.527-1.527l0,0C15.916,16.946,16.6,17.629,16.6,18.473L16.6,18.473z"/>
</svg>
