<?xml version="1.0" encoding="utf-8"?>
<!DOCTYPE svg PUBLIC "-//W3C//DTD SVG 1.1//EN" "http://www.w3.org/Graphics/SVG/1.1/DTD/svg11.dtd">
<svg version="1.1" id="Layer_1" xmlns="http://www.w3.org/2000/svg" xmlns:xlink="http://www.w3.org/1999/xlink" x="0px" y="0px"
	 width="20px" height="19.999px" viewBox="0 0 20 19.999" enable-background="new 0 0 20 19.999" xml:space="preserve">
<g>
	<path fill="#FFFFFF" d="M14.321,12.766h2.427l0.359-2.829h-2.829c0,0,0-1.331,0-1.695s0.005-1.464,1.441-1.464
		c1.437,0,1.532,0,1.532,0V4.242c0,0-1.111-0.096-2.068-0.096c-0.957,0-1.794-0.014-2.881,1.072C11.296,6.233,11.45,7.85,11.45,7.85
		v2.087H8.98v2.843h2.47v7.219h2.872v-0.003V12.766z"/>
	<path fill="#3b5998" d="M20,16.487V3.512C20,1.572,18.427,0,16.487,0H3.512C1.573,0,0,1.572,0,3.512v12.975
		c0,1.939,1.573,3.512,3.512,3.512h7.938V12.78H8.98V9.938h2.47V7.85c0,0-0.154-1.617,0.852-2.632
		c1.086-1.086,1.924-1.072,2.881-1.072c0.958,0,2.068,0.096,2.068,0.096v2.536c0,0-0.095,0-1.532,0
		c-1.436,0-1.441,1.101-1.441,1.464s0,1.695,0,1.695h2.829l-0.359,2.829h-2.427v7.229v0.003h2.166
		C18.427,19.999,20,18.426,20,16.487z"/>
</g>
</svg>
