<?xml version="1.0" encoding="utf-8"?>
<!-- Generator: Adobe Illustrator 16.0.0, SVG Export Plug-In . SVG Version: 6.00 Build 0)  -->
<!DOCTYPE svg PUBLIC "-//W3C//DTD SVG 1.1//EN" "http://www.w3.org/Graphics/SVG/1.1/DTD/svg11.dtd">
<svg version="1.1" id="Layer_1" xmlns="http://www.w3.org/2000/svg" xmlns:xlink="http://www.w3.org/1999/xlink" x="0px" y="0px"
	 width="28.499px" height="28.499px" viewBox="0 0 28.499 28.499" enable-background="new 0 0 28.499 28.499" xml:space="preserve">
<path fill="#008653" d="M1.074,2.903c-2.693,4.257-0.196,12.13,6.098,18.425c6.294,6.294,14.168,8.791,18.424,6.098
	c0.243-0.098,0.471-0.244,0.668-0.441l1.649-1.649c0.781-0.781,0.781-2.048,0-2.828L23.907,18.5c-0.781-0.781-2.048-0.781-2.829,0
	l-2.275,2.276c-2.296-1.039-4.688-2.406-6.681-4.398c-1.993-1.992-3.36-4.386-4.398-6.681L10,7.42c0.78-0.78,0.78-2.047,0-2.828
	L5.993,0.585c-0.781-0.781-2.048-0.78-2.828,0l-1.65,1.65C1.318,2.432,1.172,2.66,1.074,2.903z"/>
</svg>
