<?xml version="1.0" encoding="utf-8"?>
<!DOCTYPE svg PUBLIC "-//W3C//DTD SVG 1.1//EN" "http://www.w3.org/Graphics/SVG/1.1/DTD/svg11.dtd">
<svg version="1.1" id="Layer_1" xmlns="http://www.w3.org/2000/svg" xmlns:xlink="http://www.w3.org/1999/xlink" x="0px" y="0px"
	 width="19px" height="20px" viewBox="0 0 19 20" enable-background="new 0 0 19 20" xml:space="preserve">
<path fill="#FFFFFF" d="M8.18,16.381c1.768,0,3.444-0.565,4.839-1.598l3.872,3.878c0.241,0.241,0.557,0.362,0.873,0.362
	c0.315,0,0.631-0.121,0.873-0.362c0.482-0.482,0.482-1.265,0-1.748l-3.873-3.878c2.352-3.203,2.092-7.741-0.8-10.636
	C12.419,0.852,10.365,0,8.18,0C5.995,0,3.941,0.852,2.396,2.399C0.851,3.946,0,6.003,0,8.19c0,2.188,0.851,4.245,2.396,5.792
	C3.941,15.529,5.995,16.381,8.18,16.381z M4.141,4.147C5.22,3.066,6.654,2.472,8.18,2.472c1.526,0,2.96,0.595,4.039,1.675
	c2.227,2.23,2.227,5.858,0,8.088c-1.079,1.08-2.513,1.675-4.039,1.675c-1.525,0-2.959-0.595-4.039-1.675S2.468,9.718,2.468,8.19
	S3.062,5.227,4.141,4.147z"/>
</svg>
