<?xml version="1.0" encoding="utf-8"?>
<!DOCTYPE svg PUBLIC "-//W3C//DTD SVG 1.1//EN" "http://www.w3.org/Graphics/SVG/1.1/DTD/svg11.dtd">
<svg version="1.1" id="Layer_1" xmlns="http://www.w3.org/2000/svg" xmlns:xlink="http://www.w3.org/1999/xlink" x="0px" y="0px"
	 width="39px" height="28.982px" viewBox="0 0 39 28.982" enable-background="new 0 0 39 28.982" xml:space="preserve">
<g>
	<path fill="#037a4b" d="M39,3.623c0,2.001-1.622,3.622-3.623,3.622H3.623C1.622,7.245,0,5.624,0,3.623l0,0C0,1.622,1.622,0,3.623,0
		h31.754C37.378,0,39,1.622,39,3.623L39,3.623z"/>
	<path fill="#037a4b" d="M39,14.491c0,2.001-1.622,3.623-3.623,3.623H3.623C1.622,18.114,0,16.492,0,14.491l0,0
		c0-2.001,1.622-3.623,3.623-3.623h31.754C37.378,10.868,39,12.49,39,14.491L39,14.491z"/>
	<path fill="#037a4b" d="M39,25.359c0,2.001-1.622,3.623-3.623,3.623H3.623C1.622,28.982,0,27.36,0,25.359l0,0
		c0-2.001,1.622-3.622,3.623-3.622h31.754C37.378,21.737,39,23.358,39,25.359L39,25.359z"/>
</g>
</svg>
