<?xml version="1.0" encoding="utf-8"?>
<!-- Generator: Adobe Illustrator 16.0.0, SVG Export Plug-In . SVG Version: 6.00 Build 0)  -->
<!DOCTYPE svg PUBLIC "-//W3C//DTD SVG 1.1//EN" "http://www.w3.org/Graphics/SVG/1.1/DTD/svg11.dtd">
<svg version="1.1" id="Layer_1" xmlns="http://www.w3.org/2000/svg" xmlns:xlink="http://www.w3.org/1999/xlink" x="0px" y="0px"
	 width="9.059px" height="6.568px" viewBox="0 0 9.059 6.568" enable-background="new 0 0 9.059 6.568" xml:space="preserve">
<g>
	<path fill="#008653" d="M0.623,0h7.813c0.071,0,0.14,0.013,0.204,0.035L5.785,2.891l-0.28,0.28L4.83,3.845
		C4.75,3.925,4.643,3.97,4.53,3.97s-0.22-0.044-0.3-0.125L3.555,3.171l-0.28-0.28L0.419,0.035C0.483,0.013,0.552,0,0.623,0z"/>
	<path fill="#008653" d="M0,5.945V0.623C0,0.496,0.038,0.378,0.104,0.28l2.891,2.891L0.03,6.135C0.011,6.075,0,6.011,0,5.945z"/>
	<path fill="#008653" d="M8.437,6.568H0.623c-0.132,0-0.254-0.042-0.354-0.111l3.005-3.006l0.675,0.675
		c0.155,0.155,0.361,0.24,0.581,0.24s0.425-0.085,0.581-0.24l0.674-0.675l3.006,3.006C8.69,6.526,8.568,6.568,8.437,6.568z"/>
	<path fill="#008653" d="M9.059,5.945c0,0.066-0.011,0.13-0.03,0.19L6.065,3.171L8.956,0.28c0.065,0.099,0.103,0.216,0.103,0.343
		V5.945z"/>
</g>
</svg>
