<?xml version="1.0" encoding="utf-8"?>
<!-- Generator: Adobe Illustrator 16.0.0, SVG Export Plug-In . SVG Version: 6.00 Build 0)  -->
<!DOCTYPE svg PUBLIC "-//W3C//DTD SVG 1.1//EN" "http://www.w3.org/Graphics/SVG/1.1/DTD/svg11.dtd">
<svg version="1.1" id="Layer_1" xmlns="http://www.w3.org/2000/svg" xmlns:xlink="http://www.w3.org/1999/xlink" x="0px" y="0px"
	 width="167.278px" height="91.071px" viewBox="0 0 167.278 91.071" enable-background="new 0 0 167.278 91.071"
	 xml:space="preserve">
<g>
	<g>
		<path fill="#161414" d="M157.272,76.082c0,8.275-6.721,14.989-15,14.989H14.986C6.704,91.071,0,84.357,0,76.082V47.34
			c0-8.274,6.704-14.985,14.986-14.985h127.286c8.279,0,15,6.711,15,14.985V76.082z"/>
	</g>
	<g>
		<path fill="#B88E47" d="M38.302,65.733l3.529,0.889c-0.733,2.899-2.068,5.108-3.991,6.634c-1.923,1.521-4.276,2.278-7.051,2.278
			c-2.876,0-5.204-0.581-7.011-1.751c-1.802-1.175-3.168-2.871-4.11-5.084c-0.944-2.232-1.411-4.607-1.411-7.151
			c0-2.78,0.532-5.199,1.591-7.272c1.065-2.057,2.575-3.628,4.527-4.708c1.957-1.068,4.116-1.61,6.47-1.61
			c2.664,0,4.912,0.678,6.729,2.043c1.821,1.354,3.086,3.268,3.804,5.726L37.9,56.544c-0.617-1.942-1.516-3.347-2.69-4.235
			s-2.659-1.33-4.441-1.33c-2.047,0-3.759,0.492-5.14,1.476c-1.374,0.979-2.338,2.298-2.899,3.96
			c-0.557,1.651-0.833,3.356-0.833,5.113c0,2.264,0.331,4.246,0.993,5.938c0.657,1.7,1.686,2.96,3.081,3.793
			c1.39,0.843,2.901,1.26,4.526,1.26c1.974,0,3.654-0.572,5.024-1.711C36.886,69.662,37.815,67.972,38.302,65.733z"/>
	</g>
	<g>
		<path fill="#B88E47" d="M108.26,65.733l3.534,0.889c-0.737,2.899-2.067,5.108-3.99,6.634c-1.932,1.521-4.281,2.278-7.057,2.278
			c-2.875,0-5.203-0.581-7.01-1.751c-1.802-1.175-3.177-2.871-4.111-5.084c-0.942-2.232-1.41-4.607-1.41-7.151
			c0-2.78,0.533-5.199,1.592-7.272c1.059-2.057,2.569-3.628,4.526-4.708c1.957-1.068,4.116-1.61,6.469-1.61
			c2.671,0,4.914,0.678,6.73,2.043c1.816,1.354,3.086,3.268,3.804,5.726l-3.478,0.818c-0.612-1.942-1.516-3.347-2.69-4.235
			c-1.184-0.889-2.654-1.33-4.441-1.33c-2.042,0-3.759,0.492-5.134,1.476c-1.374,0.979-2.343,2.298-2.905,3.96
			c-0.557,1.651-0.833,3.356-0.833,5.113c0,2.264,0.331,4.246,0.993,5.938c0.657,1.7,1.686,2.96,3.081,3.793
			c1.396,0.843,2.901,1.26,4.526,1.26c1.974,0,3.649-0.572,5.023-1.711C106.845,69.662,107.779,67.972,108.26,65.733z"/>
	</g>
	<g>
		<path fill="#B88E47" d="M43.626,75.504v-27.19h3.338v27.19H43.626z"/>
	</g>
	<g>
		<path fill="#B88E47" d="M61.132,75.157v-2.754c-1.461,2.122-3.449,3.182-5.963,3.182c-1.109,0-2.144-0.206-3.102-0.627
			c-0.963-0.433-1.677-0.969-2.147-1.612c-0.467-0.642-0.794-1.43-0.983-2.363c-0.126-0.623-0.195-1.606-0.195-2.971V56.368h3.191
			v10.424c0,1.656,0.065,2.785,0.185,3.368c0.211,0.827,0.633,1.495,1.286,1.967c0.642,0.481,1.444,0.722,2.402,0.722
			c0.954,0,1.853-0.25,2.69-0.741c0.849-0.487,1.432-1.146,1.776-1.993c0.353-0.848,0.522-2.068,0.522-3.674V56.368h3.192v18.789
			H61.132z"/>
	</g>
	<g>
		<path fill="#B88E47" d="M69.102,75.444H66.05V48.69h3.282v9.545c1.385-1.736,3.161-2.609,5.313-2.609
			c1.194,0,2.318,0.24,3.389,0.723c1.059,0.481,1.938,1.154,2.63,2.022c0.683,0.868,1.219,1.922,1.605,3.151
			c0.391,1.229,0.592,2.534,0.592,3.93c0,3.332-0.833,5.897-2.469,7.714c-1.646,1.812-3.618,2.715-5.912,2.715
			c-2.283,0-4.08-0.954-5.379-2.86V75.444z M69.065,65.603c0,2.323,0.313,4.005,0.943,5.044c1.035,1.691,2.435,2.534,4.201,2.534
			c1.436,0,2.676-0.617,3.723-1.867c1.051-1.25,1.566-3.106,1.566-5.575c0-2.534-0.501-4.401-1.5-5.606
			c-1.009-1.199-2.223-1.807-3.644-1.807c-1.441,0-2.686,0.622-3.724,1.867C69.587,61.437,69.065,63.244,69.065,65.603z"/>
	</g>
	<g>
		<path fill="#B88E47" d="M125.113,72.648c-1.18,1.029-2.318,1.752-3.412,2.179c-1.095,0.427-2.27,0.643-3.523,0.643
			c-2.073,0-3.664-0.523-4.773-1.562c-1.114-1.028-1.666-2.354-1.666-3.964c0-0.944,0.202-1.813,0.628-2.596
			c0.417-0.782,0.969-1.404,1.65-1.872c0.678-0.477,1.445-0.833,2.299-1.078c0.622-0.171,1.576-0.331,2.836-0.491
			c2.579-0.317,4.481-0.693,5.701-1.126c0.01-0.446,0.015-0.736,0.015-0.857c0-1.335-0.306-2.272-0.908-2.814
			c-0.813-0.738-2.027-1.104-3.634-1.104c-1.506,0-2.605,0.266-3.322,0.802c-0.723,0.543-1.25,1.501-1.591,2.867l-3.127-0.442
			c0.281-1.364,0.753-2.469,1.4-3.312c0.647-0.845,1.597-1.491,2.83-1.942c1.221-0.452,2.646-0.688,4.272-0.688
			c1.605,0,2.914,0.2,3.924,0.586c1.004,0.388,1.741,0.874,2.218,1.461c0.473,0.593,0.803,1.33,0.993,2.229
			c0.106,0.557,0.157,1.561,0.157,3.017v4.355c0,3.051,0.073,4.969,0.209,5.771c0.131,0.808,0.397,1.576,0.804,2.319h-3.342
			C125.43,74.355,125.213,73.552,125.113,72.648z M124.853,65.347c-1.16,0.481-2.896,0.898-5.22,1.239
			c-1.31,0.187-2.238,0.401-2.785,0.647c-0.548,0.241-0.964,0.598-1.26,1.064c-0.296,0.466-0.441,0.988-0.441,1.551
			c0,0.873,0.315,1.601,0.969,2.184c0.643,0.576,1.585,0.872,2.825,0.872c1.234,0,2.324-0.28,3.281-0.828
			c0.959-0.552,1.667-1.3,2.114-2.263c0.34-0.743,0.517-1.822,0.517-3.267V65.347z"/>
	</g>
	<g>
		<path fill="#B88E47" d="M130.001,75.087V56.138h2.892v2.87c0.743-1.34,1.415-2.224,2.047-2.659
			c0.617-0.422,1.31-0.638,2.053-0.638c1.084,0,2.188,0.342,3.307,1.034l-1.114,2.975c-0.782-0.461-1.56-0.697-2.348-0.697
			c-0.703,0-1.336,0.217-1.888,0.644c-0.562,0.422-0.964,1.003-1.204,1.756c-0.356,1.139-0.532,2.384-0.532,3.744v9.921H130.001z"/>
	</g>
	<g>
		<path fill="#B88E47" d="M139.261,88.038H17.997c-8.196,0-14.864-6.206-14.864-13.833V48.801c0-7.622,6.668-13.824,14.864-13.824
			h121.264c8.201,0,14.873,6.202,14.873,13.824v25.404C154.134,81.832,147.462,88.038,139.261,88.038z M17.997,36.137
			c-7.557,0-13.704,5.681-13.704,12.664v25.404c0,6.988,6.147,12.673,13.704,12.673h121.264c7.562,0,13.713-5.685,13.713-12.673
			V48.801c0-6.983-6.151-12.664-13.713-12.664H17.997z"/>
	</g>
	<g>
		<path fill="#B88E47" d="M162.817,90.528c-2.456,0-4.455-2.003-4.455-4.465c0-2.454,1.999-4.451,4.455-4.451
			c2.46,0,4.461,1.997,4.461,4.451C167.278,88.525,165.277,90.528,162.817,90.528z M162.817,82.192
			c-2.137,0-3.875,1.736-3.875,3.871c0,2.143,1.738,3.885,3.875,3.885c2.14,0,3.881-1.742,3.881-3.885
			C166.698,83.929,164.957,82.192,162.817,82.192z"/>
	</g>
	<g>
		<path fill="#B88E47" d="M160.886,88.657v-5.126h2.273c0.456,0,0.804,0.046,1.042,0.139c0.237,0.092,0.428,0.254,0.569,0.487
			c0.143,0.233,0.214,0.491,0.214,0.772c0,0.364-0.118,0.671-0.354,0.92s-0.6,0.408-1.091,0.476c0.18,0.086,0.315,0.171,0.409,0.255
			c0.198,0.182,0.386,0.409,0.563,0.682l0.892,1.396h-0.853l-0.679-1.066c-0.198-0.308-0.361-0.543-0.489-0.706
			c-0.129-0.163-0.243-0.277-0.345-0.343s-0.204-0.11-0.31-0.137c-0.077-0.016-0.202-0.024-0.377-0.024h-0.787v2.276H160.886z
			 M161.564,85.794h1.458c0.31,0,0.553-0.032,0.728-0.097c0.175-0.063,0.308-0.166,0.398-0.308c0.091-0.141,0.136-0.294,0.136-0.46
			c0-0.242-0.088-0.441-0.264-0.598s-0.454-0.234-0.834-0.234h-1.622V85.794z"/>
	</g>
</g>
<g>
	<g>
		<path d="M8.189,7.408H4.502L3.385,9.465H1.416l5.263-9.306h2.126l1.512,9.306H8.5L8.189,7.408z M7.955,5.859l-0.54-3.745
			L5.168,5.859H7.955z"/>
	</g>
	<g>
		<path d="M12.998,2.724h1.821l-0.831,3.993c-0.102,0.478-0.152,0.776-0.152,0.895c0,0.194,0.072,0.361,0.216,0.502
			c0.144,0.139,0.328,0.209,0.553,0.209c0.16,0,0.319-0.03,0.476-0.092s0.317-0.154,0.482-0.279s0.313-0.268,0.444-0.429
			s0.254-0.372,0.368-0.635c0.08-0.194,0.167-0.512,0.261-0.952l0.672-3.212h1.822l-1.409,6.741H16.02l0.19-0.914
			c-0.745,0.715-1.555,1.072-2.432,1.072c-0.554,0-0.99-0.158-1.307-0.476c-0.318-0.317-0.477-0.743-0.477-1.276
			c0-0.232,0.072-0.695,0.216-1.39L12.998,2.724z"/>
	</g>
	<g>
		<path d="M20.129,4.076l0.279-1.353h0.889l0.222-1.079l2.089-1.257l-0.489,2.336h1.111L23.95,4.076h-1.117L22.243,6.9
			c-0.106,0.512-0.159,0.804-0.159,0.876c0,0.14,0.044,0.249,0.134,0.327c0.088,0.078,0.249,0.117,0.482,0.117
			c0.08,0,0.281-0.015,0.603-0.045l-0.286,1.353c-0.313,0.063-0.635,0.095-0.965,0.095c-0.643,0-1.11-0.123-1.402-0.371
			c-0.292-0.247-0.438-0.591-0.438-1.031c0-0.207,0.078-0.686,0.234-1.435l0.564-2.71H20.129z"/>
	</g>
	<g>
		<path d="M25.978,9.465h-1.821l1.948-9.306h1.822l-0.698,3.313c0.41-0.321,0.794-0.554,1.149-0.695s0.736-0.213,1.143-0.213
			c0.545,0,0.977,0.157,1.295,0.471c0.316,0.313,0.476,0.723,0.476,1.23c0,0.271-0.06,0.69-0.178,1.258l-0.825,3.941h-1.822
			l0.845-4.018c0.089-0.437,0.134-0.716,0.134-0.838c0-0.225-0.07-0.404-0.21-0.54s-0.33-0.203-0.571-0.203
			c-0.305,0-0.597,0.105-0.876,0.317c-0.364,0.279-0.642,0.622-0.831,1.028c-0.106,0.225-0.246,0.751-0.42,1.581L25.978,9.465z"/>
	</g>
	<g>
		<path d="M32.469,6.666c0-1.249,0.353-2.244,1.057-2.987c0.705-0.742,1.631-1.114,2.777-1.114c0.994,0,1.771,0.274,2.33,0.822
			s0.838,1.285,0.838,2.213c0,1.092-0.35,2.035-1.048,2.83c-0.698,0.796-1.634,1.193-2.806,1.193c-0.635,0-1.197-0.127-1.688-0.381
			s-0.856-0.613-1.099-1.078C32.59,7.698,32.469,7.199,32.469,6.666z M37.661,5.364c0-0.432-0.126-0.777-0.378-1.038
			c-0.252-0.26-0.576-0.391-0.975-0.391c-0.393,0-0.742,0.122-1.047,0.365s-0.542,0.597-0.711,1.061
			c-0.169,0.463-0.254,0.89-0.254,1.279c0,0.482,0.131,0.865,0.394,1.148s0.593,0.426,0.99,0.426c0.499,0,0.918-0.214,1.257-0.642
			C37.42,6.968,37.661,6.231,37.661,5.364z"/>
	</g>
	<g>
		<path d="M41.581,2.724h1.701l-0.273,1.308c0.635-0.978,1.323-1.467,2.063-1.467c0.263,0,0.544,0.066,0.845,0.197l-0.699,1.492
			c-0.164-0.06-0.34-0.09-0.526-0.09c-0.313,0-0.632,0.119-0.955,0.355c-0.324,0.237-0.577,0.554-0.759,0.949
			s-0.361,1.023-0.539,1.883l-0.445,2.113h-1.821L41.581,2.724z"/>
	</g>
	<g>
		<path d="M46.871,2.724h1.822l-1.41,6.741h-1.821L46.871,2.724z M47.404,0.159h1.822l-0.344,1.65h-1.821L47.404,0.159z"/>
	</g>
	<g>
		<path d="M48.899,9.465l0.261-1.231l3.693-4.088h-3.015l0.298-1.422h5.288l-0.222,1.085l-3.727,4.184h3.244l-0.312,1.473H48.899z"
			/>
	</g>
	<g>
		<path d="M62.397,6.659h-4.57c-0.004,0.072-0.006,0.127-0.006,0.165c0,0.448,0.128,0.811,0.384,1.086
			c0.256,0.274,0.567,0.412,0.937,0.412c0.604,0,1.076-0.313,1.415-0.939l1.632,0.273c-0.318,0.655-0.742,1.147-1.273,1.476
			s-1.127,0.491-1.787,0.491c-0.905,0-1.642-0.286-2.209-0.859c-0.566-0.573-0.85-1.332-0.85-2.275c0-0.923,0.256-1.744,0.768-2.463
			c0.698-0.974,1.695-1.461,2.99-1.461c0.824,0,1.48,0.256,1.967,0.766c0.487,0.51,0.73,1.224,0.73,2.143
			C62.524,5.912,62.482,6.308,62.397,6.659z M60.861,5.549c0.004-0.081,0.007-0.143,0.007-0.185c0-0.499-0.112-0.874-0.337-1.124
			c-0.225-0.249-0.524-0.374-0.901-0.374s-0.714,0.142-1.013,0.425c-0.298,0.284-0.5,0.703-0.606,1.258H60.861z"/>
	</g>
	<g>
		<path d="M69.422,9.465h-1.727l0.152-0.73c-0.33,0.318-0.655,0.545-0.975,0.683s-0.681,0.206-1.082,0.206
			c-0.699,0-1.265-0.237-1.698-0.714c-0.434-0.476-0.651-1.18-0.651-2.11c0-1.079,0.305-2.055,0.914-2.926
			c0.609-0.872,1.416-1.309,2.419-1.309c0.905,0,1.585,0.36,2.038,1.08l0.729-3.485h1.821L69.422,9.465z M65.213,6.723
			c0,0.482,0.122,0.859,0.365,1.13s0.543,0.406,0.898,0.406c0.33,0,0.638-0.113,0.923-0.34c0.286-0.227,0.515-0.572,0.686-1.038
			c0.172-0.465,0.257-0.911,0.257-1.339c0-0.486-0.131-0.88-0.393-1.181c-0.263-0.301-0.565-0.451-0.908-0.451
			c-0.533,0-0.971,0.297-1.314,0.889C65.385,5.392,65.213,6.033,65.213,6.723z"/>
	</g>
	<g>
		<path d="M75.051,9.465L77,0.159h2.508c0.697,0,1.145,0.011,1.339,0.032c0.385,0.037,0.729,0.116,1.031,0.234
			s0.578,0.284,0.825,0.498c0.248,0.214,0.462,0.471,0.642,0.771s0.318,0.646,0.415,1.038c0.098,0.392,0.146,0.819,0.146,1.285
			c0,1.003-0.191,1.893-0.574,2.669s-0.864,1.394-1.444,1.851c-0.444,0.355-1.018,0.618-1.72,0.787
			c-0.398,0.093-1.01,0.14-1.835,0.14H75.051z M77.279,7.967h0.971c0.703,0,1.212-0.043,1.527-0.13s0.604-0.249,0.866-0.485
			c0.377-0.344,0.694-0.801,0.952-1.371c0.258-0.572,0.387-1.244,0.387-2.02c0-0.66-0.106-1.156-0.32-1.488s-0.477-0.553-0.79-0.663
			c-0.22-0.076-0.611-0.114-1.175-0.114h-1.11L77.279,7.967z"/>
	</g>
	<g>
		<path d="M91.088,6.659h-4.57c-0.004,0.072-0.006,0.127-0.006,0.165c0,0.448,0.128,0.811,0.384,1.086
			c0.256,0.274,0.567,0.412,0.937,0.412c0.604,0,1.076-0.313,1.415-0.939l1.632,0.273c-0.318,0.655-0.742,1.147-1.273,1.476
			s-1.127,0.491-1.787,0.491c-0.905,0-1.642-0.286-2.209-0.859c-0.566-0.573-0.85-1.332-0.85-2.275c0-0.923,0.256-1.744,0.768-2.463
			c0.698-0.974,1.695-1.461,2.99-1.461c0.824,0,1.48,0.256,1.967,0.766c0.487,0.51,0.73,1.224,0.73,2.143
			C91.215,5.912,91.173,6.308,91.088,6.659z M89.552,5.549c0.004-0.081,0.007-0.143,0.007-0.185c0-0.499-0.112-0.874-0.337-1.124
			c-0.225-0.249-0.524-0.374-0.901-0.374s-0.714,0.142-1.013,0.425c-0.298,0.284-0.5,0.703-0.606,1.258H89.552z"/>
	</g>
	<g>
		<path d="M94.456,4.635l-1.777-0.152c0.203-0.602,0.557-1.071,1.063-1.41c0.506-0.338,1.176-0.508,2.01-0.508
			c0.867,0,1.508,0.175,1.923,0.524c0.415,0.349,0.622,0.775,0.622,1.278c0,0.203-0.018,0.42-0.054,0.648s-0.162,0.829-0.378,1.803
			c-0.178,0.804-0.267,1.366-0.267,1.688c0,0.288,0.051,0.607,0.152,0.959h-1.771c-0.072-0.245-0.117-0.499-0.134-0.762
			c-0.267,0.296-0.573,0.523-0.921,0.683c-0.347,0.158-0.695,0.237-1.047,0.237c-0.559,0-1.02-0.183-1.384-0.549
			s-0.546-0.837-0.546-1.412c0-0.644,0.2-1.157,0.6-1.543c0.4-0.385,1.114-0.617,2.143-0.697c0.867-0.072,1.447-0.159,1.739-0.261
			c0.076-0.254,0.114-0.457,0.114-0.609c0-0.194-0.078-0.357-0.234-0.489c-0.157-0.131-0.39-0.196-0.699-0.196
			c-0.325,0-0.582,0.066-0.771,0.2C94.651,4.199,94.523,4.389,94.456,4.635z M96.188,6.322c-0.11,0.03-0.256,0.058-0.438,0.083
			c-0.914,0.11-1.512,0.271-1.791,0.482c-0.198,0.152-0.298,0.357-0.298,0.616c0,0.211,0.076,0.39,0.229,0.536
			c0.152,0.146,0.354,0.219,0.603,0.219c0.275,0,0.535-0.066,0.778-0.2c0.243-0.133,0.425-0.305,0.546-0.514
			c0.12-0.21,0.228-0.537,0.32-0.98L96.188,6.322z"/>
	</g>
	<g>
		<path d="M99.232,9.465l1.949-9.306h1.814l-1.941,9.306H99.232z"/>
	</g>
	<g>
		<path d="M109.55,6.659h-4.57c-0.004,0.072-0.006,0.127-0.006,0.165c0,0.448,0.128,0.811,0.384,1.086
			c0.256,0.274,0.567,0.412,0.937,0.412c0.604,0,1.076-0.313,1.415-0.939l1.632,0.273c-0.318,0.655-0.742,1.147-1.273,1.476
			s-1.127,0.491-1.787,0.491c-0.905,0-1.642-0.286-2.209-0.859c-0.566-0.573-0.85-1.332-0.85-2.275c0-0.923,0.256-1.744,0.768-2.463
			c0.698-0.974,1.695-1.461,2.99-1.461c0.824,0,1.48,0.256,1.967,0.766c0.487,0.51,0.73,1.224,0.73,2.143
			C109.677,5.912,109.635,6.308,109.55,6.659z M108.014,5.549c0.004-0.081,0.007-0.143,0.007-0.185c0-0.499-0.112-0.874-0.337-1.124
			c-0.225-0.249-0.524-0.374-0.901-0.374s-0.714,0.142-1.013,0.425c-0.298,0.284-0.5,0.703-0.606,1.258H108.014z"/>
	</g>
	<g>
		<path d="M111.654,2.724h1.701l-0.273,1.308c0.635-0.978,1.323-1.467,2.063-1.467c0.263,0,0.544,0.066,0.845,0.197l-0.699,1.492
			c-0.164-0.06-0.34-0.09-0.526-0.09c-0.313,0-0.632,0.119-0.955,0.355c-0.324,0.237-0.577,0.554-0.759,0.949
			s-0.361,1.023-0.539,1.883l-0.445,2.113h-1.821L111.654,2.724z"/>
	</g>
	<g>
		<path d="M119.544,6.666c0-1.249,0.353-2.244,1.057-2.987c0.705-0.742,1.631-1.114,2.777-1.114c0.994,0,1.771,0.274,2.33,0.822
			s0.838,1.285,0.838,2.213c0,1.092-0.35,2.035-1.048,2.83c-0.698,0.796-1.634,1.193-2.806,1.193c-0.635,0-1.197-0.127-1.688-0.381
			s-0.856-0.613-1.099-1.078C119.665,7.698,119.544,7.199,119.544,6.666z M124.736,5.364c0-0.432-0.126-0.777-0.378-1.038
			c-0.252-0.26-0.576-0.391-0.975-0.391c-0.393,0-0.742,0.122-1.047,0.365s-0.542,0.597-0.711,1.061
			c-0.169,0.463-0.254,0.89-0.254,1.279c0,0.482,0.131,0.865,0.394,1.148s0.593,0.426,0.99,0.426c0.499,0,0.918-0.214,1.257-0.642
			C124.495,6.968,124.736,6.231,124.736,5.364z"/>
	</g>
	<g>
		<path d="M132.046,2.724l-0.279,1.333h-1.288l-1.131,5.408h-1.821l1.13-5.408h-1.016l0.279-1.333h1.016l0.146-0.692
			c0.118-0.566,0.23-0.949,0.336-1.148c0.144-0.271,0.358-0.485,0.645-0.645C130.348,0.08,130.722,0,131.183,0
			c0.559,0,1.146,0.102,1.765,0.305l-0.355,1.302c-0.436-0.148-0.789-0.222-1.061-0.222c-0.207,0-0.361,0.065-0.463,0.196
			c-0.067,0.085-0.138,0.307-0.209,0.667l-0.102,0.476H132.046z"/>
	</g>
</g>
</svg>
