<?xml version="1.0" encoding="utf-8"?>
<!-- Generator: Adobe Illustrator 16.0.0, SVG Export Plug-In . SVG Version: 6.00 Build 0)  -->
<!DOCTYPE svg PUBLIC "-//W3C//DTD SVG 1.1//EN" "http://www.w3.org/Graphics/SVG/1.1/DTD/svg11.dtd">
<svg version="1.1" id="Layer_1" xmlns="http://www.w3.org/2000/svg" xmlns:xlink="http://www.w3.org/1999/xlink" x="0px" y="0px"
	 width="120.914px" height="63.967px" viewBox="0 0 120.914 63.967" enable-background="new 0 0 120.914 63.967"
	 xml:space="preserve">
<g>
	<path fill-rule="evenodd" clip-rule="evenodd" fill="#028552" d="M116.109,34.52c-0.191-1.647-0.626-3.591-1.505-5.102
		c0.71-0.563,1.116-1.397,1.116-2.271v-7.19c0-0.675-0.242-1.333-0.688-1.86c-0.546-0.65-1.143-1.261-1.781-1.827
		c-1.641-1.531-3.729-2.568-5.993-2.971c-1.29-0.218-2.612-0.201-3.9,0.046c-1.426,0.267-2.618,0.818-3.748,1.697V6.729
		c0-1.644-1.409-2.977-3.154-2.977h-7.05c-1.745,0-3.154,1.333-3.154,2.977v5.685c0,0.909,0.439,1.77,1.197,2.336
		c0.012,0.166,0.023,0.33,0.029,0.497c-0.938-0.673-2.136-1.187-3.279-1.492c-0.975-0.263-1.986-0.392-2.995-0.378
		c-0.89-0.032-1.781,0.037-2.65,0.208c-0.987,0.189-1.944,0.506-2.844,0.935c-0.933,0.446-1.764,1.066-2.433,1.824
		c-0.116,0.126-0.228,0.26-0.338,0.392c-1.251-1.548-2.885-2.453-4.839-2.98c-0.976-0.263-1.984-0.392-2.999-0.378
		c-0.886-0.032-1.774,0.037-2.646,0.208c-0.987,0.189-1.941,0.506-2.842,0.935c-0.328,0.155-0.643,0.334-0.942,0.533
		c-0.443-0.553-1.079-0.941-1.793-1.102V9.134c0-2.2-2.435-3.641-4.531-2.682l-4.084,1.873c-0.842-1.117-3.324-3.766-4.94-4.151
		c-0.255-0.302-0.567-0.557-0.924-0.744c-0.979-0.526-1.994-0.975-3.04-1.356c-1.093-0.396-2.211-0.731-3.345-0.998
		C33.051,0.324,30.403,0,27.453,0c-4.075,0.006-6.252,0.104-10.089,1.075c-3.102,0.78-5.642,1.74-8.155,3.418
		c-3.712,2.475-5.743,5.629-6.866,9.611c-1.065,3.449-1.577,7.028-1.516,10.623c-0.062,3.595,0.45,7.181,1.516,10.628
		c0.152,0.592,0.344,1.171,0.581,1.731c0.563,1.438,1.126,2.617,2.067,3.876c1.938,2.566,4.574,4.588,7.63,5.857
		c1.528,0.661,3.115,1.182,4.745,1.562c0.636,0.161,1.258,0.299,1.867,0.424c2.809,0.526,8.847,1.271,16.781-0.424
		c3.713-0.793,7.021-2.267,9.856-4.712c0.882,2.249,1.917,3.047,2.182,3.283c2.535,2.239,6.549,2.403,9.539,0.955
		c0.405-0.196,0.76-0.466,1.041-0.806c1.724,1.146,3.755,1.657,5.843,1.702c3.338,0.069,6.379-0.826,8.45-3.339
		c1.188,1.464,2.777,2.37,4.624,2.911c0.979,0.284,2.001,0.433,3.023,0.428c0.243,0.014,0.486,0.015,0.729,0.014
		c1.128,0.027,2.852-0.378,2.852-0.378c0.641-0.165,1.268-0.385,1.87-0.646c0.357-0.161,0.697-0.341,1.022-0.55
		c0.598,0.691,1.496,1.096,2.442,1.096h8.017c0.985,0,1.914-0.436,2.51-1.179c0.39,0.23,0.789,0.444,1.198,0.646
		c0.513,0.248,1.05,0.466,1.6,0.634c1.938,0.531,5.815,0.563,7.057-0.005c0.348-0.133,0.686-0.296,1.008-0.479
		c1.433-0.809,2.647-1.843,3.496-3.198c1.026-1.64,1.632-3.487,1.768-5.388C116.322,37.756,116.312,36.13,116.109,34.52
		 M32.569,30.561c-0.297,1.546-0.973,3.183-2.453,4.062l-0.128,0.07l-1.63,0.42c-0.551,0.12-1.107,0.203-1.67,0.243
		c-0.507-0.036-1.009-0.107-1.505-0.212c-0.6-0.124-1.195-0.273-1.781-0.438c-0.649-0.371-1.194-0.885-1.588-1.5
		c-0.229-0.354-0.42-0.73-0.57-1.12c-0.187-0.493-0.333-0.997-0.431-1.513c-0.381-1.932-0.579-3.888-0.593-5.85
		c0.011-1.953,0.204-3.904,0.589-5.828c0.159-0.856,0.457-1.682,0.879-2.449c0.313-0.551,1.089-1.438,1.704-1.682l1.631-0.419
		c0.549-0.123,1.108-0.202,1.668-0.249c0.507,0.044,1.007,0.112,1.503,0.214c0.599,0.124,1.194,0.276,1.781,0.444
		c0.655,0.37,1.196,0.882,1.589,1.493c0.229,0.357,0.422,0.733,0.573,1.121c0.187,0.494,0.331,1,0.429,1.515
		c0.378,1.928,0.577,3.887,0.591,5.848C33.148,26.686,32.951,28.642,32.569,30.561"/>
	<path fill-rule="evenodd" clip-rule="evenodd" fill="#FFFFFF" d="M114.541,34.684c-0.256-2.091-0.799-4.342-2.354-5.941
		l-0.108-0.106h0.49c0.871,0,1.576-0.668,1.576-1.489v-7.19c0-0.337-0.122-0.665-0.344-0.93c-0.504-0.602-1.054-1.163-1.644-1.688
		c-1.45-1.294-3.221-2.271-5.19-2.574c-1.097-0.17-2.217-0.153-3.313,0.045c-0.984,0.177-1.909,0.564-2.706,1.137
		c-0.797,0.563-1.49,1.244-2.055,2.016c-0.018,0.024-0.034,0.05-0.052,0.075c-0.315,0.489-0.587,1.004-0.808,1.537V6.729
		c0-0.822-0.706-1.493-1.578-1.493h-7.05c-0.874,0-1.578,0.671-1.578,1.493v5.685c0,0.538,0.312,1.038,0.812,1.303
		c0.077,0.038,0.143,0.091,0.197,0.153c0.069,0.115,0.117,0.241,0.137,0.369c0.057,0.392,0.083,0.786,0.083,1.18
		c0,0.225,0,0.445,0.007,0.665v3.771c-0.398-0.974-0.868-1.777-1.56-2.545c-0.445-0.493-0.975-0.918-1.566-1.246
		c-0.651-0.364-1.449-0.68-2.174-0.876c-0.842-0.23-1.706-0.334-2.582-0.319c-0.775-0.035-1.551,0.025-2.31,0.171
		c-0.816,0.163-1.712,0.447-2.454,0.811c-0.738,0.362-1.398,0.855-1.938,1.455c-0.534,0.593-0.978,1.25-1.32,1.95
		c-0.008,0.015-0.013,0.027-0.019,0.043c-0.075,0.157-0.146,0.317-0.207,0.48c-0.396-0.945-0.856-1.722-1.529-2.469
		c-0.443-0.487-0.995-0.934-1.585-1.254c-0.679-0.37-1.4-0.663-2.155-0.868c-0.84-0.23-1.707-0.334-2.578-0.319
		c-0.776-0.035-1.55,0.025-2.313,0.171c-0.816,0.163-1.712,0.447-2.452,0.811c-1.091,0.533-1.896,1.288-2.592,2.271v-1.269
		c0-0.823-0.702-1.488-1.572-1.488h-0.855V9.134c0-1.104-1.219-1.82-2.266-1.34l-5.34,2.444c-0.484-0.779-1.042-1.508-1.673-2.184
		c-0.762-0.818-1.613-1.549-2.541-2.193c-0.322-0.226-0.727-0.323-1.124-0.275c-0.119-0.366-0.381-0.67-0.729-0.858
		c-0.916-0.488-1.861-0.908-2.838-1.262c-1.038-0.379-2.102-0.699-3.183-0.951c-1.277-0.346-2.581-0.603-3.899-0.765
		c-1.409-0.178-2.835-0.262-4.256-0.259L26.69,1.497l-0.765-0.006c-1.286-0.003-2.567,0.066-3.842,0.208
		c-1.461,0.16-2.9,0.43-4.313,0.815c-1.263,0.297-2.503,0.681-3.709,1.15c-1.392,0.538-2.718,1.227-3.946,2.049
		c-1.246,0.829-2.355,1.822-3.3,2.955c-1.048,1.256-1.862,2.673-2.403,4.193L4.18,13.523c-0.078,0.159-0.144,0.321-0.193,0.492
		l-0.121,0.474c-1.029,3.324-1.522,6.776-1.46,10.238c-0.063,3.464,0.431,6.916,1.46,10.238l0.121,0.477
		c0.017,0.072,0.044,0.144,0.072,0.209l0.121,0.281l0.232,0.665c0.444,1.239,1.073,2.419,1.861,3.496
		c1.739,2.378,4.226,4.175,6.993,5.367c1.45,0.623,2.958,1.123,4.504,1.479c1.279,0.346,2.583,0.604,3.897,0.766
		c1.412,0.175,2.835,0.261,4.258,0.258l0.765-0.006l0.763,0.006c1.284,0,2.568-0.068,3.844-0.208
		c1.457-0.161,2.899-0.433,4.312-0.815c1.061-0.247,2.104-0.559,3.127-0.93c3.095-1.117,5.938-2.872,7.958-5.378
		c0.008,0.051,0.016,0.104,0.022,0.152c0.175,1.259,0.581,2.476,1.204,3.598c0.009,0.016,0.017,0.035,0.028,0.051
		c0.321,0.53,0.719,1.011,1.187,1.431c0.57,0.524,1.262,0.913,2.024,1.139c0.888,0.283,1.821,0.396,2.757,0.345
		c1.029-0.058,2.037-0.322,2.956-0.764c0.528-0.254,0.857-0.771,0.857-1.33v-1.147c0.173,0.239,0.354,0.466,0.548,0.691
		c0.422,0.48,0.924,0.896,1.487,1.229c0.674,0.395,1.396,0.705,2.154,0.927c0.841,0.244,1.714,0.37,2.594,0.36
		c1.632,0.085,3.261-0.214,4.743-0.87c0.716-0.321,1.36-0.765,1.9-1.308c0.531-0.54,0.983-1.141,1.349-1.789
		c0.12-0.216,0.322-0.678,0.417-0.911c0.375,0.894,0.82,1.641,1.452,2.362c0.424,0.48,0.929,0.896,1.489,1.229
		c0.672,0.395,1.398,0.705,2.153,0.927c0.839,0.244,1.714,0.37,2.596,0.36c1.632,0.085,3.261-0.214,4.741-0.87
		c0.716-0.321,1.361-0.765,1.899-1.308c0.233-0.239,0.454-0.489,0.657-0.752v0.973c0,0.824,0.707,1.494,1.578,1.494h8.017
		c0.869,0,1.575-0.67,1.575-1.494v-0.647c0.163,0.121,0.326,0.239,0.49,0.361c0.741,0.543,1.534,1.014,2.372,1.417
		c0.861,0.41,1.777,0.702,2.725,0.856c0.501,0.079,1.006,0.123,1.513,0.128c0.524,0.01,1.052-0.009,1.571-0.062
		c0.806-0.072,1.618-0.344,2.325-0.733c0.674-0.378,1.297-0.83,1.855-1.354c0.4-0.368,0.801-0.875,1.089-1.33
		c0.936-1.471,1.379-3.074,1.55-4.752C114.74,37.726,114.731,36.195,114.541,34.684 M32.569,30.561
		c-0.297,1.546-0.973,3.183-2.453,4.062l-0.128,0.07l-1.63,0.42c-0.551,0.12-1.107,0.203-1.67,0.243
		c-0.507-0.036-1.009-0.107-1.505-0.212c-0.6-0.124-1.195-0.273-1.781-0.438c-0.649-0.371-1.194-0.885-1.588-1.5
		c-0.229-0.354-0.42-0.73-0.57-1.12c-0.187-0.493-0.333-0.997-0.431-1.513c-0.381-1.932-0.579-3.888-0.593-5.85
		c0.011-1.953,0.204-3.904,0.589-5.828c0.159-0.856,0.457-1.682,0.879-2.449c0.313-0.551,1.089-1.438,1.704-1.682l1.631-0.419
		c0.549-0.123,1.108-0.202,1.668-0.249c0.507,0.044,1.007,0.112,1.503,0.214c0.599,0.124,1.194,0.276,1.781,0.444
		c0.655,0.37,1.196,0.882,1.589,1.493c0.229,0.357,0.422,0.733,0.573,1.121c0.187,0.494,0.331,1,0.429,1.515
		c0.378,1.928,0.577,3.887,0.591,5.848C33.148,26.686,32.951,28.642,32.569,30.561"/>
	<path fill-rule="evenodd" clip-rule="evenodd" fill="#028552" d="M34.12,18.614c-0.116-0.596-0.283-1.181-0.503-1.751
		c-0.184-0.481-0.421-0.947-0.703-1.387c-0.491-0.77-1.161-1.419-1.958-1.903c-0.115-0.068-0.229-0.13-0.347-0.193
		c-0.682-0.2-1.372-0.377-2.073-0.521c-0.605-0.129-1.223-0.214-1.845-0.255c-0.693,0.046-1.382,0.145-2.055,0.296
		c-0.628,0.142-1.251,0.3-1.869,0.479c-0.115,0.063-0.229,0.125-0.341,0.193c-0.889,0.544-1.616,1.289-2.124,2.162
		c-0.527,0.915-0.835,1.832-1.045,2.885c-0.399,2.015-0.604,4.06-0.613,6.107c0.011,2.051,0.218,4.098,0.613,6.113
		c0.119,0.602,0.285,1.184,0.501,1.752c0.189,0.483,0.425,0.952,0.707,1.389c0.49,0.767,1.161,1.417,1.958,1.899
		c0.114,0.069,0.229,0.132,0.347,0.196c0.683,0.201,1.374,0.376,2.075,0.522c0.607,0.126,1.22,0.21,1.843,0.249
		c0.693-0.043,1.381-0.145,2.049-0.298c0.634-0.136,1.257-0.298,1.876-0.474c0.114-0.064,0.228-0.127,0.339-0.195
		c1.893-1.148,2.77-3.029,3.168-5.045c0.4-2.015,0.607-4.059,0.618-6.107C34.722,22.68,34.513,20.63,34.12,18.614 M32.569,30.561
		c-0.297,1.546-0.973,3.183-2.453,4.062l-0.128,0.07l-1.63,0.42c-0.551,0.12-1.107,0.203-1.67,0.243
		c-0.507-0.036-1.009-0.107-1.505-0.212c-0.6-0.124-1.195-0.273-1.781-0.438c-0.649-0.371-1.194-0.885-1.588-1.5
		c-0.229-0.354-0.42-0.73-0.57-1.12c-0.187-0.493-0.333-0.997-0.431-1.513c-0.381-1.932-0.579-3.888-0.593-5.85
		c0.011-1.953,0.204-3.904,0.589-5.828c0.159-0.856,0.457-1.682,0.879-2.449c0.313-0.551,1.089-1.438,1.704-1.682l1.631-0.419
		c0.549-0.123,1.108-0.202,1.668-0.249c0.507,0.044,1.007,0.112,1.503,0.214c0.599,0.124,1.194,0.276,1.781,0.444
		c0.655,0.37,1.196,0.882,1.589,1.493c0.229,0.357,0.422,0.733,0.573,1.121c0.187,0.494,0.331,1,0.429,1.515
		c0.378,1.928,0.577,3.887,0.591,5.848C33.148,26.686,32.951,28.642,32.569,30.561"/>
	<path fill-rule="evenodd" clip-rule="evenodd" fill="#010101" d="M42.553,7.064c0.281,0.295,0.516,0.625,0.706,0.965
		c0.567,1.028,0.847,2.153,0.934,3.312c0.078,0.967,0.065,1.938-0.031,2.9c-0.211,2.066-0.902,4.108-1.897,5.949
		c-0.286,0.533-0.607,1.045-0.967,1.532c-0.34,0.47-0.723,0.912-1.141,1.323c-0.83,0.811-2.28,0.486-2.639-0.589l-0.765-2.276
		c-0.146-0.433-0.072-0.906,0.196-1.285c0.379-0.528,0.821-1.278,1.056-1.866c-0.062-0.053-0.125-0.11-0.184-0.17
		c-0.287-0.279-0.612-0.661-0.805-1.006c-0.353-0.623-0.599-1.29-0.733-1.985c-0.114-0.564-0.175-1.131-0.176-1.704
		c-0.014-1.175,0.136-2.245,0.574-3.399c0.226-0.61,0.568-1.179,1.01-1.678c0.787-0.89,1.978-1.361,3.162-1.059
		c-1.65-0.884-3.543-1.577-5.653-2.074c-2.162-0.592-4.721-0.973-7.745-0.973c-0.256,0-0.513,0.003-0.765,0.005
		c-0.255-0.002-0.509-0.005-0.769-0.005c-3.025,0-5.583,0.381-7.743,0.973C11.966,5.423,7.641,8.552,5.905,13.336
		c-0.085,0.236-0.167,0.471-0.245,0.703c-0.048,0.107-0.095,0.218-0.14,0.325c-0.045,0.169-0.088,0.34-0.132,0.51
		c-1.004,3.243-1.46,6.476-1.406,9.854c-0.054,3.383,0.402,6.61,1.406,9.854c0.044,0.171,0.087,0.341,0.132,0.513
		c0.045,0.109,0.092,0.216,0.14,0.323c0.078,0.233,0.16,0.465,0.245,0.7c1.735,4.788,6.061,7.916,12.271,9.386
		c2.163,0.592,4.721,0.971,7.746,0.971c0.26,0,0.514,0,0.769-0.005c0.252,0.005,0.509,0.005,0.765,0.005
		c3.024,0,5.583-0.379,7.745-0.971c5.214-1.234,9.095-3.636,11.236-7.202c-0.086-1.125-0.12-2.255-0.097-3.379V24.537
		c-0.649-0.203-1.089-0.773-1.089-1.417v-6.269c0-0.643,0.439-1.215,1.089-1.416v-3.64c0-0.209,0.044-0.408,0.127-0.592
		C45.504,9.588,44.187,8.206,42.553,7.064 M36.314,24.728c-0.012,2.142-0.227,4.279-0.646,6.385
		c-0.421,2.108-1.401,4.539-3.863,6.027c-0.19,0.111-0.384,0.218-0.574,0.314c-1.507,0.441-3.029,0.813-4.541,0.891
		c-1.514-0.077-3.032-0.449-4.544-0.891c-0.193-0.097-0.382-0.203-0.571-0.314c-2.466-1.488-3.447-3.919-3.868-6.027
		c-0.416-2.105-0.632-4.243-0.642-6.385c0.01-2.137,0.226-4.275,0.642-6.383c0.421-2.11,1.402-4.538,3.868-6.023
		c0.189-0.118,0.378-0.222,0.571-0.32c1.512-0.446,3.03-0.813,4.544-0.89c1.512,0.077,3.034,0.443,4.541,0.89
		c0.19,0.099,0.384,0.202,0.574,0.32c2.462,1.485,3.442,3.913,3.863,6.023C36.088,20.452,36.303,22.591,36.314,24.728"/>
	<path fill-rule="evenodd" clip-rule="evenodd" fill="#010101" d="M39.022,22.009c1.291-1.254,2.369-3.173,3.095-5.526
		c0.466-1.526,0.644-3.301,0.504-5.036c-0.127-1.617-0.695-2.998-1.508-3.629c-0.335-0.277-0.701-0.409-1.071-0.387
		c-1.349,0.091-2.405,2.199-2.359,4.717c0.009,1.147,0.269,2.236,0.726,3.003c0.4,0.625,0.885,1.036,1.4,1.188
		c-0.088,0.558-0.242,1.074-0.449,1.504c-0.331,0.7-0.699,1.333-1.102,1.889L39.022,22.009z"/>
	<path fill-rule="evenodd" clip-rule="evenodd" fill="#010101" d="M66.08,27.278v7.613c0.007,0.784-0.029,1.575-0.104,2.341
		c-0.047,0.468-0.136,0.9-0.268,1.261c-0.144,0.363-0.33,0.6-0.532,0.678c-0.266,0.11-0.536,0.072-0.792-0.116
		c-0.256-0.214-0.467-0.682-0.573-1.282c-0.104-0.592-0.165-1.224-0.178-1.867c-0.009-0.34-0.015-0.675-0.015-1.014v-7.613
		c-0.01-0.823,0.032-1.649,0.127-2.439c0.059-0.517,0.172-0.984,0.339-1.338c0.158-0.315,0.353-0.512,0.552-0.573
		c0.241-0.089,0.485-0.041,0.718,0.148c0.23,0.201,0.419,0.627,0.523,1.172c0.099,0.534,0.157,1.108,0.179,1.691
		C66.073,26.386,66.08,26.831,66.08,27.278 M72.396,26.515c0.025-1.675-0.149-3.346-0.517-4.929
		c-0.494-1.978-1.536-3.525-2.844-4.243c-1.276-0.687-2.62-1.02-3.97-0.983c-1.363-0.07-2.724,0.205-4.021,0.813
		c-1.015,0.479-1.908,1.423-2.553,2.706c-0.571,1.259-0.926,2.715-1.033,4.234c-0.064,0.8-0.1,1.603-0.1,2.402v9.194
		c-0.031,1.677,0.144,3.349,0.521,4.925c0.479,1.904,1.469,3.406,2.725,4.128c1.257,0.723,2.597,1.085,3.941,1.063
		c1.364,0.084,2.729-0.163,4.04-0.731c0.981-0.424,1.856-1.274,2.522-2.441c0.599-1.171,0.987-2.558,1.132-4.022
		c0.111-0.967,0.162-1.941,0.155-2.92V26.515z M82.045,27.278v7.613c0.009,0.784-0.025,1.575-0.103,2.341
		c-0.044,0.468-0.137,0.9-0.268,1.261c-0.142,0.363-0.328,0.6-0.532,0.678c-0.266,0.11-0.536,0.072-0.796-0.116
		c-0.256-0.214-0.461-0.682-0.569-1.282c-0.104-0.592-0.166-1.224-0.176-1.867c-0.008-0.34-0.016-0.675-0.016-1.014v-7.613
		c-0.012-0.823,0.031-1.649,0.123-2.439c0.06-0.517,0.177-0.982,0.34-1.337c0.16-0.316,0.351-0.513,0.554-0.574
		c0.241-0.089,0.489-0.041,0.718,0.148c0.23,0.201,0.42,0.627,0.523,1.172c0.099,0.534,0.16,1.108,0.176,1.691
		C82.038,26.386,82.047,26.831,82.045,27.278 M88.495,26.515c0.025-1.675-0.15-3.346-0.518-4.929
		c-0.493-1.978-1.536-3.525-2.845-4.243c-1.271-0.687-2.616-1.02-3.971-0.983c-1.361-0.07-2.721,0.205-4.021,0.813
		c-1.015,0.479-1.905,1.423-2.553,2.706c-0.572,1.259-0.929,2.715-1.031,4.234c-0.066,0.8-0.102,1.603-0.102,2.402v9.194
		c-0.029,1.677,0.146,3.349,0.522,4.925c0.48,1.904,1.468,3.406,2.724,4.128c1.26,0.723,2.6,1.085,3.945,1.063
		c1.363,0.084,2.726-0.163,4.039-0.731c0.978-0.424,1.854-1.274,2.521-2.441c0.603-1.171,0.99-2.558,1.131-4.022
		c0.109-0.967,0.161-1.941,0.157-2.92V26.515z M53.723,9.134l-5.807,2.662v5.056h-1.085v6.269h1.085v11.813
		c-0.035,1.898,0.087,3.798,0.365,5.653c0.163,1.133,0.521,2.193,1.036,3.105c0.603,0.972,1.418,1.64,2.327,1.894
		c1.496,0.469,3.059,0.357,4.513-0.331v-5.786c-0.263,0.009-0.524-0.009-0.783-0.054c-0.32-0.061-0.627-0.243-0.874-0.531
		c-0.238-0.307-0.412-0.691-0.509-1.119c-0.138-0.639-0.218-1.298-0.233-1.967c-0.019-0.502-0.029-1.005-0.035-1.505V23.12h2.435
		v-6.269h-2.435V9.134z M90.639,16.073v19.168c0.014,0.821-0.021,1.641-0.104,2.457c-0.037,0.345-0.108,0.681-0.219,0.994
		c-0.148,0.445-0.361,0.767-0.713,0.854l-0.115,0.027v5.783h8.017v-5.783c-0.247-0.073-0.274-0.225-0.478-0.436
		c-0.191-0.213-0.33-0.497-0.396-0.822c-0.089-0.398-0.141-0.809-0.153-1.222c-0.017-0.461-0.023-0.923-0.021-1.385V6.729h-7.05
		v5.685c0.266,0.132,0.513,0.339,0.726,0.604c0.205,0.284,0.344,0.639,0.403,1.03c0.071,0.453,0.104,0.918,0.098,1.384
		L90.639,16.073z M98.838,42.563c3.607,3.057,5.781,3.629,8.766,3.369c1.133-0.095,2.239-0.778,3.224-1.672
		c1.174-1.126,1.97-3.016,2.171-5.158c0.164-1.407,0.155-2.849-0.021-4.244c-0.365-2.874-1.161-5.213-3.696-6.272
		c-2.127-0.888-5.093-1.407-4.695-4.048c0.187-0.775,0.519-1.355,1.046-1.521c0.438-0.148,0.482-0.097,0.898,0.154
		c0.415,0.267,0.483,0.802,0.629,1.468c0.144,0.643,0.127,1.777,0.113,2.462v0.046h5.296v-7.19c-2.923-3.43-5.752-4.167-8.614-3.687
		c-1.389,0.238-2.702,1.121-3.768,2.541c-1.437,2.193-1.906,5.698-1.396,8.758c0.153,0.896,0.334,1.804,0.64,2.566
		c0.745,1.85,2.287,2.878,4.788,3.595c0.563,0.172,1.135,0.351,1.576,0.592c0.379,0.2,0.608,0.42,0.928,0.802
		c0.503,0.662,0.734,1.593,0.604,2.606c-0.176,1.729-1.334,1.59-1.535,1.476c-0.345-0.217-0.623-0.302-0.771-0.842
		c-0.142-0.55-0.226-2.271-0.247-2.863c-0.011-0.276-0.019-0.553-0.017-0.831h-5.919V42.563z"/>
	<path fill-rule="evenodd" clip-rule="evenodd" fill="#028552" d="M98.034,30.852v2.535c0.244-0.138,0.521-0.207,0.804-0.207h0.911
		C99.001,32.531,98.415,31.738,98.034,30.852"/>
	<path fill-rule="evenodd" clip-rule="evenodd" fill="#028552" d="M55.859,37.972c-0.063-0.756-0.093-1.516-0.078-2.277v-9.18
		c0-0.633,0.019-1.272,0.061-1.903h-0.54v9.676c0.003,0.484,0.014,0.972,0.036,1.45v0.031c0.012,0.572,0.081,1.143,0.201,1.701
		c0.036,0.178,0.106,0.344,0.203,0.49C55.781,37.963,55.819,37.967,55.859,37.972"/>
	<path fill="#FFFFFF" d="M3.924,56.041c0-0.365,0.073-0.984-0.508-0.984s-0.51,0.619-0.51,0.984v3.434
		c0,0.36-0.071,0.982,0.51,0.982s0.508-0.622,0.508-0.982v-1.008h2.675v2.968c-0.715,0.59-1.867,0.911-2.986,0.943
		c-1.108,0.03-2.188-0.218-2.738-0.737c-0.768-0.716-0.736-1.647-0.736-2.622v-3.093c0-0.798,0.104-1.578,0.757-2.115
		c0.602-0.499,1.587-0.717,2.634-0.674c1.061,0.038,2.18,0.372,3.07,0.964v2.469H3.924V56.041z"/>
	<path d="M3.421,62.519c-1.144,0-2.12-0.285-2.642-0.776c-0.78-0.729-0.78-1.688-0.779-2.617v-3.199
		c0-0.808,0.098-1.635,0.809-2.221c0.594-0.494,1.594-0.756,2.727-0.708c1.114,0.045,2.26,0.403,3.14,0.988l0.063,0.042v2.68H3.785
		l0.001-0.779c0.005-0.23,0.01-0.518-0.12-0.649c-0.113-0.115-0.389-0.115-0.501,0c-0.132,0.132-0.125,0.419-0.122,0.649
		l0.003,0.112l-0.003,3.547c-0.003,0.231-0.01,0.515,0.122,0.65c0.112,0.112,0.388,0.112,0.501,0c0.13-0.136,0.125-0.419,0.12-0.65
		L3.785,58.33h2.953v3.169l-0.052,0.042c-0.699,0.575-1.844,0.939-3.069,0.974C3.552,62.518,3.486,62.519,3.421,62.519
		 M3.278,53.271c-0.967,0-1.792,0.229-2.295,0.646c-0.622,0.514-0.708,1.269-0.708,2.009v3.199c-0.001,0.909-0.002,1.77,0.691,2.416
		c0.491,0.462,1.504,0.731,2.641,0.698c1.137-0.03,2.196-0.355,2.854-0.872v-2.761h-2.4l0.003,0.976
		c0.005,0.267,0.01,0.632-0.201,0.849c-0.108,0.11-0.259,0.165-0.446,0.165c-0.189,0-0.338-0.055-0.445-0.165
		c-0.214-0.217-0.207-0.582-0.201-0.849v-0.109v-3.541c-0.006-0.268-0.013-0.634,0.201-0.848c0.107-0.111,0.256-0.167,0.445-0.167
		c0.188,0,0.338,0.056,0.446,0.167c0.211,0.214,0.206,0.58,0.201,0.848l-0.003,0.5h2.4v-2.257c-0.831-0.532-1.896-0.861-2.938-0.9
		C3.441,53.271,3.359,53.271,3.278,53.271"/>
	<path fill="#FFFFFF" d="M10.806,61.704c-0.519,0.434-1.026,0.633-1.702,0.633c-1.143,0-1.855-0.717-1.855-1.868
		c0-1.307,0.787-1.69,1.886-2.053l1.578-0.51v-0.228c0-0.321-0.083-0.642-0.425-0.642c-0.396,0-0.478,0.32-0.478,0.642v0.27H7.518
		v-1.607c0.84-0.602,1.896-0.81,2.914-0.81c0.651,0,1.494,0.104,2.043,0.52c0.684,0.538,0.694,1.224,0.684,1.981v1.824
		c0,0.343-0.03,0.645,0.303,0.882v1.463h-2.655V61.704z M10.712,59.421c-0.437,0.177-1.017,0.279-1.017,0.738
		c0,0.207,0.137,0.445,0.353,0.404c0.207,0,0.436-0.073,0.664-0.239V59.421z"/>
	<path d="M9.104,62.475c-1.211,0-1.993-0.787-1.993-2.006c0-1.416,0.896-1.825,1.983-2.185l0.61-0.198H7.38v-1.817l0.059-0.04
		c0.771-0.553,1.779-0.833,2.993-0.833c0.639,0,1.528,0.094,2.127,0.546c0.759,0.6,0.747,1.393,0.736,2.092v1.904
		c0,0.297-0.002,0.511,0.246,0.688l0.057,0.041v1.671h-2.93v-0.354C10.19,62.324,9.708,62.475,9.104,62.475 M10.287,56.898
		c0.211,0,0.563,0.102,0.563,0.78v0.33l-1.673,0.536c-1.051,0.349-1.793,0.689-1.793,1.924c0,1.066,0.658,1.729,1.719,1.729
		c0.63,0,1.111-0.178,1.612-0.6l0.228-0.191v0.656h2.379v-1.258c-0.306-0.253-0.304-0.567-0.301-0.87v-1.903
		c0.011-0.823-0.026-1.396-0.631-1.875c-0.565-0.425-1.469-0.488-1.959-0.488c-1.126,0-2.059,0.249-2.776,0.743v1.399h2.017v-0.133
		C9.672,57.033,10.006,56.898,10.287,56.898 M10.287,57.174c-0.168,0-0.339,0.06-0.339,0.505v0.33l0.626-0.202v-0.128
		C10.574,57.174,10.363,57.174,10.287,57.174 M9.992,60.706c-0.077,0-0.165-0.03-0.236-0.091c-0.12-0.1-0.198-0.277-0.198-0.456
		c0-0.473,0.456-0.634,0.861-0.776c0.08-0.028,0.163-0.058,0.24-0.089l0.191-0.078v1.178l-0.057,0.041
		c-0.239,0.174-0.497,0.266-0.746,0.266C10.029,60.705,10.011,60.706,9.992,60.706 M10.574,59.621
		c-0.02,0.007-0.044,0.015-0.064,0.023c-0.411,0.144-0.677,0.256-0.677,0.515c0,0.096,0.041,0.196,0.097,0.244
		c0.029,0.022,0.057,0.03,0.092,0.022c0.195-0.001,0.379-0.06,0.553-0.174V59.621z"/>
	<path fill="#FFFFFF" d="M16.556,56.186c0.259-0.446,0.528-0.665,1.058-0.665c0.094,0,0.198,0.011,0.292,0.032v2.231h-0.198
		c-0.85,0-1.037,0.476-1.037,1.244v0.634c0,0.204,0,0.497,0.042,0.704c0.04,0.216,0.103,0.27,0.311,0.373v1.463h-3.102v-1.485
		c0.333-0.216,0.301-0.518,0.301-0.86V58.01c0-0.342,0.032-0.642-0.301-0.859v-1.485h2.635V56.186z"/>
	<path d="M17.16,62.339h-3.375v-1.693l0.062-0.043c0.23-0.151,0.241-0.332,0.238-0.664l-0.001-1.929l0.001-0.083
		c0.003-0.33-0.008-0.51-0.238-0.66l-0.062-0.043v-1.694h2.908v0.226c0.213-0.23,0.489-0.37,0.92-0.37
		c0.107,0,0.218,0.013,0.32,0.032l0.108,0.025v2.479h-0.335c-0.672,0-0.9,0.278-0.9,1.107v0.634c0,0.203,0,0.481,0.041,0.677
		c0.031,0.164,0.055,0.188,0.237,0.276l0.075,0.038V62.339z M14.06,62.063h2.825v-1.239c-0.176-0.098-0.262-0.188-0.31-0.434
		c-0.041-0.22-0.041-0.515-0.041-0.729v-0.634c0-0.685,0.137-1.384,1.173-1.384h0.06v-1.976c-0.051-0.005-0.103-0.01-0.153-0.01
		c-0.442,0-0.68,0.151-0.939,0.596l-0.257,0.443v-0.893H14.06v1.273c0.304,0.237,0.304,0.549,0.301,0.851v1.927v0.081
		c0.003,0.303,0.003,0.613-0.301,0.851V62.063z"/>
	<path fill="#FFFFFF" d="M21.256,55.667h0.81v1.493h-0.81v2.499c0,0.707-0.01,0.966,0.81,1.058v1.485l-1.226,0.091
		c-0.536,0.044-1.201-0.052-1.618-0.455c-0.444-0.446-0.414-1.058-0.414-1.631V57.16h-0.302v-1.493h0.302v-1.276l2.448-0.694V55.667
		z"/>
	<path d="M20.613,62.442c-0.407,0-1.048-0.078-1.487-0.506c-0.46-0.461-0.458-1.078-0.454-1.622v-3.016h-0.303v-1.77h0.303v-1.242
		l2.723-0.773v2.016h0.808v1.77h-0.808v2.363c0,0.699,0,0.841,0.688,0.92l0.12,0.014v1.734l-1.351,0.101
		C20.788,62.437,20.707,62.442,20.613,62.442 M18.645,57.021h0.304v3.293c-0.005,0.515-0.005,1.049,0.371,1.428
		c0.459,0.444,1.211,0.438,1.51,0.415l1.098-0.084v-1.234c-0.81-0.125-0.808-0.499-0.808-1.155v-2.662h0.808v-1.216h-0.808V53.88
		l-2.171,0.616v1.31h-0.304V57.021z"/>
	<path fill="#FFFFFF" d="M24.941,59.92c0,0.372-0.043,0.891,0.486,0.891c0.26,0,0.47-0.217,0.47-0.497
		c0-0.591-0.749-0.685-1.184-0.787c-1.173-0.271-2.191-0.479-2.191-1.909c0-0.685,0.166-1.233,0.759-1.641
		c0.521-0.341,1.275-0.445,1.889-0.445c1.036,0,2.105,0.209,2.945,0.853v1.555h-2.272v-0.239c0-0.3-0.093-0.644-0.486-0.644
		c-0.259,0-0.477,0.197-0.477,0.446c0,0.468,0.621,0.551,0.975,0.625c1.275,0.268,2.438,0.476,2.438,2.072
		c0,1.7-1.318,2.136-2.792,2.136c-0.923,0-2.168-0.216-2.861-0.88v-1.69h2.302V59.92z"/>
	<path d="M25.501,62.475c-0.467,0-2.063-0.066-2.956-0.92l-0.043-0.041v-1.887h2.034c-1.116-0.26-2.15-0.531-2.15-2.01
		c0-0.556,0.093-1.257,0.816-1.753c0.623-0.408,1.498-0.469,1.969-0.469c1.248,0,2.266,0.296,3.027,0.878l0.056,0.04v1.763h-1.967
		c1.141,0.252,2.142,0.592,2.142,2.123C28.429,61.708,27.443,62.475,25.501,62.475 M22.777,61.393
		c0.66,0.594,1.833,0.806,2.724,0.806c1.786,0,2.653-0.654,2.653-1.999c0-1.449-0.99-1.657-2.243-1.922l-0.171-0.033
		c-0.374-0.074-0.999-0.199-0.999-0.742c0-0.321,0.276-0.583,0.615-0.583c0.396,0,0.624,0.286,0.624,0.78v0.103h1.998v-1.351
		c-0.709-0.52-1.652-0.782-2.808-0.782c-0.438,0-1.256,0.056-1.813,0.426c-0.484,0.332-0.695,0.787-0.695,1.522
		c0,1.294,0.891,1.5,2.018,1.759l0.211,0.048c0.455,0.1,1.142,0.25,1.142,0.89c0,0.356-0.264,0.635-0.604,0.635
		c-0.182,0-0.327-0.054-0.432-0.16c-0.197-0.196-0.196-0.527-0.195-0.793l0.001-0.094h-2.025V61.393z M25.078,59.751l-0.001,0.245
		c0,0.214-0.002,0.483,0.113,0.6c0.055,0.053,0.131,0.078,0.238,0.078c0.187,0,0.328-0.158,0.328-0.36
		C25.757,59.993,25.469,59.854,25.078,59.751 M25.356,57.193c-0.187,0-0.34,0.141-0.34,0.309c0,0.271,0.316,0.374,0.69,0.451v-0.254
		C25.707,57.193,25.442,57.193,25.356,57.193"/>
	<path fill="#FFFFFF" d="M29.445,63.321c0.293-0.331,0.561-0.705,0.737-1.11c-0.632-0.031-1.108-0.443-1.108-1.099
		c0-0.665,0.527-1.119,1.182-1.119c0.748,0,1.244,0.631,1.244,1.347c0,0.945-0.829,1.908-1.545,2.448L29.445,63.321z"/>
	<path d="M29.948,63.967l-0.693-0.635l0.088-0.1c0.276-0.313,0.484-0.613,0.633-0.904c-0.63-0.109-1.04-0.577-1.04-1.216
		c0-0.715,0.567-1.259,1.32-1.259c0.774,0,1.382,0.655,1.382,1.486c0,0.998-0.861,2.001-1.6,2.559L29.948,63.967z M29.639,63.311
		l0.324,0.297c0.665-0.527,1.398-1.41,1.398-2.268c0-0.587-0.388-1.21-1.105-1.21c-0.606,0-1.044,0.411-1.044,0.982
		c0,0.555,0.384,0.933,0.978,0.963l0.2,0.008l-0.08,0.185C30.159,62.609,29.939,62.951,29.639,63.311"/>
	<path fill="#FFFFFF" d="M36.307,55.759c0-0.331,0.031-0.662-0.301-0.868v-1.579h3.619c0.756,0,1.774-0.01,2.396,0.468
		c1.017,0.776,0.871,2.197,0.871,2.428v0.704c0,1.691-0.559,2.739-2.832,2.739h-0.984c0,0.435-0.032,0.767,0.3,0.975v1.577h-3.37
		v-1.577c0.332-0.208,0.301-0.54,0.301-0.871V55.759z M39.076,57.772h0.259c0.818,0,0.789-0.466,0.789-1.297
		c0-0.84,0.029-1.307-0.789-1.307h-0.259V57.772z"/>
	<path d="M39.515,62.338h-3.646v-1.79l0.064-0.039c0.23-0.145,0.24-0.349,0.235-0.676v-0.079V55.68
		c0.005-0.324-0.005-0.53-0.235-0.674l-0.064-0.04v-1.791h3.806h0.047c0.749,0,1.753,0.011,2.384,0.496
		c0.657,0.501,0.971,1.33,0.929,2.462l-0.001,0.075v0.703c0,1.424-0.354,2.877-2.972,2.877h-0.847
		c-0.003,0.386,0.013,0.581,0.236,0.721l0.064,0.039V62.338z M36.144,62.063h3.096v-1.368c-0.307-0.23-0.303-0.577-0.301-0.941
		v-0.242h1.122c2.235,0,2.695-1.041,2.695-2.601l0.001-0.789c0.015-0.387,0.058-1.563-0.819-2.232
		c-0.561-0.431-1.51-0.441-2.217-0.441h-0.047h-3.53v1.368c0.307,0.23,0.304,0.568,0.3,0.865v0.079v4.071
		c0.004,0.298,0.007,0.634-0.3,0.863V62.063z M39.335,57.91h-0.396v-2.878h0.396c0.325,0,0.543,0.069,0.691,0.217
		c0.236,0.234,0.236,0.612,0.234,1.138v0.178c0.002,0.52,0.002,0.894-0.233,1.131C39.88,57.842,39.66,57.91,39.335,57.91
		 M39.214,57.635h0.121c0.244,0,0.409-0.045,0.497-0.136c0.153-0.153,0.153-0.482,0.153-0.935v-0.178c0-0.459,0-0.789-0.153-0.945
		c-0.091-0.091-0.253-0.135-0.497-0.135h-0.121V57.635z"/>
	<path fill="#FFFFFF" d="M46.828,61.704c-0.519,0.434-1.026,0.633-1.7,0.633c-1.14,0-1.856-0.717-1.856-1.868
		c0-1.306,0.789-1.69,1.889-2.053l1.575-0.51v-0.228c0-0.321-0.082-0.642-0.426-0.642c-0.393,0-0.476,0.32-0.476,0.642v0.27h-2.291
		v-1.607c0.841-0.601,1.896-0.81,2.913-0.81c0.653,0,1.494,0.104,2.043,0.52c0.684,0.538,0.694,1.224,0.684,1.981v1.824
		c0,0.343-0.03,0.646,0.303,0.882v1.463h-2.657V61.704z M46.735,59.421c-0.435,0.177-1.017,0.279-1.017,0.738
		c0,0.207,0.135,0.445,0.354,0.404c0.208,0,0.436-0.073,0.663-0.239V59.421z"/>
	<path d="M45.129,62.474c-1.211,0-1.995-0.785-1.995-2.005c0-1.413,0.898-1.825,1.983-2.186l0.612-0.197h-2.326v-1.814l0.058-0.043
		c0.773-0.554,1.782-0.833,2.995-0.833c0.64,0,1.529,0.094,2.125,0.546c0.763,0.6,0.75,1.393,0.74,2.092v1.904
		c-0.002,0.297-0.003,0.511,0.245,0.688l0.056,0.044v1.669h-2.931v-0.354C46.214,62.324,45.732,62.474,45.129,62.474 M46.31,56.898
		c0.212,0,0.565,0.102,0.565,0.78v0.33l-1.673,0.536c-1.05,0.349-1.794,0.689-1.794,1.924c0,1.066,0.658,1.729,1.721,1.729
		c0.629,0,1.112-0.181,1.613-0.599l0.226-0.192v0.656h2.379v-1.258c-0.307-0.252-0.303-0.567-0.301-0.87l0.001-1.903
		c0.011-0.823-0.028-1.396-0.634-1.875c-0.563-0.423-1.47-0.488-1.957-0.488c-1.125,0-2.059,0.251-2.777,0.743v1.399h2.016v-0.133
		C45.694,57.033,46.031,56.898,46.31,56.898 M46.31,57.174c-0.166,0-0.338,0.06-0.338,0.505v0.331l0.627-0.202v-0.129
		C46.599,57.174,46.39,57.174,46.31,57.174 M46.018,60.705c-0.078,0-0.166-0.029-0.238-0.09c-0.12-0.1-0.197-0.275-0.197-0.456
		c0-0.473,0.456-0.633,0.861-0.776c0.08-0.028,0.163-0.058,0.242-0.089l0.189-0.077v1.181l-0.059,0.038
		c-0.237,0.173-0.496,0.265-0.744,0.265C46.054,60.704,46.037,60.705,46.018,60.705 M46.599,59.621
		c-0.021,0.007-0.043,0.015-0.064,0.021c-0.422,0.149-0.676,0.258-0.676,0.517c0,0.096,0.04,0.197,0.097,0.243
		c0.028,0.023,0.059,0.032,0.093,0.025c0.194-0.003,0.375-0.063,0.551-0.177V59.621z"/>
	<path fill="#FFFFFF" d="M52.578,56.186c0.26-0.445,0.528-0.665,1.06-0.665c0.093,0,0.196,0.011,0.291,0.032v2.231H53.73
		c-0.852,0-1.035,0.476-1.035,1.244v0.634c0,0.204,0,0.497,0.041,0.704c0.041,0.216,0.102,0.27,0.309,0.373v1.463h-3.1v-1.485
		c0.334-0.215,0.3-0.518,0.3-0.86V58.01c0-0.342,0.034-0.642-0.3-0.859v-1.485h2.633V56.186z"/>
	<path d="M53.185,62.339h-3.377v-1.693l0.063-0.043c0.231-0.151,0.239-0.332,0.238-0.664l-0.001-1.929l0.001-0.083
		c0.001-0.33-0.007-0.51-0.238-0.66l-0.063-0.043v-1.694h2.908v0.226c0.213-0.23,0.49-0.37,0.922-0.37
		c0.105,0,0.219,0.013,0.32,0.033l0.108,0.024v2.479H53.73c-0.674,0-0.898,0.278-0.898,1.107v0.634c0,0.203,0,0.481,0.037,0.677
		c0.034,0.164,0.058,0.188,0.239,0.276l0.076,0.038V62.339z M50.082,62.063h2.826v-1.239c-0.176-0.097-0.262-0.188-0.309-0.434
		c-0.043-0.22-0.043-0.515-0.043-0.729v-0.634c0-0.685,0.14-1.382,1.174-1.382h0.061v-1.978c-0.051-0.005-0.103-0.01-0.153-0.01
		c-0.444,0-0.682,0.151-0.94,0.597l-0.255,0.442v-0.893h-2.36v1.273c0.306,0.237,0.303,0.549,0.302,0.851v1.927v0.081
		c0.001,0.303,0.004,0.613-0.302,0.851V62.063z"/>
	<path fill="#FFFFFF" d="M57.282,55.667h0.808v1.493h-0.808v2.499c0,0.708-0.013,0.966,0.808,1.058v1.485l-1.225,0.091
		c-0.538,0.044-1.202-0.052-1.617-0.455c-0.444-0.445-0.415-1.058-0.415-1.631V57.16h-0.301v-1.493h0.301v-1.276l2.449-0.694V55.667
		z"/>
	<path d="M56.637,62.442c-0.406,0-1.045-0.078-1.485-0.505c-0.459-0.461-0.459-1.079-0.455-1.623v-3.016h-0.302v-1.77h0.302v-1.242
		l2.723-0.773v2.016h0.81v1.77h-0.81v2.363c0,0.7,0,0.841,0.687,0.92l0.123,0.014v1.734l-1.354,0.101
		C56.813,62.437,56.73,62.442,56.637,62.442 M54.669,57.021h0.302v3.293c-0.001,0.515-0.005,1.049,0.374,1.428
		c0.458,0.444,1.21,0.438,1.51,0.415l1.096-0.084v-1.234c-0.807-0.125-0.807-0.499-0.807-1.152v-2.665h0.807v-1.216h-0.807V53.88
		l-2.173,0.616v1.31h-0.302V57.021z"/>
	<path fill="#FFFFFF" d="M60.965,59.92c0,0.372-0.04,0.891,0.487,0.891c0.261,0,0.468-0.217,0.468-0.497
		c0-0.591-0.747-0.685-1.181-0.787c-1.173-0.271-2.189-0.479-2.189-1.909c0-0.685,0.165-1.233,0.758-1.641
		c0.519-0.341,1.274-0.445,1.886-0.445c1.038,0,2.104,0.209,2.945,0.853v1.555h-2.271v-0.239c0-0.3-0.092-0.644-0.486-0.644
		c-0.259,0-0.478,0.197-0.478,0.446c0,0.468,0.623,0.551,0.976,0.625c1.275,0.268,2.438,0.476,2.438,2.072
		c0,1.7-1.317,2.136-2.79,2.136c-0.922,0-2.17-0.216-2.862-0.88v-1.69h2.301V59.92z"/>
	<path d="M61.526,62.475c-0.469,0-2.064-0.066-2.959-0.92l-0.041-0.041v-1.887h2.036c-1.118-0.26-2.152-0.531-2.152-2.01
		c0-0.556,0.095-1.257,0.816-1.753c0.623-0.408,1.5-0.469,1.968-0.469c1.248,0,2.267,0.296,3.03,0.878l0.054,0.04v1.763h-1.968
		c1.14,0.252,2.144,0.592,2.144,2.123C64.454,61.708,63.469,62.475,61.526,62.475 M58.802,61.396
		c0.66,0.591,1.831,0.803,2.725,0.803c1.784,0,2.652-0.654,2.652-1.999c0-1.449-0.991-1.657-2.242-1.92l-0.172-0.035
		c-0.373-0.074-0.999-0.199-0.999-0.742c0-0.321,0.275-0.583,0.615-0.583c0.398,0,0.624,0.286,0.624,0.78v0.103h1.997v-1.351
		c-0.708-0.52-1.653-0.782-2.808-0.782c-0.439,0-1.256,0.056-1.813,0.426c-0.486,0.332-0.695,0.787-0.695,1.522
		c0,1.294,0.891,1.5,2.019,1.759l0.209,0.048c0.454,0.1,1.144,0.25,1.144,0.89c0,0.356-0.266,0.635-0.605,0.635
		c-0.183,0-0.327-0.054-0.431-0.16c-0.199-0.196-0.196-0.527-0.194-0.793l0.001-0.094h-2.026V61.396z M61.103,59.751l-0.001,0.245
		c-0.002,0.214-0.003,0.483,0.115,0.6c0.053,0.053,0.13,0.078,0.235,0.078c0.187,0,0.329-0.158,0.329-0.36
		C61.781,59.993,61.491,59.854,61.103,59.751 M61.381,57.193c-0.188,0-0.341,0.141-0.341,0.309c0,0.271,0.317,0.374,0.691,0.451
		v-0.254C61.731,57.193,61.467,57.193,61.381,57.193"/>
	<path fill="#FFFFFF" d="M72.317,56.279h2.647v0.456h0.412v1.689h-0.412v3.777H71.24c-0.664,0-1.452,0-2.023-0.396
		c-0.643-0.454-0.808-1.314-0.808-2.053c0-0.923,0.196-1.939,1.202-2.263c-0.83-0.259-1.111-0.983-1.111-1.804
		c0-1.949,1.465-2.551,3.166-2.551c1.138,0,2.28,0.312,3.299,0.913v1.743h-2.647c0-0.406-0.113-0.736-0.538-0.736
		c-0.436,0-0.519,0.435-0.519,0.817c0,0.705,0.334,0.861,1.057,0.861V56.279z M72.317,58.425h-0.414
		c-0.488,0-0.663,0.188-0.663,0.935c0,0.737,0.175,0.922,0.663,0.922h0.414V58.425z"/>
	<path d="M75.104,62.339h-3.864c-0.665,0-1.496,0-2.099-0.417c-0.721-0.511-0.871-1.463-0.871-2.168
		c0-1.161,0.324-1.904,0.986-2.261c-0.587-0.315-0.891-0.931-0.891-1.806c0-1.759,1.141-2.69,3.301-2.69
		c1.173,0,2.337,0.322,3.368,0.933l0.069,0.041v1.959H72.18v-0.138c0-0.528-0.203-0.6-0.4-0.6c-0.104,0-0.38,0-0.38,0.682
		c0,0.529,0.172,0.701,0.78,0.722v-0.454h2.924v0.455h0.413v1.966h-0.413V62.339z M71.666,53.274c-2.008,0-3.026,0.813-3.026,2.413
		c0,0.9,0.341,1.463,1.013,1.671l0.416,0.132l-0.416,0.133c-0.755,0.241-1.107,0.919-1.107,2.131c0,0.644,0.131,1.502,0.753,1.94
		c0.533,0.369,1.283,0.369,1.941,0.369h3.585v-3.775h0.415v-1.414h-0.415v-0.458h-2.367v0.458h-0.138c-0.738,0-1.196-0.168-1.196-1
		c0-0.79,0.357-0.957,0.656-0.957c0.288,0,0.628,0.134,0.671,0.738h2.374V54.13C73.856,53.569,72.764,53.274,71.666,53.274
		 M72.457,60.421h-0.554c-0.593,0-0.801-0.278-0.801-1.062c0-0.79,0.208-1.071,0.801-1.071h0.554V60.421z M71.903,58.563
		c-0.365,0-0.525,0.076-0.525,0.797c0,0.711,0.16,0.784,0.525,0.784h0.276v-1.581H71.903z"/>
	<path fill="#FFFFFF" d="M82.729,59.754c0,0.331-0.033,0.663,0.3,0.871v1.577h-3.371v-1.577c0.332-0.208,0.301-0.54,0.301-0.871
		v-3.995c0-0.331,0.031-0.662-0.301-0.868v-1.579h3.849c0.684,0,1.546-0.01,2.146,0.354c0.728,0.426,0.976,1.182,0.976,1.992
		c0,0.973-0.292,1.825-1.328,2.085v0.02c0.871,0.206,1.162,0.58,1.162,1.482v0.51c0,0.301,0,0.736,0.343,0.871v1.577h-2.978
		c-0.115-0.488-0.187-0.903-0.156-2.386c0-0.706-0.069-1.061-0.827-1.079h-0.115V59.754z M82.729,56.963h0.281
		c0.601,0,0.787-0.312,0.787-0.932c0-0.573-0.187-0.884-0.787-0.884h-0.281V56.963z"/>
	<path d="M86.943,62.338h-3.225l-0.025-0.105c-0.117-0.498-0.19-0.937-0.158-2.42c0-0.669-0.055-0.913-0.667-0.938l-0.001,0.958
		c-0.004,0.327,0.008,0.533,0.235,0.677l0.065,0.038v1.79h-3.647v-1.79l0.065-0.038c0.229-0.146,0.237-0.352,0.237-0.678
		l-0.001-0.078l0.001-4.072c0-0.326-0.008-0.532-0.237-0.676l-0.065-0.04v-1.791h4.041h0.058c0.679,0,1.505,0.011,2.106,0.372
		c0.68,0.397,1.041,1.128,1.041,2.11c0,1.074-0.345,1.76-1.054,2.085c0.647,0.249,0.89,0.678,0.89,1.504v0.508
		c0,0.337,0.017,0.65,0.254,0.741l0.087,0.036V62.338z M83.937,62.063h2.73V60.71c-0.344-0.2-0.344-0.668-0.344-0.956v-0.508
		c0-0.843-0.246-1.159-1.054-1.35l-0.105-0.025v-0.217l0.104-0.047c0.834-0.208,1.221-0.829,1.221-1.95
		c0-0.891-0.303-1.521-0.906-1.872c-0.554-0.337-1.359-0.341-2.021-0.337h-3.765v1.368c0.307,0.233,0.305,0.569,0.301,0.866v4.147
		c0.004,0.299,0.006,0.635-0.301,0.865v1.368h3.095v-1.368c-0.304-0.229-0.303-0.565-0.301-0.863v-1.231h0.254
		c0.898,0.023,0.967,0.518,0.967,1.216C83.783,61.167,83.838,61.613,83.937,62.063 M83.011,57.101h-0.42v-2.09h0.42
		c0.829,0,0.925,0.581,0.925,1.021C83.936,56.529,83.829,57.101,83.011,57.101 M82.868,56.826h0.143
		c0.484,0,0.648-0.201,0.648-0.795c0-0.552-0.168-0.746-0.648-0.746h-0.143V56.826z"/>
	<path fill="#FFFFFF" d="M87.484,58.042c-0.041-1.784,0.56-2.499,2.853-2.511c2.408-0.011,2.998,0.788,2.957,2.385v1.547h-3.36
		v0.603c-0.012,0.319,0.031,0.745,0.454,0.745c0.426,0,0.457-0.383,0.457-0.714v-0.24h2.449v1.64
		c-0.539,0.466-1.545,0.768-2.552,0.841c-0.996,0.071-2.002-0.096-2.54-0.499c-0.685-0.507-0.718-1.233-0.718-2.021V58.042z
		 M90.887,57.72c0-0.259-0.042-0.664-0.477-0.664c-0.436,0-0.477,0.405-0.477,0.664v0.248h0.953V57.72z"/>
	<path d="M90.287,62.49c-0.904,0-1.709-0.197-2.169-0.543c-0.771-0.57-0.771-1.438-0.771-2.131v-1.771
		c-0.022-0.956,0.145-1.564,0.54-1.973c0.451-0.462,1.208-0.672,2.45-0.677h0.046c1.25,0,2.052,0.221,2.517,0.695
		c0.389,0.398,0.554,0.962,0.533,1.83v1.68H90.07v0.465c-0.009,0.271,0.028,0.449,0.116,0.536c0.045,0.05,0.111,0.074,0.202,0.074
		c0.236,0,0.318-0.148,0.318-0.579v-0.376h2.726v1.837l-0.048,0.043c-0.534,0.46-1.541,0.793-2.635,0.873
		C90.595,62.486,90.439,62.49,90.287,62.49 M90.384,55.669h-0.047c-1.163,0.006-1.856,0.19-2.251,0.598
		c-0.341,0.349-0.484,0.896-0.464,1.772v1.777c0,0.832,0.048,1.457,0.66,1.912c0.487,0.366,1.424,0.544,2.448,0.47
		c1.004-0.072,1.925-0.364,2.426-0.765v-1.438h-2.173v0.101c0,0.254,0,0.852-0.595,0.852c-0.166,0-0.301-0.052-0.402-0.156
		c-0.186-0.193-0.199-0.512-0.193-0.731v-0.735h3.363v-1.409c0.02-0.789-0.119-1.291-0.452-1.632
		C92.293,55.866,91.556,55.669,90.384,55.669 M91.023,58.106h-1.23V57.72c0-0.66,0.339-0.801,0.615-0.801
		c0.281,0,0.615,0.141,0.615,0.801V58.106z M90.07,57.832h0.679V57.72c0-0.461-0.164-0.526-0.341-0.526
		c-0.175,0-0.338,0.065-0.338,0.526V57.832z"/>
	<path fill="#FFFFFF" d="M96.585,56.072c0.664-0.446,1.244-0.563,1.761-0.541c0.51,0.021,0.956,0.188,1.205,0.437
		c0.446,0.425,0.496,0.902,0.496,1.462v2.447c0,0.322-0.028,0.687,0.292,0.862v1.463h-2.604c-0.143-0.664-0.132-1.359-0.132-2.032
		v-1.91c0-0.041,0.03-0.344-0.074-0.581c-0.165-0.249-0.435-0.436-0.839-0.249v2.447c0,0.322-0.033,0.687,0.3,0.862v1.463H93.94
		v-1.463c0.319-0.188,0.3-0.488,0.3-0.819v-1.981c0-0.354,0.011-0.581-0.3-0.812v-1.462h2.645V56.072z"/>
	<path d="M100.478,62.339h-2.854l-0.021-0.109c-0.141-0.634-0.14-1.294-0.14-1.931V58.26c0.007-0.109,0.017-0.345-0.061-0.526
		c-0.147-0.216-0.341-0.29-0.576-0.21v2.432c-0.003,0.336,0.011,0.548,0.227,0.661l0.073,0.04v1.683H93.8v-1.68l0.072-0.039
		c0.221-0.13,0.231-0.318,0.229-0.643V59.92v-1.981c0-0.355,0-0.519-0.243-0.699L93.8,57.198v-1.669h2.922v0.294
		c0.53-0.311,1.073-0.454,1.632-0.428c0.535,0.02,1.02,0.198,1.294,0.476c0.498,0.474,0.539,1.007,0.539,1.559v2.525
		c-0.003,0.336,0.012,0.548,0.22,0.664l0.071,0.037V62.339z M97.848,62.063h2.353v-1.249c-0.296-0.21-0.291-0.569-0.289-0.861V57.43
		c0-0.603-0.072-0.996-0.456-1.363c-0.229-0.229-0.646-0.379-1.113-0.397c-0.596-0.023-1.121,0.142-1.68,0.517l-0.217,0.145v-0.524
		h-2.367v1.257c0.301,0.248,0.301,0.514,0.301,0.841v2.072c0,0.291,0.001,0.62-0.301,0.839v1.249h2.774v-1.247
		c-0.308-0.211-0.305-0.571-0.303-0.863v-2.611l0.082-0.036c0.401-0.187,0.76-0.08,1.013,0.297c0.114,0.262,0.101,0.546,0.097,0.64
		l-0.002,2.057C97.739,60.884,97.738,61.487,97.848,62.063"/>
	<path fill="#FFFFFF" d="M103.571,55.667h0.808v1.493h-0.808v2.499c0,0.708-0.01,0.966,0.808,1.058v1.485l-1.225,0.091
		c-0.539,0.044-1.201-0.052-1.617-0.455c-0.446-0.445-0.415-1.058-0.415-1.631V57.16h-0.302v-1.493h0.302v-1.276l2.449-0.694V55.667
		z"/>
	<path d="M102.926,62.442c-0.407,0-1.047-0.078-1.484-0.505c-0.461-0.461-0.46-1.079-0.459-1.623v-3.016h-0.299v-1.77h0.299v-1.242
		l2.727-0.773v2.016h0.808v1.77h-0.808v2.363c-0.001,0.7-0.001,0.841,0.686,0.92l0.122,0.014v1.734l-1.352,0.101
		C103.103,62.437,103.021,62.442,102.926,62.442 M100.959,57.021h0.302v3.293c-0.003,0.515-0.005,1.049,0.374,1.428
		c0.457,0.445,1.207,0.438,1.509,0.415l1.097-0.084v-1.234c-0.807-0.125-0.807-0.497-0.807-1.152v-2.665h0.807v-1.216h-0.807V53.88
		l-2.173,0.616v1.31h-0.302V57.021z"/>
	<path fill="#FFFFFF" d="M108.385,61.704c-0.52,0.434-1.027,0.633-1.702,0.633c-1.14,0-1.855-0.717-1.855-1.868
		c0-1.306,0.788-1.69,1.888-2.053l1.576-0.51v-0.228c0-0.321-0.084-0.642-0.426-0.642c-0.393,0-0.476,0.32-0.476,0.642v0.27h-2.293
		v-1.607c0.841-0.601,1.897-0.81,2.915-0.81c0.653,0,1.493,0.104,2.044,0.52c0.684,0.538,0.694,1.224,0.684,1.981v1.824
		c0,0.343-0.03,0.646,0.302,0.882v1.463h-2.656V61.704z M108.291,59.421c-0.436,0.177-1.017,0.279-1.017,0.738
		c0,0.207,0.134,0.445,0.354,0.404c0.207,0,0.435-0.073,0.663-0.239V59.421z"/>
	<path d="M106.683,62.474c-1.211,0-1.993-0.785-1.993-2.005c0-1.413,0.897-1.825,1.983-2.186l0.612-0.197h-2.328v-1.814l0.059-0.043
		c0.773-0.554,1.781-0.833,2.996-0.833c0.64,0,1.527,0.094,2.126,0.546c0.759,0.6,0.749,1.393,0.739,2.092v1.904
		c-0.002,0.297-0.004,0.511,0.242,0.688l0.058,0.044v1.669h-2.93v-0.354C107.77,62.324,107.288,62.474,106.683,62.474
		 M107.865,56.898c0.211,0,0.564,0.102,0.564,0.78v0.33l-1.674,0.536c-1.049,0.349-1.791,0.689-1.791,1.924
		c0,1.066,0.658,1.729,1.718,1.729c0.63,0,1.112-0.181,1.614-0.599l0.227-0.192v0.656h2.38v-1.258
		c-0.308-0.252-0.304-0.567-0.303-0.87v-1.903c0.011-0.822-0.026-1.396-0.632-1.875c-0.562-0.423-1.469-0.488-1.957-0.488
		c-1.125,0-2.06,0.251-2.777,0.743v1.399h2.017v-0.133C107.251,57.033,107.585,56.898,107.865,56.898 M107.865,57.174
		c-0.167,0-0.338,0.06-0.338,0.505v0.331l0.626-0.202v-0.129C108.153,57.174,107.945,57.174,107.865,57.174 M107.57,60.705
		c-0.077,0-0.163-0.029-0.236-0.09c-0.121-0.1-0.197-0.275-0.197-0.456c0-0.473,0.459-0.633,0.861-0.776
		c0.08-0.028,0.164-0.058,0.241-0.089l0.19-0.077v1.181l-0.059,0.038c-0.238,0.173-0.495,0.265-0.743,0.265
		C107.61,60.704,107.59,60.705,107.57,60.705 M108.153,59.621c-0.021,0.007-0.043,0.015-0.063,0.021
		c-0.421,0.149-0.677,0.258-0.677,0.517c0,0.096,0.04,0.197,0.097,0.243c0.028,0.022,0.055,0.032,0.092,0.025
		c0.195-0.003,0.378-0.063,0.552-0.177V59.621z"/>
	<path fill="#FFFFFF" d="M114.24,59.877c0,0.322-0.032,0.687,0.3,0.861v1.464h-3.05v-1.463c0.322-0.198,0.3-0.488,0.3-0.819v-4.284
		c0-0.331,0.033-0.663-0.3-0.861v-1.463h2.75V59.877z"/>
	<path d="M114.678,62.339h-3.327v-1.677l0.068-0.041c0.227-0.139,0.236-0.316,0.233-0.644l-0.001-0.058l0.001-4.365
		c0.004-0.323-0.007-0.527-0.232-0.661l-0.069-0.04v-1.679h3.026l-0.001,6.78c-0.003,0.336,0.012,0.548,0.228,0.661l0.074,0.04
		V62.339z M111.628,62.063h2.772v-1.247c-0.304-0.211-0.303-0.571-0.3-0.863v-6.505h-2.473v1.253
		c0.305,0.222,0.304,0.56,0.302,0.856v4.418c0,0.301,0.002,0.612-0.302,0.836V62.063z"/>
	<path fill="#FFFFFF" d="M117.425,59.92c0,0.372-0.041,0.891,0.487,0.891c0.262,0,0.468-0.217,0.468-0.496
		c0-0.592-0.747-0.686-1.182-0.788c-1.174-0.271-2.19-0.479-2.19-1.909c0-0.685,0.164-1.233,0.757-1.641
		c0.521-0.341,1.276-0.445,1.89-0.445c1.036,0,2.104,0.209,2.943,0.853v1.555h-2.271v-0.239c0-0.3-0.093-0.644-0.485-0.644
		c-0.26,0-0.478,0.197-0.478,0.446c0,0.468,0.621,0.551,0.975,0.625c1.275,0.268,2.438,0.476,2.438,2.072
		c0,1.7-1.318,2.136-2.791,2.136c-0.921,0-2.167-0.216-2.861-0.88v-1.69h2.301V59.92z"/>
	<path d="M117.985,62.475c-0.469,0-2.064-0.066-2.957-0.92l-0.043-0.041v-1.887h2.036c-1.117-0.26-2.152-0.531-2.152-2.01
		c0-0.556,0.095-1.257,0.817-1.753c0.622-0.408,1.5-0.469,1.968-0.469c1.249,0,2.267,0.296,3.029,0.878l0.055,0.04v1.763h-1.967
		c1.139,0.252,2.143,0.592,2.143,2.123C120.914,61.708,119.93,62.475,117.985,62.475 M115.261,61.396
		c0.66,0.591,1.834,0.803,2.725,0.803c1.785,0,2.651-0.654,2.651-1.999c0-1.449-0.988-1.657-2.24-1.92l-0.172-0.035
		c-0.374-0.074-0.999-0.199-0.999-0.742c0-0.321,0.275-0.582,0.616-0.582c0.396,0,0.622,0.285,0.622,0.779v0.103h1.998v-1.351
		c-0.709-0.52-1.652-0.782-2.808-0.782c-0.439,0-1.255,0.056-1.813,0.426c-0.486,0.332-0.694,0.787-0.694,1.522
		c0,1.294,0.889,1.5,2.017,1.759l0.21,0.048c0.456,0.1,1.144,0.25,1.144,0.891c0,0.355-0.266,0.634-0.603,0.634
		c-0.183,0-0.33-0.054-0.435-0.16c-0.197-0.196-0.195-0.527-0.193-0.793v-0.094h-2.026V61.396z M117.562,59.751v0.245
		c-0.003,0.214-0.003,0.483,0.114,0.6c0.052,0.053,0.131,0.078,0.239,0.078c0.182,0,0.324-0.158,0.324-0.359
		C118.239,59.993,117.95,59.854,117.562,59.751 M117.842,57.193c-0.188,0-0.341,0.141-0.341,0.309c0,0.271,0.317,0.374,0.688,0.451
		v-0.254C118.189,57.193,117.926,57.193,117.842,57.193"/>
</g>
</svg>
