<?xml version="1.0" encoding="utf-8"?>
<!DOCTYPE svg PUBLIC "-//W3C//DTD SVG 1.1//EN" "http://www.w3.org/Graphics/SVG/1.1/DTD/svg11.dtd">
<svg version="1.1" xmlns="http://www.w3.org/2000/svg" xmlns:xlink="http://www.w3.org/1999/xlink" x="0px" y="0px" width="293px"
	 height="125.454px" viewBox="0 0 293 125.454" enable-background="new 0 0 293 125.454" xml:space="preserve">
<g id="Layer_1">
	<g>
		<path fill-rule="evenodd" clip-rule="evenodd" fill="#028552" d="M292.597,87.605c-0.489-4.184-1.591-9.109-3.819-12.941
			c1.796-1.427,2.833-3.55,2.833-5.767V50.644c0-1.715-0.613-3.378-1.745-4.715c-1.393-1.647-2.903-3.198-4.521-4.639
			c-4.167-3.886-9.468-6.519-15.207-7.539c-3.277-0.549-6.639-0.511-9.901,0.113c-3.62,0.676-6.65,2.081-9.518,4.311V17.081
			c0-4.176-3.579-7.562-8.005-7.562h-17.896c-4.423,0-8.001,3.386-8.001,7.562v14.42c0,2.311,1.114,4.495,3.033,5.931
			c0.036,0.424,0.068,0.842,0.081,1.265c-2.38-1.709-5.421-3.01-8.325-3.79c-2.471-0.667-5.037-0.991-7.6-0.954
			c-2.258-0.088-4.519,0.09-6.729,0.522c-2.497,0.483-4.933,1.286-7.213,2.376c-2.368,1.132-4.47,2.705-6.176,4.625
			c-0.293,0.324-0.578,0.662-0.853,0.996c-3.178-3.931-7.325-6.228-12.28-7.566c-2.481-0.667-5.04-0.991-7.611-0.954
			c-2.251-0.088-4.51,0.09-6.723,0.522c-2.502,0.483-4.925,1.286-7.212,2.376c-0.829,0.394-1.626,0.846-2.386,1.352
			c-1.131-1.405-2.743-2.389-4.556-2.798v-12.22c0-5.589-6.175-9.243-11.496-6.81l-10.364,4.751
			c-2.142-2.832-8.439-9.556-12.541-10.533c-0.646-0.765-1.44-1.413-2.346-1.892c-2.482-1.33-5.058-2.471-7.716-3.442
			c-2.771-1.004-5.605-1.855-8.486-2.531C81.795,0.826,75.075,0,67.585,0C57.246,0.014,51.726,0.264,41.983,2.729
			c-7.87,1.981-14.318,4.419-20.702,8.678c-9.42,6.283-14.574,14.287-17.424,24.393c-2.705,8.751-3.998,17.835-3.845,26.959
			c-0.153,9.13,1.145,18.226,3.845,26.975c0.385,1.503,0.875,2.973,1.475,4.396c1.431,3.649,2.859,6.64,5.245,9.835
			c4.922,6.512,11.614,11.646,19.367,14.866c3.879,1.674,7.911,2.998,12.041,3.965c1.616,0.403,3.191,0.754,4.736,1.075
			c7.137,1.333,22.454,3.22,42.596-1.075c9.42-2.017,17.817-5.753,25.016-11.961c2.236,5.708,4.865,7.734,5.537,8.33
			c6.436,5.684,16.62,6.102,24.206,2.428c1.031-0.502,1.927-1.188,2.647-2.052c4.371,2.917,9.53,4.208,14.825,4.321
			c8.472,0.183,16.192-2.091,21.447-8.471c3.01,3.719,7.049,6.021,11.736,7.39c2.483,0.725,5.075,1.096,7.671,1.081
			c0.616,0.039,1.236,0.042,1.848,0.039c2.863,0.075,7.241-0.959,7.241-0.959c1.625-0.413,3.211-0.973,4.745-1.638
			c0.903-0.405,1.772-0.864,2.597-1.395c1.513,1.756,3.797,2.78,6.2,2.78h20.343c2.499,0,4.855-1.104,6.368-2.988
			c0.992,0.583,2.005,1.122,3.04,1.633c1.304,0.634,2.667,1.185,4.059,1.612c4.923,1.348,14.763,1.427,17.907-0.013
			c0.889-0.34,1.743-0.751,2.567-1.212c3.628-2.052,6.718-4.677,8.871-8.12c2.597-4.166,4.14-8.848,4.484-13.675
			C293.134,95.825,293.105,91.696,292.597,87.605z M80.574,77.561c-0.757,3.926-2.471,8.078-6.223,10.31l-0.328,0.178l-4.143,1.065
			c-1.394,0.306-2.808,0.518-4.233,0.62c-1.282-0.089-2.56-0.277-3.82-0.539c-1.521-0.315-3.028-0.696-4.522-1.113
			c-1.648-0.939-3.028-2.246-4.029-3.799c-0.583-0.903-1.063-1.855-1.446-2.851c-0.474-1.249-0.845-2.531-1.094-3.837
			c-0.96-4.902-1.465-9.867-1.502-14.845c0.023-4.958,0.516-9.913,1.491-14.792c0.401-2.175,1.162-4.268,2.239-6.218
			c0.792-1.396,2.76-3.647,4.315-4.268l4.144-1.062c1.392-0.31,2.81-0.511,4.233-0.629c1.287,0.108,2.558,0.282,3.813,0.545
			c1.524,0.31,3.034,0.694,4.521,1.122c1.664,0.94,3.04,2.241,4.036,3.79c0.582,0.907,1.07,1.86,1.451,2.85
			c0.477,1.25,0.843,2.531,1.092,3.842c0.96,4.893,1.463,9.862,1.5,14.844C82.043,67.727,81.546,72.686,80.574,77.561z"/>
		<g>
			<path fill="none" d="M79.475,44.086c-0.381-0.99-0.869-1.943-1.451-2.85c-0.996-1.549-2.372-2.85-4.036-3.79
				c-1.487-0.427-2.997-0.812-4.521-1.122c-1.256-0.264-2.527-0.437-3.813-0.545c-1.423,0.118-2.841,0.32-4.233,0.629l-4.144,1.062
				c-1.555,0.62-3.522,2.872-4.315,4.268c-1.077,1.95-1.837,4.043-2.239,6.218c-0.975,4.879-1.468,9.834-1.491,14.792
				c0.037,4.978,0.542,9.942,1.502,14.845c0.25,1.306,0.62,2.588,1.094,3.837c0.383,0.996,0.863,1.948,1.446,2.851
				c1.001,1.554,2.381,2.86,4.029,3.799c1.494,0.417,3.001,0.798,4.522,1.113c1.261,0.262,2.539,0.45,3.82,0.539
				c1.426-0.102,2.839-0.314,4.233-0.62l4.143-1.065l0.328-0.178c3.752-2.232,5.466-6.383,6.223-10.31
				c0.972-4.875,1.469-9.834,1.493-14.789c-0.037-4.981-0.54-9.951-1.5-14.844C80.318,46.618,79.952,45.336,79.475,44.086z"/>
			<path fill="#FFFFFF" d="M288.614,88.024c-0.649-5.297-2.023-11.022-5.975-15.075l-0.277-0.273h1.245
				c2.211,0,4.004-1.694,4.004-3.78V50.644c0-0.855-0.308-1.687-0.873-2.354c-1.285-1.525-2.677-2.954-4.174-4.289
				c-3.682-3.286-8.173-5.761-13.173-6.536c-2.784-0.427-5.63-0.385-8.406,0.122c-2.492,0.447-4.845,1.433-6.873,2.878
				c-2.017,1.432-3.774,3.161-5.208,5.119c-0.048,0.062-0.091,0.127-0.138,0.193c-0.796,1.234-1.484,2.545-2.047,3.897V17.081
				c0-2.086-1.79-3.79-4.004-3.79h-17.896c-2.214,0-4,1.703-4,3.79v14.42c0,1.373,0.79,2.641,2.059,3.307
				c0.196,0.099,0.362,0.235,0.501,0.39c0.178,0.292,0.301,0.616,0.346,0.944c0.143,0.991,0.214,1.992,0.214,2.987
				c0,0.568,0,1.132,0.013,1.695v9.567c-1.005-2.471-2.201-4.514-3.958-6.459c-1.126-1.253-2.473-2.329-3.973-3.165
				c-1.652-0.924-3.675-1.723-5.517-2.225c-2.135-0.577-4.335-0.845-6.551-0.808c-1.968-0.089-3.936,0.065-5.862,0.437
				c-2.071,0.408-4.349,1.132-6.23,2.052c-1.875,0.919-3.551,2.174-4.917,3.695c-1.348,1.503-2.475,3.17-3.353,4.951
				c-0.015,0.032-0.033,0.065-0.047,0.107c-0.189,0.399-0.361,0.808-0.524,1.215c-1.002-2.394-2.172-4.361-3.881-6.26
				c-1.124-1.239-2.523-2.371-4.021-3.188c-1.723-0.939-3.56-1.681-5.475-2.203c-2.128-0.577-4.331-0.845-6.542-0.808
				c-1.968-0.089-3.936,0.065-5.865,0.437c-2.078,0.408-4.35,1.132-6.228,2.052c-2.768,1.352-4.814,3.272-6.574,5.766v-3.221
				c0-2.089-1.787-3.775-3.993-3.775h-2.174V23.185c0-2.8-3.092-4.621-5.748-3.405l-13.554,6.203
				c-1.225-1.977-2.644-3.822-4.247-5.541c-1.93-2.075-4.092-3.93-6.446-5.564c-0.818-0.575-1.846-0.818-2.85-0.701
				c-0.306-0.929-0.97-1.699-1.859-2.178c-2.319-1.235-4.72-2.301-7.204-3.203c-2.63-0.964-5.326-1.775-8.071-2.41
				c-3.242-0.882-6.549-1.53-9.896-1.943C74.812,3.992,71.195,3.775,67.59,3.79l-1.94,0.014L63.713,3.79
				c-3.262-0.014-6.516,0.165-9.755,0.526c-3.703,0.404-7.355,1.095-10.941,2.071c-3.21,0.751-6.357,1.719-9.416,2.916
				c-3.535,1.367-6.899,3.114-10.021,5.2c-3.155,2.103-5.973,4.625-8.372,7.5c-2.658,3.188-4.725,6.785-6.101,10.641l-0.587,1.676
				c-0.198,0.409-0.361,0.818-0.49,1.25l-0.309,1.207c-2.61,8.435-3.865,17.197-3.705,25.983c-0.16,8.792,1.095,17.549,3.705,25.989
				l0.309,1.201c0.044,0.185,0.11,0.366,0.182,0.538L8.521,91.2l0.592,1.685c1.126,3.146,2.721,6.139,4.724,8.875
				c4.41,6.035,10.722,10.596,17.744,13.621c3.685,1.583,7.51,2.85,11.436,3.756c3.245,0.879,6.549,1.531,9.888,1.944
				c3.588,0.446,7.194,0.662,10.809,0.654l1.937-0.015l1.94,0.015c3.258,0.003,6.518-0.175,9.753-0.531
				c3.701-0.409,7.361-1.1,10.942-2.066c2.691-0.63,5.345-1.419,7.941-2.361c7.848-2.832,15.065-7.289,20.193-13.653
				c0.02,0.133,0.037,0.269,0.058,0.39c0.446,3.193,1.476,6.284,3.055,9.129c0.022,0.042,0.043,0.084,0.072,0.131
				c0.813,1.343,1.828,2.565,3.01,3.63c1.449,1.329,3.207,2.314,5.138,2.892c2.25,0.713,4.625,1.005,6.997,0.875
				c2.616-0.152,5.176-0.819,7.507-1.94c1.339-0.649,2.178-1.954,2.178-3.376v-2.912c0.431,0.605,0.891,1.183,1.384,1.746
				c1.076,1.23,2.349,2.277,3.781,3.128c1.704,1,3.542,1.787,5.464,2.347c2.131,0.625,4.352,0.939,6.588,0.916
				c4.137,0.212,8.273-0.544,12.034-2.208c1.816-0.812,3.451-1.939,4.813-3.321c1.356-1.366,2.504-2.891,3.428-4.54
				c0.306-0.545,0.819-1.714,1.068-2.31c0.945,2.268,2.075,4.163,3.675,5.986c1.08,1.23,2.358,2.277,3.782,3.128
				c1.706,1,3.546,1.787,5.467,2.347c2.13,0.625,4.347,0.939,6.587,0.916c4.14,0.212,8.28-0.544,12.033-2.208
				c1.816-0.812,3.452-1.939,4.821-3.321c0.594-0.604,1.156-1.238,1.67-1.906v2.469c0,2.091,1.792,3.791,4.007,3.791h20.343
				c2.204,0,3.999-1.699,3.999-3.791v-1.641c0.41,0.304,0.825,0.605,1.24,0.916c1.882,1.374,3.899,2.573,6.022,3.596
				c2.187,1.042,4.512,1.78,6.917,2.17c1.269,0.202,2.551,0.314,3.84,0.329c1.327,0.022,2.664-0.023,3.988-0.155
				c2.041-0.185,4.103-0.874,5.896-1.86c1.712-0.963,3.293-2.115,4.711-3.442c1.013-0.935,2.033-2.22,2.766-3.376
				c2.373-3.733,3.499-7.8,3.926-12.06C289.119,95.749,289.097,91.865,288.614,88.024z M84.507,78.266
				c-1.008,5.112-3.236,9.889-8.039,12.801c-0.281,0.175-0.57,0.335-0.864,0.494c-1.571,0.45-3.151,0.859-4.75,1.207
				c-1.708,0.389-3.45,0.647-5.208,0.754c-1.575-0.097-3.137-0.312-4.68-0.635c-1.775-0.369-3.534-0.809-5.264-1.327
				c-0.3-0.159-0.592-0.319-0.881-0.499c-2.027-1.22-3.725-2.873-4.971-4.818c-0.714-1.113-1.314-2.297-1.789-3.522
				c-0.554-1.447-0.973-2.926-1.274-4.447c-1.004-5.117-1.525-10.312-1.558-15.516c0.023-5.198,0.54-10.387,1.558-15.502
				c0.526-2.672,1.316-4.997,2.649-7.317c1.29-2.221,3.137-4.113,5.391-5.49c0.286-0.173,0.574-0.333,0.867-0.493
				c1.566-0.455,3.148-0.859,4.743-1.216c1.711-0.384,3.459-0.634,5.215-0.751c1.578,0.103,3.142,0.32,4.682,0.648
				c1.78,0.366,3.531,0.812,5.265,1.319c0.298,0.16,0.589,0.319,0.875,0.493c2.026,1.227,3.728,2.875,4.971,4.833
				c0.718,1.113,1.319,2.292,1.787,3.518c0.553,1.447,0.98,2.931,1.273,4.443c1.002,5.118,1.528,10.318,1.565,15.521
				C86.047,67.962,85.523,73.151,84.507,78.266z"/>
			<path fill="#028552" d="M83.234,42.8c-0.468-1.225-1.068-2.404-1.787-3.518c-1.244-1.958-2.945-3.606-4.971-4.833
				c-0.286-0.173-0.578-0.333-0.875-0.493c-1.733-0.507-3.484-0.953-5.265-1.319c-1.54-0.329-3.104-0.545-4.682-0.648
				c-1.755,0.117-3.503,0.367-5.215,0.751c-1.595,0.357-3.177,0.761-4.743,1.216c-0.293,0.16-0.581,0.319-0.867,0.493
				c-2.254,1.377-4.101,3.269-5.391,5.49c-1.333,2.32-2.123,4.645-2.649,7.317c-1.018,5.115-1.535,10.304-1.558,15.502
				c0.033,5.204,0.554,10.399,1.558,15.516c0.301,1.521,0.72,3,1.274,4.447c0.475,1.225,1.075,2.409,1.789,3.522
				c1.246,1.945,2.944,3.598,4.971,4.818c0.289,0.18,0.581,0.34,0.881,0.499c1.73,0.518,3.488,0.958,5.264,1.327
				c1.543,0.322,3.105,0.538,4.68,0.635c1.758-0.107,3.5-0.366,5.208-0.754c1.598-0.348,3.179-0.757,4.75-1.207
				c0.293-0.159,0.583-0.319,0.864-0.494c4.803-2.912,7.03-7.688,8.039-12.801c1.016-5.115,1.54-10.304,1.565-15.502
				c-0.037-5.203-0.563-10.402-1.565-15.521C84.214,45.731,83.787,44.247,83.234,42.8z M80.574,77.561
				c-0.757,3.926-2.471,8.078-6.223,10.31l-0.328,0.178l-4.143,1.065c-1.394,0.306-2.808,0.518-4.233,0.62
				c-1.282-0.089-2.56-0.277-3.82-0.539c-1.521-0.315-3.028-0.696-4.522-1.113c-1.648-0.939-3.028-2.246-4.029-3.799
				c-0.583-0.903-1.063-1.855-1.446-2.851c-0.474-1.249-0.845-2.531-1.094-3.837c-0.96-4.902-1.465-9.867-1.502-14.845
				c0.023-4.958,0.516-9.913,1.491-14.792c0.401-2.175,1.162-4.268,2.239-6.218c0.792-1.396,2.76-3.647,4.315-4.268l4.144-1.062
				c1.392-0.31,2.81-0.511,4.233-0.629c1.287,0.108,2.558,0.282,3.813,0.545c1.524,0.31,3.034,0.694,4.521,1.122
				c1.664,0.94,3.04,2.241,4.036,3.79c0.582,0.907,1.07,1.86,1.451,2.85c0.477,1.25,0.843,2.531,1.092,3.842
				c0.96,4.893,1.463,9.862,1.5,14.844C82.043,67.727,81.546,72.686,80.574,77.561z"/>
		</g>
		<g id="Logo_9_">
			<path fill-rule="evenodd" clip-rule="evenodd" fill="#010101" d="M105.908,17.931c0.716,0.75,1.312,1.586,1.791,2.445
				c1.441,2.611,2.15,5.467,2.372,8.407c0.197,2.456,0.168,4.921-0.08,7.363c-0.535,5.246-2.292,10.43-4.814,15.103
				c-0.725,1.348-1.545,2.644-2.45,3.884c-0.868,1.193-1.84,2.314-2.899,3.358c-2.105,2.056-5.785,1.234-6.693-1.494l-1.941-5.777
				c-0.372-1.098-0.188-2.305,0.498-3.263c0.962-1.339,2.084-3.245,2.679-4.739c-0.159-0.131-0.32-0.277-0.468-0.427
				c-0.728-0.709-1.549-1.678-2.041-2.554c-0.895-1.579-1.524-3.278-1.864-5.04c-0.289-1.428-0.439-2.869-0.444-4.325
				c-0.036-2.981,0.344-5.701,1.456-8.622c0.575-1.556,1.441-2.997,2.563-4.261c2.002-2.262,5.02-3.456,8.026-2.689
				c-4.187-2.246-8.994-4.002-14.346-5.265c-5.486-1.498-11.98-2.471-19.656-2.471c-0.65,0-1.301,0.009-1.946,0.014
				c-0.644-0.005-1.292-0.014-1.95-0.014c-7.675,0-14.167,0.973-19.649,2.471c-15.771,3.728-26.748,11.67-31.147,23.813
				c-0.218,0.597-0.426,1.194-0.625,1.785c-0.121,0.268-0.239,0.55-0.354,0.821c-0.116,0.432-0.223,0.865-0.334,1.292
				C9.042,45.98,7.888,54.184,8.018,62.759c-0.13,8.584,1.024,16.778,3.572,25.008c0.112,0.43,0.219,0.864,0.334,1.301
				c0.114,0.275,0.232,0.547,0.354,0.822c0.2,0.591,0.407,1.177,0.625,1.774c4.4,12.154,15.376,20.091,31.14,23.823
				c5.489,1.499,11.981,2.461,19.656,2.461c0.658,0,1.306,0,1.95-0.01c0.645,0.01,1.296,0.01,1.946,0.01
				c7.676,0,14.17-0.963,19.656-2.461c13.229-3.132,23.081-9.228,28.515-18.282c-0.219-2.854-0.303-5.719-0.244-8.574V62.275
				c-1.648-0.516-2.763-1.963-2.763-3.598v-15.91c0-1.629,1.114-3.081,2.763-3.592v-9.238c0-0.526,0.111-1.032,0.32-1.502
				C113.406,24.33,110.058,20.828,105.908,17.931L105.908,17.931z M90.078,62.759c-0.028,5.434-0.572,10.857-1.638,16.202
				c-1.064,5.354-3.556,11.525-9.806,15.296c-0.483,0.285-0.969,0.553-1.455,0.803c-3.828,1.121-7.694,2.062-11.53,2.259
				c-3.837-0.198-7.698-1.138-11.528-2.259c-0.487-0.25-0.969-0.518-1.453-0.803c-6.255-3.771-8.748-9.943-9.814-15.296
				c-1.057-5.345-1.604-10.768-1.63-16.202c0.025-5.423,0.573-10.852,1.63-16.202c1.066-5.353,3.559-11.514,9.814-15.29
				c0.484-0.292,0.965-0.56,1.453-0.808c3.831-1.127,7.691-2.061,11.528-2.259c3.836,0.198,7.702,1.131,11.53,2.259
				c0.485,0.248,0.972,0.516,1.455,0.808c6.25,3.776,8.742,9.937,9.806,15.29C89.506,51.907,90.05,57.335,90.078,62.759
				L90.078,62.759z"/>
			<path fill-rule="evenodd" clip-rule="evenodd" fill="#010101" d="M96.95,55.861c3.278-3.185,6.011-8.055,7.855-14.027
				c1.181-3.875,1.633-8.378,1.275-12.784c-0.317-4.104-1.763-7.607-3.82-9.208c-0.852-0.699-1.784-1.038-2.719-0.981
				c-3.423,0.23-6.105,5.583-5.986,11.969c0.017,2.911,0.677,5.678,1.837,7.627c1.016,1.582,2.245,2.625,3.551,3.01
				c-0.219,1.417-0.614,2.719-1.139,3.813c-0.838,1.78-1.775,3.385-2.794,4.799L96.95,55.861L96.95,55.861z"/>
			<path fill-rule="evenodd" clip-rule="evenodd" fill="#010101" d="M165.621,69.23v19.32c0.02,1.995-0.071,4-0.264,5.946
				c-0.121,1.188-0.348,2.287-0.678,3.198c-0.364,0.924-0.835,1.525-1.354,1.719c-0.671,0.282-1.358,0.188-2.01-0.291
				c-0.649-0.544-1.177-1.729-1.452-3.255c-0.262-1.503-0.418-3.109-0.45-4.743c-0.022-0.859-0.036-1.709-0.036-2.573V69.23
				c-0.031-2.086,0.081-4.184,0.317-6.189c0.149-1.31,0.443-2.495,0.864-3.396c0.401-0.797,0.887-1.3,1.4-1.456
				c0.61-0.225,1.229-0.098,1.817,0.376c0.589,0.517,1.068,1.592,1.33,2.978c0.251,1.351,0.401,2.807,0.454,4.292
				C165.607,66.966,165.621,68.094,165.621,69.23L165.621,69.23z M181.653,67.295c0.064-4.25-0.38-8.494-1.314-12.51
				c-1.252-5.02-3.897-8.951-7.218-10.769c-3.234-1.742-6.648-2.587-10.073-2.498c-3.461-0.177-6.909,0.522-10.21,2.062
				c-2.575,1.221-4.841,3.615-6.476,6.87c-1.454,3.198-2.351,6.889-2.621,10.749c-0.165,2.025-0.253,4.063-0.253,6.096v23.336
				c-0.083,4.253,0.367,8.495,1.325,12.494c1.218,4.834,3.725,8.652,6.906,10.484c3.201,1.831,6.593,2.745,10.01,2.69
				c3.458,0.212,6.925-0.413,10.252-1.855c2.486-1.075,4.713-3.235,6.399-6.195c1.526-2.971,2.512-6.493,2.877-10.212
				c0.282-2.454,0.408-4.926,0.395-7.406V67.295L181.653,67.295z M206.139,69.23v19.32c0.028,1.995-0.063,4-0.259,5.946
				c-0.112,1.188-0.351,2.287-0.68,3.198c-0.359,0.924-0.838,1.525-1.353,1.719c-0.673,0.282-1.356,0.188-2.015-0.291
				c-0.649-0.544-1.172-1.729-1.445-3.255c-0.269-1.503-0.421-3.109-0.445-4.743c-0.027-0.859-0.045-1.709-0.045-2.573V69.23
				c-0.024-2.086,0.083-4.184,0.317-6.189c0.15-1.31,0.447-2.495,0.863-3.396c0.404-0.797,0.887-1.3,1.405-1.456
				c0.608-0.225,1.24-0.098,1.822,0.376c0.584,0.517,1.062,1.592,1.324,2.978c0.252,1.351,0.405,2.807,0.448,4.292
				C206.123,66.966,206.143,68.094,206.139,69.23L206.139,69.23z M222.511,67.295c0.064-4.25-0.382-8.494-1.311-12.51
				c-1.254-5.02-3.904-8.951-7.218-10.769c-3.23-1.742-6.645-2.587-10.081-2.498c-3.454-0.177-6.906,0.522-10.208,2.062
				c-2.578,1.221-4.835,3.615-6.475,6.87c-1.457,3.198-2.358,6.889-2.62,10.749c-0.171,2.025-0.259,4.063-0.259,6.096v23.336
				c-0.075,4.253,0.369,8.495,1.329,12.494c1.215,4.834,3.724,8.652,6.909,10.484c3.198,1.831,6.595,2.745,10.012,2.69
				c3.461,0.212,6.92-0.413,10.25-1.855c2.486-1.075,4.711-3.235,6.399-6.195c1.528-2.971,2.515-6.493,2.874-10.212
				c0.278-2.454,0.411-4.926,0.398-7.406V67.295L222.511,67.295z M134.265,23.185l-14.747,6.752v12.83h-2.752v15.91h2.752v29.981
				c-0.083,4.818,0.227,9.637,0.927,14.345c0.419,2.879,1.324,5.569,2.632,7.887c1.527,2.466,3.599,4.159,5.909,4.803
				c3.8,1.194,7.763,0.913,11.454-0.84v-14.686c-0.666,0.018-1.333-0.024-1.991-0.136c-0.812-0.157-1.587-0.62-2.217-1.348
				c-0.599-0.78-1.042-1.756-1.287-2.842c-0.356-1.619-0.558-3.295-0.596-4.991c-0.047-1.272-0.075-2.546-0.084-3.823V58.678h6.175
				v-15.91h-6.175V23.185L134.265,23.185z M227.952,40.794v48.643c0.034,2.084-0.057,4.172-0.262,6.241
				c-0.094,0.874-0.28,1.725-0.557,2.521c-0.373,1.133-0.916,1.945-1.806,2.165l-0.292,0.071v14.679h20.343v-14.679
				c-0.631-0.188-0.699-0.566-1.217-1.104c-0.482-0.541-0.832-1.268-1.007-2.088c-0.223-1.011-0.348-2.054-0.384-3.101
				c-0.042-1.17-0.06-2.339-0.057-3.512V17.081h-17.896v14.42c0.683,0.338,1.308,0.865,1.842,1.532
				c0.527,0.723,0.879,1.624,1.029,2.62c0.18,1.151,0.262,2.331,0.249,3.513L227.952,40.794L227.952,40.794z M248.758,108.02
				c9.157,7.758,14.674,9.215,22.252,8.551c2.873-0.233,5.679-1.971,8.176-4.24c2.981-2.854,4.998-7.648,5.514-13.093
				c0.413-3.568,0.395-7.231-0.057-10.772c-0.924-7.293-2.951-13.229-9.377-15.916c-5.402-2.258-12.92-3.573-11.918-10.274
				c0.466-1.969,1.32-3.442,2.656-3.855c1.108-0.38,1.222-0.249,2.282,0.389c1.047,0.676,1.225,2.034,1.596,3.725
				c0.358,1.629,0.314,4.509,0.283,6.246v0.117h13.441V50.644c-7.417-8.703-14.6-10.571-21.861-9.351
				c-3.526,0.605-6.852,2.845-9.557,6.448c-3.652,5.565-4.842,14.464-3.546,22.226c0.385,2.278,0.852,4.58,1.625,6.514
				c1.885,4.697,5.795,7.304,12.149,9.12c1.427,0.436,2.882,0.893,4.002,1.503c0.961,0.511,1.541,1.071,2.352,2.039
				c1.277,1.682,1.865,4.042,1.536,6.616c-0.452,4.386-3.396,4.033-3.897,3.742c-0.881-0.548-1.584-0.764-1.96-2.136
				c-0.361-1.395-0.571-5.761-0.625-7.263c-0.027-0.706-0.047-1.41-0.042-2.114h-15.025V108.02L248.758,108.02z"/>
			<path fill-rule="evenodd" clip-rule="evenodd" fill="#028552" d="M246.719,78.303v6.434c0.62-0.353,1.324-0.526,2.04-0.526h2.314
				C249.172,82.562,247.687,80.553,246.719,78.303L246.719,78.303z"/>
			<path fill-rule="evenodd" clip-rule="evenodd" fill="#028552" d="M139.683,96.369c-0.167-1.915-0.237-3.847-0.201-5.776V67.295
				c0-1.606,0.052-3.23,0.155-4.833h-1.372v24.557c0.006,1.227,0.035,2.46,0.09,3.682c0,0.019,0,0.047,0,0.079
				c0.032,1.452,0.206,2.898,0.512,4.321c0.094,0.445,0.273,0.864,0.522,1.24C139.482,96.351,139.583,96.36,139.683,96.369
				L139.683,96.369z"/>
		</g>
	</g>
</g>
<g id="Layer_2">
</g>
</svg>
