<?xml version="1.0" encoding="utf-8"?>
<!DOCTYPE svg PUBLIC "-//W3C//DTD SVG 1.1//EN" "http://www.w3.org/Graphics/SVG/1.1/DTD/svg11.dtd">
<svg version="1.1" id="Layer_1" xmlns="http://www.w3.org/2000/svg" xmlns:xlink="http://www.w3.org/1999/xlink" x="0px" y="0px"
	 width="48px" height="35.417px" viewBox="0 0 48 35.417" enable-background="new 0 0 48 35.417" xml:space="preserve">
<g>
	<path d="M48,22.447c0,2.037-1.65,3.686-3.686,3.686H3.687C1.65,26.133,0,24.484,0,22.447v-9.55c0-2.035,1.65-3.685,3.687-3.685
		h40.627c2.036,0,3.686,1.65,3.686,3.685V22.447z"/>
	<path fill="none" stroke="#9A8979" d="M47.162,22.447c0,1.667-1.35,3.016-3.015,3.016H3.854c-1.666,0-3.016-1.349-3.016-3.016
		v-9.55c0-1.665,1.35-3.016,3.016-3.016h40.293c1.665,0,3.015,1.351,3.015,3.016V22.447z"/>
	<path fill="#9A8979" d="M11.737,14.382c0.546,0.519,0.993,1.107,1.052,1.767h-1.186c-0.117-0.5-0.348-0.898-0.695-1.19
		c-0.346-0.293-0.834-0.438-1.46-0.438c-0.764,0-1.382,0.269-1.852,0.806c-0.47,0.539-0.705,1.364-0.705,2.475
		c0,0.911,0.213,1.648,0.637,2.215s1.059,0.849,1.9,0.849c0.773,0,1.364-0.297,1.77-0.893c0.215-0.313,0.307-0.512,0.48-1.016h1.195
		c-0.092,0.818-0.545,1.345-1.061,1.898c-0.622,0.666-1.462,0.937-2.515,0.937c-0.907,0-1.668-0.273-2.285-0.82
		c-0.812-0.724-1.218-1.84-1.218-3.35c0-1.147,0.305-2.088,0.915-2.822c0.659-0.797,1.568-1.195,2.727-1.195
		C10.424,13.606,11.192,13.865,11.737,14.382z"/>
	<path fill="#9A8979" d="M33.127,14.382c0.546,0.519,0.99,1.107,1.051,1.767h-1.187c-0.114-0.5-0.348-0.898-0.693-1.19
		c-0.348-0.293-0.834-0.438-1.46-0.438c-0.765,0-1.382,0.269-1.853,0.806c-0.468,0.539-0.704,1.364-0.704,2.475
		c0,0.911,0.212,1.648,0.637,2.215c0.424,0.566,1.056,0.849,1.898,0.849c0.775,0,1.365-0.297,1.771-0.893
		c0.214-0.313,0.306-0.512,0.48-1.016h1.194c-0.092,0.818-0.544,1.345-1.061,1.898c-0.621,0.666-1.461,0.937-2.513,0.937
		c-0.908,0-1.67-0.273-2.287-0.82c-0.811-0.724-1.217-1.84-1.217-3.35c0-1.147,0.304-2.088,0.913-2.822
		c0.66-0.797,1.569-1.195,2.728-1.195C31.814,13.606,32.581,13.865,33.127,14.382z"/>
	<path fill="#9A8979" d="M13.331,13.817h0.969v7.769h-0.969V13.817z"/>
	<path fill="#9A8979" d="M15.938,15.922v3.76c0,0.29,0.046,0.526,0.135,0.71c0.168,0.337,0.48,0.507,0.938,0.507
		c0.657,0,1.103-0.296,1.341-0.888c0.129-0.318,0.193-0.752,0.193-1.306v-2.782h0.969v5.664h-0.915l0.011-0.835
		c-0.124,0.214-0.276,0.397-0.459,0.545c-0.362,0.295-0.802,0.444-1.32,0.444c-0.805,0-1.354-0.27-1.646-0.81
		c-0.158-0.288-0.237-0.674-0.237-1.158v-3.851H15.938z"/>
	<path fill="#9A8979" d="M20.12,13.791h0.983v2.819c0.222-0.273,0.487-0.479,0.795-0.621c0.307-0.144,0.643-0.215,1.002-0.215
		c0.752,0,1.362,0.242,1.829,0.727c0.468,0.485,0.702,1.201,0.702,2.144c0,0.896-0.232,1.641-0.693,2.233
		c-0.462,0.593-1.102,0.889-1.922,0.889c-0.459,0-0.846-0.104-1.161-0.313c-0.188-0.123-0.389-0.32-0.603-0.592v0.725H20.12V13.791z
		 M23.985,20.312c0.272-0.41,0.407-0.949,0.407-1.618c0-0.596-0.134-1.09-0.407-1.481c-0.273-0.391-0.674-0.587-1.204-0.587
		c-0.462,0-0.865,0.16-1.213,0.481c-0.348,0.322-0.521,0.851-0.521,1.588c0,0.532,0.071,0.963,0.214,1.294
		c0.267,0.625,0.765,0.938,1.494,0.938C23.302,20.925,23.712,20.72,23.985,20.312z"/>
	<path fill="#9A8979" d="M37.691,18.159c0.222-0.029,0.371-0.121,0.446-0.274c0.044-0.085,0.065-0.208,0.065-0.367
		c0-0.325-0.118-0.562-0.351-0.709c-0.235-0.146-0.571-0.221-1.007-0.221c-0.505,0-0.864,0.134-1.074,0.404
		c-0.117,0.149-0.195,0.37-0.23,0.665h-0.902c0.017-0.701,0.247-1.187,0.689-1.461c0.442-0.274,0.954-0.411,1.54-0.411
		c0.675,0,1.225,0.127,1.649,0.38c0.418,0.254,0.796,0.649,0.796,1.186v3.263c0,0.099,0,0.773,0,1.094c-0.334,0-0.75,0-1.088,0
		c0-0.434,0-0.573,0-0.872c-0.198,0.253-0.48,0.474-0.85,0.66c-0.369,0.188-0.776,0.28-1.22,0.28c-0.534,0-0.971-0.16-1.31-0.479
		c-0.339-0.319-0.508-0.717-0.508-1.195c0-0.525,0.167-0.932,0.5-1.221c0.333-0.289,0.771-0.467,1.312-0.534L37.691,18.159z
		 M35.654,20.73c0.204,0.158,0.446,0.236,0.726,0.236c0.339,0,0.67-0.076,0.989-0.232c0.539-0.257,0.807-0.677,0.807-1.262v-0.766
		c-0.118,0.074-0.27,0.136-0.456,0.186c-0.186,0.048-0.368,0.084-0.547,0.106l-0.585,0.073c-0.351,0.046-0.614,0.118-0.792,0.217
		c-0.298,0.166-0.449,0.429-0.449,0.792C35.346,20.355,35.448,20.572,35.654,20.73z"/>
	<path fill="#9A8979" d="M39.807,15.922h0.92v0.979c0.075-0.191,0.26-0.423,0.554-0.697c0.294-0.272,0.632-0.409,1.017-0.409
		c0.017,0,0.048,0.002,0.091,0.004c0.042,0.005,0.117,0.013,0.22,0.022v1.004c-0.056-0.01-0.11-0.017-0.158-0.021
		c-0.048-0.004-0.101-0.005-0.158-0.005c-0.488,0-0.864,0.154-1.125,0.463c-0.261,0.308-0.393,0.664-0.393,1.064v3.259h-0.968
		V15.922z"/>
	<g>
		<path fill="#BBC4CA" d="M7.086,6.304L6.508,6.623L6.042,6.189L5.131,6.69l0.117,0.627L4.668,7.636L4.254,4.749L4.871,4.41
			L7.086,6.304z M5.71,5.876L4.815,5.044l0.227,1.2L5.71,5.876z"/>
		<path fill="#BBC4CA" d="M10.577,3.771c0.125,0.339,0.132,0.631,0.02,0.878c-0.113,0.245-0.336,0.43-0.67,0.553
			c-0.33,0.121-0.618,0.122-0.868,0.004C8.809,5.088,8.624,4.863,8.501,4.535L7.925,2.969L8.5,2.758l0.608,1.653
			c0.062,0.165,0.146,0.274,0.258,0.331C9.475,4.798,9.606,4.8,9.758,4.744C9.915,4.685,10.016,4.6,10.061,4.49
			c0.047-0.111,0.038-0.251-0.024-0.42L9.428,2.417L10,2.206L10.577,3.771z"/>
		<path fill="#BBC4CA" d="M14.125,1.562L13.57,1.698l0.534,2.193l-0.573,0.14l-0.535-2.194L12.44,1.973l-0.111-0.458l1.685-0.41
			L14.125,1.562z"/>
		<path fill="#BBC4CA" d="M18.969,3.036l-0.585,0.083l-0.159-1.139L17.19,2.124l0.159,1.14l-0.585,0.081l-0.376-2.702l0.585-0.082
			l0.153,1.095l1.034-0.144l-0.153-1.096l0.585-0.081L18.969,3.036z"/>
		<path fill="#BBC4CA" d="M24.082,1.375c0.013,0.406-0.119,0.749-0.396,1.029c-0.278,0.279-0.628,0.426-1.05,0.44
			c-0.422,0.013-0.78-0.11-1.075-0.373C21.266,2.21,21.112,1.876,21.1,1.47c-0.013-0.406,0.119-0.75,0.396-1.029
			c0.277-0.281,0.627-0.427,1.048-0.44c0.424-0.015,0.782,0.11,1.077,0.371C23.915,0.635,24.069,0.969,24.082,1.375z M23.469,1.394
			c-0.008-0.264-0.097-0.477-0.265-0.637c-0.168-0.164-0.382-0.24-0.643-0.232c-0.262,0.009-0.471,0.1-0.629,0.271
			c-0.158,0.173-0.232,0.39-0.223,0.655c0.008,0.264,0.096,0.476,0.264,0.638c0.168,0.163,0.384,0.239,0.645,0.231
			c0.26-0.008,0.47-0.099,0.627-0.271C23.403,1.876,23.477,1.657,23.469,1.394z"/>
		<path fill="#BBC4CA" d="M28.317,2.938l-0.708-0.047l-0.63-1.29l-0.083,1.241l-0.589-0.037l0.18-2.724l0.815,0.054
			c0.341,0.024,0.596,0.104,0.764,0.246c0.168,0.14,0.245,0.335,0.228,0.582c-0.013,0.208-0.084,0.373-0.21,0.492
			c-0.125,0.12-0.285,0.182-0.476,0.186L28.317,2.938z M27.678,0.97c0.009-0.129-0.028-0.227-0.109-0.292
			c-0.081-0.064-0.21-0.103-0.388-0.114l-0.133-0.009L27,1.289l0.133,0.009c0.175,0.014,0.308-0.009,0.397-0.063
			C27.621,1.182,27.669,1.093,27.678,0.97z"/>
		<path fill="#BBC4CA" d="M30.957,3.272l-0.585-0.085l0.395-2.699l0.585,0.085L30.957,3.272z"/>
		<path fill="#BBC4CA" d="M35.799,1.478l-1.851,1.886l1.296,0.303l-0.106,0.458l-2.192-0.513l1.857-1.885L33.61,1.447l0.107-0.457
			L35.799,1.478z"/>
		<path fill="#BBC4CA" d="M38.663,5.256L37.229,4.75l0.908-2.573l1.434,0.506l-0.156,0.444L38.55,2.823l-0.212,0.599l0.863,0.306
			l-0.157,0.444l-0.864-0.305l-0.227,0.641l0.864,0.305L38.663,5.256z"/>
		<path fill="#BBC4CA" d="M43.387,5.95c-0.197,0.383-0.478,0.615-0.838,0.696c-0.364,0.081-0.773,0.003-1.229-0.23l-0.58-0.298
			l1.248-2.426l0.538,0.276c0.48,0.247,0.794,0.541,0.942,0.879C43.618,5.188,43.591,5.555,43.387,5.95z M42.841,5.664
			c0.129-0.249,0.156-0.482,0.084-0.696c-0.072-0.213-0.238-0.387-0.498-0.521L42.298,4.38L41.48,5.97l0.129,0.066
			c0.259,0.134,0.496,0.168,0.712,0.104C42.537,6.074,42.71,5.916,42.841,5.664z"/>
	</g>
	<g>
		<path fill="#BBC4CA" d="M6.546,30.482C6.4,30.888,6.142,31.152,5.77,31.268c-0.373,0.116-0.825,0.073-1.347-0.135
			c-0.266-0.105-0.398-0.159-0.662-0.268c0.418-1.008,0.626-1.513,1.044-2.52c0.233,0.096,0.349,0.143,0.581,0.237
			c0.521,0.207,0.879,0.468,1.082,0.791C6.667,29.695,6.695,30.065,6.546,30.482z M5.931,30.253
			c0.099-0.263,0.094-0.499-0.009-0.707c-0.103-0.207-0.297-0.367-0.581-0.479c-0.058-0.022-0.085-0.035-0.142-0.056
			c-0.267,0.664-0.399,0.996-0.664,1.659c0.059,0.025,0.088,0.036,0.146,0.059c0.292,0.117,0.552,0.131,0.771,0.049
			C5.672,30.695,5.832,30.52,5.931,30.253z"/>
		<path fill="#BBC4CA" d="M13.171,34.191c-0.644-0.132-0.964-0.203-1.604-0.354c0.251-1.062,0.378-1.592,0.63-2.654
			c0.607,0.144,0.912,0.212,1.521,0.336c-0.037,0.185-0.057,0.276-0.095,0.46c-0.37-0.076-0.556-0.116-0.926-0.199
			c-0.056,0.249-0.083,0.373-0.139,0.62c0.375,0.085,0.562,0.125,0.938,0.202c-0.038,0.185-0.057,0.278-0.095,0.463
			c-0.379-0.079-0.568-0.119-0.948-0.204c-0.059,0.266-0.088,0.398-0.149,0.664c0.383,0.087,0.576,0.127,0.96,0.207
			C13.229,33.915,13.209,34.007,13.171,34.191z"/>
		<path fill="#BBC4CA" d="M21.638,35.335c-0.285-0.011-0.426-0.018-0.709-0.032c-0.074-0.247-0.11-0.369-0.179-0.616
			c-0.442-0.025-0.664-0.041-1.104-0.075c-0.104,0.237-0.156,0.353-0.261,0.587c-0.283-0.024-0.425-0.036-0.709-0.063
			c0.545-1.044,0.807-1.57,1.307-2.626c0.286,0.02,0.429,0.029,0.715,0.047C21.05,33.671,21.239,34.227,21.638,35.335z
			 M20.626,34.245c-0.132-0.472-0.198-0.709-0.325-1.183c-0.186,0.452-0.282,0.68-0.478,1.129
			C20.146,34.215,20.306,34.226,20.626,34.245z"/>
		<path fill="#BBC4CA" d="M28.752,35.297c-0.572,0.056-0.859,0.08-1.432,0.119c-0.075-1.088-0.113-1.632-0.188-2.72
			c0.241-0.017,0.361-0.026,0.603-0.046c0.071,0.9,0.108,1.35,0.181,2.25c0.316-0.024,0.476-0.04,0.792-0.069
			C28.726,35.018,28.734,35.111,28.752,35.297z"/>
		<path fill="#BBC4CA" d="M36.501,33.901c-0.639,0.155-0.96,0.228-1.604,0.361c-0.224-1.068-0.334-1.602-0.558-2.67
			c0.609-0.126,0.914-0.196,1.521-0.342c0.044,0.182,0.066,0.273,0.111,0.456c-0.37,0.089-0.555,0.132-0.926,0.214
			c0.056,0.248,0.083,0.373,0.139,0.621c0.375-0.083,0.562-0.126,0.935-0.216c0.045,0.183,0.067,0.274,0.112,0.459
			c-0.378,0.089-0.567,0.133-0.947,0.218c0.06,0.265,0.089,0.398,0.148,0.664c0.384-0.085,0.574-0.129,0.958-0.222
			C36.436,33.627,36.458,33.719,36.501,33.901z"/>
		<path fill="#BBC4CA" d="M44.227,30.809c-0.287,0.119-0.432,0.177-0.719,0.292c-0.475-0.347-0.709-0.522-1.173-0.88
			c0.177,0.464,0.267,0.699,0.444,1.163c-0.242,0.092-0.363,0.138-0.605,0.227c-0.375-1.025-0.563-1.538-0.938-2.562
			c0.319-0.117,0.476-0.177,0.792-0.298c0.331-0.126,0.604-0.167,0.825-0.117c0.22,0.052,0.377,0.19,0.471,0.418
			c0.08,0.194,0.086,0.375,0.018,0.54c-0.069,0.164-0.195,0.294-0.379,0.386C43.462,30.314,43.714,30.481,44.227,30.809z
			 M42.741,29.338c-0.048-0.121-0.125-0.192-0.229-0.214c-0.105-0.023-0.244-0.001-0.417,0.065
			c-0.053,0.021-0.079,0.031-0.131,0.051c0.104,0.275,0.157,0.414,0.261,0.688c0.054-0.02,0.08-0.03,0.132-0.051
			c0.175-0.066,0.292-0.145,0.356-0.233C42.777,29.555,42.786,29.453,42.741,29.338z"/>
	</g>
</g>
</svg>
