<?xml version="1.0" encoding="utf-8"?>
<!DOCTYPE svg PUBLIC "-//W3C//DTD SVG 1.1//EN" "http://www.w3.org/Graphics/SVG/1.1/DTD/svg11.dtd">
<svg version="1.1" id="Layer_1" xmlns="http://www.w3.org/2000/svg" xmlns:xlink="http://www.w3.org/1999/xlink" x="0px" y="0px"
	 width="121.375px" height="41.241px" viewBox="0 0 121.375 41.241" enable-background="new 0 0 121.375 41.241"
	 xml:space="preserve">
<g>
	<g>
		<path fill="#FFFFFF" d="M14.96,40.742c-4.828,0-9.006-1.223-11.178-3.272C0.491,34.401,0.496,30.533,0.5,26.437l0-13.579
			c0-3.408,0.411-6.9,3.395-9.363C6.229,1.564,9.937,0.5,14.333,0.5c0.357,0,0.717,0.007,1.079,0.021
			c4.716,0.185,9.558,1.707,13.282,4.175l0.224,0.148v11.242H16.563v-2.744l0.006-0.478c0.018-0.994,0.04-2.23-0.539-2.819
			c-0.254-0.258-0.621-0.384-1.124-0.384s-0.87,0.125-1.124,0.384c-0.579,0.589-0.556,1.825-0.539,2.819l0.006,0.478v14.566
			l-0.006,0.478c-0.018,0.994-0.04,2.23,0.539,2.819c0.254,0.258,0.621,0.384,1.124,0.384s0.87-0.125,1.124-0.384
			c0.579-0.589,0.556-1.825,0.539-2.819l-0.006-0.478V23.14h12.354v13.321l-0.182,0.15c-2.948,2.436-7.799,3.975-12.979,4.119
			C15.491,40.738,15.225,40.741,14.96,40.742z"/>
		<path d="M14.333,1c0.351,0,0.704,0.007,1.059,0.021c4.489,0.176,9.242,1.584,13.026,4.092v10.474H17.063v-2.244
			c0-1.541,0.308-4.181-2.156-4.181s-2.156,2.64-2.156,4.181v14.566c0,1.541-0.308,4.181,2.156,4.181s2.156-2.64,2.156-4.181V23.64
			h11.354v12.586c-3.036,2.508-7.921,3.873-12.674,4.004c-0.262,0.007-0.523,0.011-0.783,0.011c-4.427,0-8.631-1.057-10.834-3.135
			c-3.256-3.036-3.125-6.997-3.125-11.133V12.858c0-3.388,0.44-6.689,3.213-8.977C6.562,1.938,10.29,1,14.333,1 M14.333,0
			C9.82,0,6,1.105,3.576,3.111c-3.15,2.6-3.575,6.387-3.575,9.748v13.114l0,0.464c-0.005,4.022-0.01,8.182,3.443,11.401
			c2.258,2.13,6.564,3.404,11.517,3.404c0.27,0,0.541-0.003,0.811-0.011c5.287-0.146,10.252-1.729,13.283-4.233l0.363-0.3v-0.471
			V23.64v-1h-1H17.063h-1v1v4.269c0,0.153,0.003,0.316,0.006,0.487c0.015,0.853,0.036,2.02-0.396,2.459
			c-0.057,0.058-0.23,0.234-0.767,0.234s-0.71-0.176-0.767-0.234c-0.432-0.439-0.411-1.607-0.396-2.459
			c0.003-0.171,0.006-0.334,0.006-0.487V13.343c0-0.153-0.003-0.316-0.006-0.487c-0.015-0.853-0.036-2.02,0.396-2.459
			c0.057-0.058,0.23-0.234,0.767-0.234s0.71,0.176,0.767,0.234c0.432,0.439,0.411,1.607,0.396,2.459
			c-0.003,0.171-0.006,0.334-0.006,0.487v2.244v1h1h11.354h1v-1V5.113V4.576L28.97,4.28c-3.799-2.518-8.733-4.07-13.54-4.258
			C15.062,0.007,14.696,0,14.333,0L14.333,0z"/>
	</g>
	<g>
		<path fill="#FFFFFF" d="M39.018,40.555c-5.089,0-8.377-3.306-8.377-8.421c0-5.946,3.782-7.679,8.352-9.188l3.118-1.005H31.785
			v-7.578l0.209-0.15c3.267-2.339,7.525-3.525,12.657-3.525c2.701,0,6.451,0.399,8.971,2.301c3.189,2.512,3.144,5.858,3.103,8.811
			l-0.001,8.085c-0.01,1.281-0.016,2.207,1.069,2.987l0.208,0.15v6.961H45.735v-1.583C43.68,39.902,41.618,40.555,39.018,40.555z
			 M44.954,28.549c-1.769,0.625-2.928,1.12-2.928,2.264c0,0.583,0.337,1.236,0.788,1.236c0.037,0,0.075-0.003,0.115-0.011
			c0.843-0.008,1.647-0.275,2.41-0.782v-2.844C45.211,28.458,45.083,28.503,44.954,28.549z M44.035,18.067
			c-0.753,0-1.524,0.265-1.524,2.229v1.515l2.828-0.912v-0.604C45.339,18.067,44.392,18.067,44.035,18.067z"/>
		<path d="M44.651,11.187c2.772,0,6.337,0.44,8.669,2.2c2.904,2.288,2.948,5.193,2.904,8.405v7.745c0,1.452-0.132,2.729,1.276,3.74
			v6.205H46.235V37.37c-2.201,1.848-4.357,2.685-7.217,2.685c-4.841,0-7.877-3.037-7.877-7.921c0-5.545,3.344-7.173,8.009-8.713
			l6.689-2.156v-0.968c0-1.364-0.352-2.729-1.804-2.729c-1.672,0-2.024,1.364-2.024,2.729v1.144h-9.726v-6.821
			C35.85,12.066,40.338,11.187,44.651,11.187 M42.814,32.549c0.067,0,0.137-0.006,0.208-0.02c0.88,0,1.849-0.308,2.816-1.012v-3.829
			c-1.848,0.749-4.312,1.188-4.312,3.125C41.526,31.625,42.013,32.549,42.814,32.549 M44.651,10.187
			c-5.238,0-9.594,1.218-12.948,3.619l-0.418,0.299v0.514v6.821v1h1h6.646l-0.087,0.028c-4.764,1.573-8.702,3.385-8.702,9.665
			c0,5.419,3.484,8.921,8.877,8.921c2.346,0,4.328-0.539,6.217-1.717v0.145v1h1h11.266h1v-1v-6.205v-0.513l-0.417-0.299
			c-0.84-0.604-0.872-1.227-0.861-2.577l0.001-0.351v-7.745c0.042-3.055,0.089-6.532-3.286-9.191
			C51.292,10.603,47.429,10.187,44.651,10.187L44.651,10.187z M43.011,21.125v-0.829c0-1.729,0.592-1.729,1.024-1.729
			c0.241,0,0.804,0,0.804,1.729v0.239L43.011,21.125L43.011,21.125z M42.814,31.549h-0.001c-0.085-0.032-0.286-0.344-0.286-0.736
			c0-0.769,0.867-1.173,2.312-1.692v1.859c-0.609,0.361-1.23,0.549-1.816,0.549h-0.095l-0.093,0.018L42.814,31.549L42.814,31.549z"
			/>
	</g>
	<g>
		<path fill="#FFFFFF" d="M58.933,39.982v-7.063l0.226-0.148c1.068-0.701,1.062-1.618,1.052-2.887v-8.528
			c0.009-1.269,0.016-2.186-1.052-2.887l-0.226-0.148v-7.063h12.178v1.101c0.913-1.065,2.09-1.716,3.989-1.716
			c0.447,0,0.923,0.051,1.34,0.144l0.392,0.087v10.363h-1.336c-2.88,0-3.901,1.251-3.901,4.781v2.684c0,0.871,0,2.063,0.167,2.895
			c0.14,0.735,0.263,0.84,1.053,1.235l0.276,0.138v7.014H58.933z"/>
		<path d="M75.1,11.143c0.396,0,0.836,0.044,1.232,0.132v9.461h-0.836c-3.609,0-4.401,2.024-4.401,5.281v2.684
			c0,0.88,0,2.112,0.176,2.993c0.176,0.924,0.44,1.144,1.32,1.584v6.205H59.433v-6.293c1.408-0.924,1.276-2.2,1.276-3.652v-7.833
			c0-1.453,0.132-2.729-1.276-3.653v-6.293h11.178v2.201C71.711,12.066,72.855,11.143,75.1,11.143 M75.1,10.143
			c-1.541,0-2.645,0.417-3.489,1.055v-0.439h-1H59.433h-1v1v6.293v0.54l0.451,0.296c0.807,0.53,0.836,1.139,0.827,2.466
			l-0.001,0.351v7.833l0.001,0.351c0.01,1.327-0.02,1.936-0.826,2.465l-0.452,0.296v0.54v6.293v1h1h13.158h1v-1v-6.205v-0.618
			l-0.553-0.276c-0.683-0.341-0.683-0.341-0.785-0.876c-0.159-0.792-0.159-1.956-0.159-2.806v-2.684
			c0-3.281,0.794-4.281,3.401-4.281h0.836h1v-1v-9.461v-0.802l-0.783-0.174C76.096,10.198,75.582,10.143,75.1,10.143L75.1,10.143z"
			/>
	</g>
	<g>
		<path fill="#FFFFFF" d="M87.787,40.417c-1.512,0-4.33-0.275-6.22-2.116c-1.928-1.928-1.919-4.529-1.912-6.823l0.001-12.882H78.38
			v-7.337h1.276V5.968l11.385-3.232v8.522h3.433v7.337h-3.433v10.216c0,2.861,0,3.541,2.989,3.881l0.443,0.05v7.203l-5.655,0.431
			C88.485,40.403,88.139,40.417,87.787,40.417z"/>
		<path d="M90.542,3.397v8.361h3.433v6.337h-3.433v10.605c0,2.993-0.044,4.093,3.433,4.489v6.293l-5.193,0.396
			c-0.322,0.025-0.655,0.038-0.995,0.038c-2.066,0-4.358-0.5-5.871-1.974c-1.892-1.893-1.76-4.489-1.76-6.909V18.095H78.88v-6.337
			h1.276V6.346L90.542,3.397 M91.542,2.074l-1.273,0.361L79.883,5.384L79.156,5.59v0.756v4.413H78.88h-1v1v6.337v1h1h0.276v11.938
			l-0.001,0.442c-0.008,2.392-0.017,5.103,2.054,7.174c1.503,1.465,3.836,2.267,6.578,2.267c0.355,0,0.716-0.014,1.071-0.041
			l5.192-0.396l0.924-0.07v-0.927v-6.293v-0.893l-0.887-0.101c-2.546-0.29-2.546-0.523-2.546-3.384v-0.111v-9.605h2.433h1v-1v-6.337
			v-1h-1h-2.433V3.397V2.074L91.542,2.074z"/>
	</g>
	<g>
		<path fill="#FFFFFF" d="M108.538,40.555c-1.978,0-8.724-0.28-12.491-3.879l-0.155-0.147v-7.887h9.295
			c-0.037-0.009-0.373-0.086-0.373-0.086c-4.837-1.111-9.406-2.161-9.406-8.523c0-2.336,0.39-5.286,3.43-7.366
			c2.61-1.723,6.315-1.979,8.292-1.979c5.277,0,9.584,1.249,12.801,3.711l0.196,0.15v7.348h-9.056
			c5.118,1.087,9.804,2.314,9.804,9.093C120.875,37.336,116.724,40.555,108.538,40.555z M106.66,30.129
			c-0.007,0.975-0.015,2.08,0.505,2.604c0.235,0.237,0.583,0.353,1.064,0.353c0.83,0,1.48-0.708,1.48-1.612
			c0-1.448-1.311-2.051-3.048-2.493L106.66,30.129z M107.921,18.155c-0.84,0-1.524,0.625-1.524,1.392
			c0,1.24,1.432,1.682,3.093,2.022v-1.186C109.49,18.155,108.309,18.155,107.921,18.155z"/>
		<path d="M107.129,11.187c4.4,0,8.933,0.88,12.498,3.608v6.601h-9.637v-1.012c0-1.276-0.396-2.729-2.068-2.729
			c-1.1,0-2.024,0.836-2.024,1.892c0,1.98,2.641,2.333,4.137,2.641c5.413,1.144,10.341,2.024,10.341,8.801
			c0,7.217-5.589,9.065-11.837,9.065c-3.917,0-9.198-0.924-12.146-3.741v-7.173h9.77v0.66c0,1.584-0.176,3.785,2.068,3.785
			c1.1,0,1.98-0.924,1.98-2.112c0-2.508-3.168-2.904-5.017-3.344c-4.973-1.145-9.285-2.024-9.285-8.097
			c0-2.905,0.704-5.237,3.212-6.953C101.32,11.626,104.533,11.187,107.129,11.187 M107.129,10.187c-2.033,0-5.848,0.267-8.56,2.058
			c-3.247,2.222-3.662,5.328-3.662,7.788c0,5.105,2.84,7.007,6.304,8.109h-4.82h-1v1v7.173v0.428l0.309,0.295
			c3.902,3.728,10.812,4.018,12.837,4.018c8.518,0,12.837-3.387,12.837-10.065c0-5.313-2.795-7.417-6.323-8.593h4.575h1v-1v-6.601
			v-0.494l-0.392-0.3C116.928,11.47,112.519,10.187,107.129,10.187L107.129,10.187z M108.99,20.949
			c-1.176-0.278-2.093-0.651-2.093-1.401c0-0.492,0.459-0.892,1.024-0.892c0.32,0,1.068,0,1.068,1.729V20.949L108.99,20.949z
			 M108.229,32.585c-0.506,0-0.66-0.154-0.71-0.205c-0.374-0.376-0.366-1.458-0.36-2.248l0.001-0.332v-0.166
			c1.229,0.373,2.048,0.874,2.048,1.838C109.209,32.097,108.779,32.585,108.229,32.585L108.229,32.585z"/>
	</g>
</g>
</svg>
