<?xml version="1.0" encoding="utf-8"?>
<!DOCTYPE svg PUBLIC "-//W3C//DTD SVG 1.1//EN" "http://www.w3.org/Graphics/SVG/1.1/DTD/svg11.dtd">
<svg version="1.1" id="Layer_1" xmlns="http://www.w3.org/2000/svg" xmlns:xlink="http://www.w3.org/1999/xlink" x="0px" y="0px"
	 width="122.033px" height="40.286px" viewBox="0 0 122.033 40.286" enable-background="new 0 0 122.033 40.286"
	 xml:space="preserve">
<g>
	<g>
		<path fill="#FFFFFF" d="M0.5,39.213v-7.466l0.235-0.147c1.009-0.631,1.054-1.526,1.043-2.936V11.048
			c0.011-1.409-0.034-2.305-1.043-2.935L0.5,7.966V0.5h16.265c3.1,0,7.345,0,10.063,2.083c2.763,2.115,4.075,5.606,3.901,10.377
			c-0.005,0.136-0.009,0.243-0.009,0.318v2.992c0,8.607-3.625,12.118-12.514,12.118h-3.683c-0.009,1.677,0.044,2.588,1.043,3.213
			l0.235,0.147v7.466H0.5z M15.126,19.423c1.071,0,1.761-0.191,2.17-0.601c0.679-0.68,0.677-2.084,0.675-4.027v-0.75
			c0.002-1.965,0.004-3.385-0.677-4.067c-0.409-0.409-1.098-0.6-2.168-0.6h-0.6v10.046H15.126z"/>
		<path d="M16.765,1c3.162,0,7.228,0.04,9.759,1.98c4.312,3.301,3.696,9.33,3.696,10.298v2.992c0,7.173-2.376,11.618-12.014,11.618
			h-4.181c0,1.848-0.132,3.256,1.276,4.137v6.689H1v-6.689c1.408-0.88,1.276-2.289,1.276-3.697V11.385
			c0-1.408,0.132-2.816-1.276-3.696V1h15.358C16.492,1,16.628,1,16.765,1 M14.026,19.923h1.1c3.477,0,3.345-1.98,3.345-5.501
			c0-3.564,0.132-5.545-3.345-5.545h-1.1V19.923 M16.765,0h-0.207h-0.2H1H0v1v6.689v0.554l0.47,0.294
			c0.786,0.491,0.817,1.197,0.808,2.507l-0.001,0.341v16.942l0.001,0.341c0.01,1.31-0.021,2.017-0.808,2.508L0,31.47v0.554v6.689v1
			h1h14.302h1v-1v-6.689V31.47l-0.47-0.294c-0.667-0.417-0.794-0.971-0.808-2.289h3.182c9.122,0,13.014-3.773,13.014-12.618v-2.992
			c0-0.071,0.004-0.172,0.009-0.299c0.181-4.942-1.198-8.574-4.097-10.792C24.28,0,19.937,0,16.765,0L16.765,0z M15.026,9.877h0.1
			c0.916,0,1.509,0.148,1.814,0.454c0.535,0.536,0.534,1.938,0.531,3.713l0,0.378l0,0.374c0.002,1.754,0.004,3.14-0.528,3.673
			c-0.301,0.301-0.912,0.454-1.817,0.454h-0.1V9.877L15.026,9.877z"/>
	</g>
	<g>
		<path fill="#FFFFFF" d="M39.676,39.786c-5.089,0-8.377-3.306-8.377-8.421c0-5.946,3.782-7.679,8.352-9.188l3.118-1.005H32.443
			v-7.578l0.209-0.15c3.267-2.339,7.525-3.525,12.657-3.525c2.701,0,6.451,0.399,8.971,2.301c3.189,2.512,3.144,5.858,3.103,8.811
			l-0.001,8.086c-0.01,1.281-0.017,2.206,1.069,2.986l0.208,0.15v6.961H46.393V37.63C44.337,39.133,42.276,39.786,39.676,39.786z
			 M45.612,27.78c-1.769,0.625-2.928,1.12-2.928,2.264c0,0.583,0.337,1.236,0.788,1.236c0.037,0,0.075-0.003,0.115-0.011
			c0.843-0.008,1.647-0.275,2.41-0.782v-2.844C45.87,27.689,45.741,27.734,45.612,27.78z M44.693,17.298
			c-0.754,0-1.524,0.265-1.524,2.229v1.516l2.829-0.912v-0.604C45.997,17.298,45.05,17.298,44.693,17.298z"/>
		<path d="M45.309,10.417c2.772,0,6.337,0.44,8.669,2.2c2.904,2.288,2.948,5.193,2.904,8.405v7.745c0,1.452-0.132,2.729,1.276,3.74
			v6.205H46.893v-2.112c-2.2,1.848-4.356,2.685-7.217,2.685c-4.841,0-7.877-3.037-7.877-7.921c0-5.545,3.344-7.173,8.009-8.713
			l6.689-2.156v-0.968c0-1.364-0.352-2.729-1.804-2.729c-1.672,0-2.024,1.364-2.024,2.729v1.144h-9.725V13.85
			C36.508,11.297,40.997,10.417,45.309,10.417 M43.472,31.78c0.067,0,0.137-0.006,0.208-0.02c0.88,0,1.849-0.308,2.816-1.012v-3.829
			c-1.848,0.749-4.312,1.188-4.312,3.125C42.185,30.856,42.671,31.78,43.472,31.78 M45.309,9.417c-5.238,0-9.594,1.218-12.948,3.619
			l-0.418,0.299v0.514v6.821v1h1h6.646l-0.087,0.028c-4.764,1.573-8.702,3.385-8.702,9.665c0,5.419,3.484,8.921,8.877,8.921
			c2.346,0,4.327-0.539,6.217-1.717v0.145v1h1h11.266h1v-1v-6.205v-0.513l-0.417-0.299c-0.84-0.604-0.871-1.226-0.861-2.576
			l0.001-0.352v-7.745c0.042-3.055,0.089-6.532-3.286-9.191C51.95,9.834,48.087,9.417,45.309,9.417L45.309,9.417z M43.668,20.356
			v-0.829c0-1.729,0.592-1.729,1.024-1.729c0.241,0,0.804,0,0.804,1.729v0.239L43.668,20.356L43.668,20.356z M43.472,30.78h-0.001
			c-0.085-0.032-0.286-0.344-0.286-0.736c0-0.769,0.867-1.173,2.312-1.692v1.859c-0.609,0.361-1.23,0.549-1.816,0.549h-0.095
			l-0.093,0.018L43.472,30.78L43.472,30.78z"/>
	</g>
	<g>
		<path fill="#FFFFFF" d="M59.591,39.213V32.15l0.226-0.148c1.068-0.701,1.062-1.618,1.052-2.887v-8.528
			c0.009-1.269,0.016-2.186-1.052-2.887l-0.226-0.148v-7.063h12.178v1.101c0.913-1.065,2.089-1.716,3.988-1.716
			c0.447,0,0.923,0.051,1.341,0.144l0.392,0.087v10.363h-1.336c-2.88,0-3.901,1.251-3.901,4.781v2.684c0,0.871,0,2.063,0.167,2.895
			c0.14,0.735,0.263,0.84,1.053,1.235l0.276,0.138v7.014H59.591z"/>
		<path d="M75.757,10.374c0.396,0,0.836,0.044,1.232,0.132v9.461h-0.836c-3.609,0-4.401,2.024-4.401,5.281v2.684
			c0,0.88,0,2.112,0.176,2.993c0.176,0.924,0.44,1.144,1.32,1.584v6.205H60.091V32.42c1.408-0.924,1.276-2.2,1.276-3.652v-7.833
			c0-1.453,0.132-2.729-1.276-3.653v-6.293h11.178v2.201C72.369,11.297,73.513,10.374,75.757,10.374 M75.757,9.374
			c-1.541,0-2.644,0.417-3.488,1.055V9.989h-1H60.091h-1v1v6.293v0.54l0.451,0.296c0.807,0.53,0.836,1.139,0.827,2.466l-0.001,0.351
			v7.833l0.001,0.351c0.01,1.327-0.02,1.936-0.826,2.465l-0.452,0.296v0.54v6.293v1h1h13.158h1v-1v-6.205V31.89l-0.553-0.276
			c-0.683-0.341-0.683-0.341-0.785-0.876c-0.159-0.792-0.159-1.956-0.159-2.806v-2.684c0-3.281,0.794-4.281,3.401-4.281h0.836h1v-1
			v-9.461V9.703l-0.783-0.174C76.754,9.429,76.24,9.374,75.757,9.374L75.757,9.374z"/>
	</g>
	<g>
		<path fill="#FFFFFF" d="M88.445,39.647c-1.512,0-4.331-0.275-6.219-2.116c-1.929-1.929-1.92-4.53-1.913-6.824l0.001-12.881h-1.276
			v-7.337h1.276V5.199L91.7,1.967v8.522h3.433v7.337H91.7v10.216c0,2.861,0,3.541,2.989,3.881l0.443,0.05v7.203l-5.655,0.431
			C89.143,39.634,88.797,39.647,88.445,39.647z"/>
		<path d="M91.2,2.628v8.361h3.433v6.337H91.2v10.605c0,2.993-0.044,4.093,3.433,4.489v6.293l-5.193,0.396
			c-0.323,0.025-0.656,0.038-0.995,0.038c-2.067,0-4.358-0.5-5.87-1.974c-1.893-1.893-1.761-4.489-1.761-6.909V17.326h-1.276v-6.337
			h1.276V5.577L91.2,2.628 M92.2,1.305l-1.273,0.361L80.541,4.615l-0.727,0.206v0.756v4.413h-0.276h-1v1v6.337v1h1h0.276v11.938
			l-0.001,0.441c-0.008,2.393-0.017,5.104,2.055,7.175c1.502,1.465,3.835,2.267,6.577,2.267c0.355,0,0.716-0.014,1.071-0.041
			l5.192-0.396l0.924-0.07v-0.927V32.42v-0.893l-0.887-0.101c-2.546-0.29-2.546-0.523-2.546-3.384v-0.111v-9.605h2.433h1v-1v-6.337
			v-1h-1H92.2V2.628V1.305L92.2,1.305z"/>
	</g>
	<g>
		<path fill="#FFFFFF" d="M109.196,39.786c-1.978,0-8.723-0.28-12.491-3.879l-0.155-0.147v-7.887h9.295
			c-0.037-0.009-0.373-0.086-0.373-0.086c-4.837-1.111-9.406-2.161-9.406-8.523c0-2.336,0.39-5.286,3.43-7.366
			c2.61-1.723,6.315-1.979,8.292-1.979c5.277,0,9.584,1.249,12.801,3.711l0.196,0.15v7.348h-9.056
			c5.118,1.087,9.804,2.314,9.804,9.093C121.533,36.567,117.382,39.786,109.196,39.786z M107.318,29.36
			c-0.007,0.975-0.015,2.08,0.505,2.604c0.235,0.237,0.583,0.353,1.064,0.353c0.83,0,1.48-0.708,1.48-1.612
			c0-1.448-1.311-2.051-3.048-2.493L107.318,29.36z M108.58,17.386c-0.84,0-1.524,0.625-1.524,1.392c0,1.24,1.432,1.682,3.093,2.022
			v-1.186C110.148,17.386,108.967,17.386,108.58,17.386z"/>
		<path d="M107.788,10.417c4.4,0,8.933,0.88,12.498,3.608v6.601h-9.637v-1.012c0-1.276-0.396-2.729-2.068-2.729
			c-1.1,0-2.024,0.836-2.024,1.892c0,1.98,2.641,2.333,4.137,2.641c5.413,1.144,10.341,2.024,10.341,8.801
			c0,7.217-5.589,9.065-11.837,9.065c-3.917,0-9.197-0.924-12.146-3.741v-7.173h9.77v0.66c0,1.584-0.176,3.785,2.068,3.785
			c1.1,0,1.98-0.924,1.98-2.112c0-2.508-3.168-2.904-5.017-3.344c-4.973-1.145-9.285-2.024-9.285-8.097
			c0-2.905,0.704-5.237,3.212-6.953C101.979,10.857,105.191,10.417,107.788,10.417 M107.788,9.417c-2.033,0-5.848,0.267-8.56,2.058
			c-3.247,2.222-3.662,5.328-3.662,7.788c0,5.105,2.84,7.007,6.304,8.109h-4.82h-1v1v7.173v0.428l0.309,0.295
			c3.903,3.728,10.812,4.018,12.837,4.018c8.518,0,12.837-3.387,12.837-10.065c0-5.313-2.795-7.417-6.323-8.593h4.575h1v-1v-6.601
			v-0.494l-0.392-0.3C117.586,10.701,113.177,9.417,107.788,9.417L107.788,9.417z M109.648,20.18
			c-1.176-0.278-2.093-0.651-2.093-1.401c0-0.492,0.459-0.892,1.024-0.892c0.32,0,1.068,0,1.068,1.729V20.18L109.648,20.18z
			 M108.888,31.816c-0.506,0-0.66-0.154-0.71-0.205c-0.374-0.376-0.366-1.458-0.36-2.248l0.001-0.332v-0.166
			c1.229,0.373,2.048,0.874,2.048,1.838C109.868,31.328,109.437,31.816,108.888,31.816L108.888,31.816z"/>
	</g>
</g>
</svg>
