<?xml version="1.0" encoding="utf-8"?>
<!DOCTYPE svg PUBLIC "-//W3C//DTD SVG 1.1//EN" "http://www.w3.org/Graphics/SVG/1.1/DTD/svg11.dtd">
<svg version="1.1" id="Layer_1" xmlns="http://www.w3.org/2000/svg" xmlns:xlink="http://www.w3.org/1999/xlink" x="0px" y="0px"
	 width="176.33px" height="40.356px" viewBox="15.368 1.886 176.33 40.356" enable-background="new 15.368 1.886 176.33 40.356"
	 xml:space="preserve">
<g>
	<g>
		<path fill="#FFFFFF" d="M33.662,41.099l-0.09-0.386c-0.493-2.104-0.806-3.953-0.673-10.246c0-2.878-0.26-3.982-3.004-4.065
			l-0.001,4.15c-0.011,1.408,0.034,2.304,1.042,2.934l0.235,0.146v7.467H15.868v-7.467l0.235-0.146
			c1.009-0.631,1.054-1.526,1.043-2.936V12.934c0.011-1.409-0.034-2.305-1.043-2.935l-0.235-0.146V2.386h17.303
			c2.656,0,6.292,0,8.891,1.568c2.862,1.676,4.378,4.747,4.378,8.877c0,4.615-1.509,7.529-4.604,8.86
			c2.85,1.024,3.899,2.828,3.899,6.366v2.156c0,1.175,0,2.783,1.136,3.231l0.317,0.124v7.53H33.662z M30.582,17.876
			c2.1,0,2.844-0.906,2.844-3.46c0-2.362-0.771-3.241-2.844-3.241h-0.688v6.701H30.582z"/>
		<path d="M33.171,2.886c2.819,0,6.218,0.039,8.633,1.496c3.081,1.804,4.136,5.017,4.136,8.449c0,4.137-1.232,7.745-5.633,8.845
			v0.088c3.697,0.88,4.929,2.465,4.929,6.293v2.156c0,1.276,0,3.124,1.453,3.696v6.689h-12.63c-0.484-2.068-0.792-3.828-0.66-10.121
			c0-2.992-0.308-4.489-3.521-4.577h-0.484v4.312c0,1.408-0.132,2.816,1.276,3.696v6.689H16.368V33.91
			c1.408-0.88,1.276-2.288,1.276-3.696V13.271c0-1.408,0.132-2.816-1.276-3.696V2.886h16.327C32.851,2.886,33.01,2.886,33.171,2.886
			 M29.394,18.376h1.188c2.552,0,3.344-1.32,3.344-3.96c0-2.42-0.792-3.741-3.344-3.741h-1.188V18.376 M33.171,1.886h-0.242h-0.235
			H16.368h-1v1v6.689v0.554l0.47,0.294c0.786,0.491,0.817,1.197,0.808,2.507l-0.001,0.341v16.942l0.001,0.341
			c0.01,1.31-0.021,2.017-0.808,2.508l-0.47,0.293v0.555v6.689v1h1H30.67h1v-1V33.91v-0.555l-0.47-0.293
			c-0.786-0.491-0.817-1.197-0.807-2.507l0.001-0.342v-3.285c1.819,0.151,2.004,0.895,2.004,3.55
			c-0.133,6.33,0.185,8.209,0.687,10.349l0.181,0.772h0.793h12.63h1v-1V33.91v-0.681l-0.633-0.25
			c-0.757-0.298-0.819-1.479-0.819-2.766v-2.156c0-3.316-0.915-5.247-3.231-6.411c2.614-1.587,3.935-4.54,3.935-8.815
			c0-4.318-1.601-7.538-4.631-9.312C39.603,1.886,35.885,1.886,33.171,1.886L33.171,1.886z M30.394,11.675h0.188
			c1.796,0,2.344,0.64,2.344,2.741c0,2.533-0.723,2.96-2.344,2.96h-0.188V11.675L30.394,11.675z"/>
	</g>
	<g>
		<path fill="#FFFFFF" d="M61.438,41.742c-3.885,0-7.224-0.832-9.158-2.282c-2.998-2.226-3.236-5.254-3.236-8.981v-7.525
			c-0.094-4.019,0.606-6.58,2.27-8.29c1.9-1.954,5.086-2.835,10.33-2.859l0.197,0c5.296,0,8.674,0.936,10.632,2.945
			c1.626,1.669,2.31,4.041,2.215,7.689v7.045H60.429v2.052c-0.038,1.182,0.129,1.939,0.511,2.334
			c0.218,0.226,0.521,0.335,0.925,0.335c1.074,0,1.437-0.641,1.437-2.537v-1.512h11.386v7.682l-0.173,0.149
			c-2.241,1.939-6.502,3.352-11.117,3.686C62.746,41.717,62.087,41.742,61.438,41.742z M63.479,22.144v-0.556
			c0-1.624-0.456-2.316-1.525-2.316c-1.068,0-1.524,0.693-1.524,2.316v0.556H63.479z"/>
		<path d="M61.841,12.303c10.048,0,12.521,3.388,12.347,10.122v6.558H59.929v2.552c-0.044,1.364,0.132,3.169,1.936,3.169
			c1.805,0,1.937-1.629,1.937-3.037v-1.012h10.386v6.953c-2.289,1.98-6.557,3.256-10.826,3.564c-0.642,0.047-1.285,0.07-1.923,0.07
			c-3.554,0-6.917-0.728-8.858-2.183c-2.904-2.156-3.036-5.237-3.036-8.581v-7.525c-0.176-7.569,2.376-10.605,12.102-10.649
			C61.71,12.303,61.776,12.303,61.841,12.303 M59.929,22.644h4.049v-1.056c0-1.1-0.177-2.816-2.025-2.816
			c-1.848,0-2.024,1.716-2.024,2.816V22.644 M61.842,11.303v1V11.303L61.842,11.303l-0.2,0c-5.389,0.024-8.685,0.953-10.687,3.011
			c-1.765,1.814-2.508,4.486-2.411,8.662l0,7.502c0,3.043,0,6.83,3.44,9.384c2.016,1.512,5.463,2.38,9.455,2.38
			c0.661,0,1.332-0.024,1.995-0.073c4.789-0.346,9.054-1.769,11.408-3.806l0.346-0.299v-0.457v-6.953v-0.672v-1v-6.558
			c0.098-3.769-0.629-6.252-2.356-8.026C70.772,12.287,67.281,11.303,61.842,11.303L61.842,11.303z M60.929,21.644v-0.056
			c0-1.816,0.592-1.816,1.024-1.816c0.433,0,1.025,0,1.025,1.816v0.056H60.929L60.929,21.644z M60.929,29.982h1.873v0.672v1.012
			c0,2.037-0.434,2.037-0.937,2.037c-0.389,0-0.518-0.133-0.565-0.183c-0.192-0.198-0.412-0.697-0.371-1.954L60.929,29.982
			L60.929,29.982z"/>
	</g>
	<g>
		<path fill="#FFFFFF" d="M92.615,41.099l-0.086-0.394c-0.59-2.697-0.587-5.497-0.584-8.206v-8.623l0.005-0.134
			c0.018-0.333,0.07-1.348-0.271-2.131c-0.469-0.688-1.083-1.078-1.781-1.078c-0.259,0-0.535,0.053-0.824,0.156l-0.002,10.38
			c-0.011,1.453,0.052,2.372,1.012,2.882l0.266,0.141v7.006H76.412v-6.993l0.249-0.145c0.986-0.573,1.032-1.396,1.027-2.801
			l-0.001-8.791c0.001-1.398,0.002-2.099-1.071-2.886l-0.204-0.15v-6.958h12.221v1.307c2.127-1.27,4.26-1.889,6.494-1.889
			c0.171,0,0.341,0.003,0.509,0.01c2.246,0.091,4.279,0.837,5.437,1.994c2.086,1.989,2.26,4.237,2.26,6.558L103.33,31.08
			c-0.011,1.409,0.051,2.37,0.975,2.876l0.26,0.143v7.001H92.615z"/>
		<path d="M95.127,12.293c0.164,0,0.327,0.003,0.488,0.01c2.156,0.088,4.047,0.792,5.104,1.848c1.893,1.804,2.113,3.829,2.113,6.205
			v10.386c0,1.364-0.133,2.904,1.232,3.652v6.205H93.018c-0.615-2.816-0.572-5.765-0.572-8.625v-8.098
			c0-0.176,0.133-1.452-0.307-2.464c-0.505-0.757-1.236-1.378-2.24-1.378c-0.397,0-0.838,0.097-1.324,0.322v10.386
			c0,1.364-0.133,2.904,1.275,3.652v6.205H76.912v-6.205c1.363-0.792,1.275-2.068,1.275-3.477v-8.404
			c0-1.497,0.045-2.465-1.275-3.433v-6.205h11.221v1.716C90.743,12.838,93.051,12.293,95.127,12.293 M95.127,11.293
			c-2.062,0-4.037,0.504-5.994,1.535v-0.953h-1H76.912h-1v1v6.205v0.507l0.408,0.3c0.832,0.61,0.869,1.05,0.867,2.483v0.144v8.404
			l0.001,0.245c0.005,1.415-0.058,1.948-0.778,2.367l-0.498,0.289v0.575v6.205v1h1H89.85h1v-1v-6.205v-0.602l-0.531-0.281
			c-0.687-0.365-0.756-1.056-0.746-2.437l0.002-0.333v-9.674c0.112-0.022,0.221-0.034,0.323-0.034c0.189,0,0.753,0,1.356,0.857
			c0.257,0.666,0.212,1.533,0.197,1.825c-0.004,0.074-0.006,0.129-0.006,0.16v8.098V32.5c-0.003,2.734-0.006,5.563,0.596,8.313
			l0.172,0.786h0.805h11.047h1v-1v-6.205v-0.593l-0.52-0.284c-0.658-0.361-0.726-1.052-0.715-2.434l0.002-0.342V20.356
			c0-2.337-0.188-4.797-2.423-6.928c-1.228-1.227-3.385-2.027-5.753-2.124C95.48,11.297,95.305,11.293,95.127,11.293L95.127,11.293z
			"/>
	</g>
	<g>
		<path fill="#FFFFFF" d="M114.992,41.534c-1.512,0-4.331-0.274-6.222-2.116c-1.928-1.93-1.92-4.532-1.912-6.827l0.001-12.878
			h-1.275v-7.337h1.275V7.084l11.385-3.232v8.522h3.434v7.337h-3.434v10.214c-0.001,2.862-0.001,3.542,2.99,3.883l0.443,0.051v7.202
			l-5.655,0.433C115.688,41.52,115.344,41.534,114.992,41.534z"/>
		<path d="M117.744,4.514v8.361h3.434v6.337h-3.434v10.606c0,2.992-0.043,4.092,3.434,4.488v6.293l-5.193,0.396
			c-0.321,0.024-0.654,0.038-0.992,0.038c-2.066,0-4.359-0.5-5.873-1.975c-1.891-1.893-1.76-4.489-1.76-6.909V19.212h-1.275v-6.337
			h1.275V7.462L117.744,4.514 M118.744,3.191l-1.273,0.361L107.086,6.5l-0.727,0.206v0.756v4.413h-0.275h-1v1v6.337v1h1h0.275V32.15
			l-0.001,0.438c-0.008,2.394-0.017,5.105,2.054,7.178c1.505,1.466,3.838,2.268,6.58,2.268c0.354,0,0.714-0.014,1.068-0.041
			l5.193-0.396l0.924-0.07v-0.927v-6.293v-0.893l-0.887-0.101c-2.548-0.291-2.548-0.524-2.547-3.387v-0.108v-9.606h2.434h1v-1
			v-6.337v-1h-1h-2.434V4.514V3.191L118.744,3.191z"/>
	</g>
	<g>
		<path fill="#FFFFFF" d="M130.943,41.671c-5.089,0-8.377-3.306-8.377-8.422c0-5.945,3.783-7.679,8.353-9.188l3.119-1.006h-10.327
			v-7.578l0.209-0.15c3.268-2.339,7.525-3.525,12.656-3.525c2.701,0,6.449,0.399,8.971,2.301c3.188,2.511,3.145,5.714,3.104,8.812
			l-0.002,8.088c-0.009,1.28-0.016,2.205,1.069,2.984l0.208,0.149v6.962H137.66v-1.583
			C135.606,41.019,133.545,41.671,130.943,41.671z M136.877,29.667c-1.768,0.624-2.926,1.119-2.926,2.263
			c0,0.584,0.337,1.236,0.788,1.237c0.037,0,0.075-0.004,0.114-0.012c0.844-0.008,1.647-0.275,2.41-0.781v-2.845
			C137.136,29.575,137.007,29.621,136.877,29.667z M135.961,19.184c-0.754,0-1.525,0.265-1.525,2.229v1.516l2.828-0.912v-0.604
			C137.264,19.184,136.317,19.184,135.961,19.184z"/>
		<path d="M136.576,12.303c2.771,0,6.336,0.44,8.67,2.2c2.904,2.288,2.947,5.193,2.904,8.405v7.745c0,1.452-0.133,2.729,1.275,3.74
			v6.205H138.16v-2.112c-2.199,1.849-4.355,2.685-7.217,2.685c-4.84,0-7.877-3.037-7.877-7.922c0-5.545,3.344-7.172,8.01-8.713
			l6.688-2.156v-0.968c0-1.364-0.352-2.729-1.803-2.729c-1.674,0-2.025,1.364-2.025,2.729v1.144h-9.725v-6.821
			C127.775,13.183,132.264,12.303,136.576,12.303 M134.739,33.667c0.067,0,0.137-0.007,0.208-0.021c0.881,0,1.85-0.309,2.816-1.012
			v-3.829c-1.848,0.749-4.312,1.188-4.312,3.124C133.451,32.742,133.938,33.667,134.739,33.667 M136.576,11.303
			c-5.237,0-9.594,1.218-12.947,3.619l-0.418,0.299v0.514v6.821v1h1h6.647l-0.089,0.028c-4.765,1.574-8.703,3.386-8.703,9.665
			c0,5.42,3.484,8.922,8.877,8.922c2.347,0,4.328-0.538,6.217-1.716v0.144v1h1h11.266h1v-1v-6.205v-0.513l-0.417-0.3
			c-0.839-0.603-0.87-1.225-0.86-2.574l0.002-0.354v-7.745c0.041-3.055,0.088-6.534-3.285-9.191
			C143.216,11.72,139.354,11.303,136.576,11.303L136.576,11.303z M134.936,22.242v-0.829c0-1.729,0.593-1.729,1.025-1.729
			c0.24,0,0.803,0,0.803,1.729v0.239L134.936,22.242L134.936,22.242z M134.739,32.667h-0.002c-0.085-0.032-0.286-0.344-0.286-0.737
			c0-0.769,0.867-1.172,2.312-1.691v1.859c-0.609,0.36-1.229,0.549-1.816,0.549h-0.095l-0.092,0.018L134.739,32.667L134.739,32.667z
			"/>
	</g>
	<g>
		<path fill="#FFFFFF" d="M150.814,41.099v-6.985l0.238-0.146c0.997-0.611,1.043-1.424,1.038-2.808l0.001-18.757
			c0.011-1.401-0.034-2.291-1.032-2.884l-0.245-0.145V2.386h12.662l-0.002,28.685c-0.011,1.453,0.052,2.372,1.012,2.882l0.266,0.141
			v7.006H150.814z"/>
		<path d="M162.977,2.886v27.856c0,1.364-0.133,2.904,1.275,3.652v6.205h-12.938v-6.205c1.363-0.836,1.275-2.068,1.275-3.477V12.743
			c0-1.408,0.133-2.816-1.275-3.653V2.886H162.977 M163.977,1.886h-1h-11.662h-1v1V9.09V9.66l0.489,0.291
			c0.73,0.434,0.799,1.048,0.788,2.45l-0.002,0.343v18.174l0.001,0.245c0.004,1.307-0.026,1.905-0.799,2.379l-0.478,0.293v0.56
			v6.205v1h1h12.938h1v-1v-6.205v-0.602l-0.531-0.281c-0.687-0.365-0.756-1.056-0.746-2.437l0.002-0.333V2.886V1.886L163.977,1.886z
			"/>
	</g>
	<g>
		<path fill="#FFFFFF" d="M178.859,41.671c-1.978,0-8.724-0.279-12.49-3.879l-0.154-0.147v-7.888h9.293
			c-0.036-0.009-0.371-0.086-0.371-0.086c-4.837-1.111-9.406-2.161-9.406-8.523c0-2.337,0.39-5.286,3.431-7.365
			c2.609-1.723,6.313-1.979,8.29-1.979c5.277,0,9.585,1.249,12.802,3.711l0.196,0.15v7.349h-9.052c5.116,1.087,9.8,2.316,9.8,9.093
			C191.197,38.453,187.046,41.671,178.859,41.671z M176.982,31.245c-0.007,0.976-0.015,2.081,0.506,2.605
			c0.236,0.237,0.584,0.353,1.064,0.353c0.83,0,1.48-0.709,1.48-1.613c0-1.447-1.311-2.051-3.049-2.493L176.982,31.245z
			 M178.244,19.272c-0.84,0-1.523,0.625-1.523,1.392c0,1.24,1.432,1.682,3.092,2.022V21.5
			C179.812,19.272,178.632,19.272,178.244,19.272z"/>
		<path d="M177.451,12.303c4.402,0,8.934,0.88,12.498,3.608v6.602h-9.637V21.5c0-1.276-0.396-2.729-2.068-2.729
			c-1.1,0-2.023,0.836-2.023,1.892c0,1.98,2.639,2.333,4.135,2.64c5.414,1.145,10.342,2.025,10.342,8.802
			c0,7.217-5.588,9.065-11.838,9.065c-3.916,0-9.197-0.924-12.145-3.74v-7.174h9.77v0.66c0,1.584-0.176,3.785,2.068,3.785
			c1.1,0,1.98-0.924,1.98-2.113c0-2.508-3.17-2.904-5.018-3.344c-4.973-1.145-9.285-2.024-9.285-8.098
			c0-2.904,0.703-5.236,3.213-6.953C171.643,12.743,174.855,12.303,177.451,12.303 M177.451,11.303
			c-2.032,0-5.848,0.267-8.559,2.058c-3.247,2.22-3.662,5.327-3.662,7.787c0,5.105,2.839,7.008,6.303,8.109h-4.818h-1v1v7.174v0.428
			l0.31,0.295c3.9,3.728,10.811,4.018,12.835,4.018c8.519,0,12.838-3.387,12.838-10.065c0-5.312-2.795-7.417-6.321-8.593h4.573h1v-1
			v-6.602v-0.494l-0.393-0.3C187.251,12.586,182.841,11.303,177.451,11.303L177.451,11.303z M179.312,22.065
			c-1.176-0.277-2.092-0.651-2.092-1.401c0-0.492,0.459-0.892,1.023-0.892c0.319,0,1.068,0,1.068,1.729V22.065L179.312,22.065z
			 M178.553,33.703c-0.506,0-0.659-0.154-0.709-0.205c-0.374-0.377-0.366-1.459-0.361-2.249l0.002-0.331v-0.166
			c1.229,0.372,2.049,0.873,2.049,1.838C179.533,33.213,179.103,33.703,178.553,33.703L178.553,33.703z"/>
	</g>
</g>
</svg>
