<?xml version="1.0" encoding="utf-8"?>
<!DOCTYPE svg PUBLIC "-//W3C//DTD SVG 1.1//EN" "http://www.w3.org/Graphics/SVG/1.1/DTD/svg11.dtd">
<svg version="1.1" id="Layer_1" xmlns="http://www.w3.org/2000/svg" xmlns:xlink="http://www.w3.org/1999/xlink" x="0px" y="0px"
	 width="193.068px" height="27.216px" viewBox="0 0 193.068 27.216" enable-background="new 0 0 193.068 27.216"
	 xml:space="preserve">
<g>
	<g>
		<path fill="#FFFFFF" d="M5.805,26.222C2.086,22.187,0.5,18.453,0.5,13.735c0-4.69,1.665-8.599,5.398-12.673l0.301-0.329
			l3.096,2.246L9.098,3.361c-1.855,3.592-2.683,6.813-2.683,10.444c0,3.591,0.777,6.542,2.681,10.185l0.208,0.397l-3.209,2.149
			L5.805,26.222z"/>
		<path d="M6.267,1.4l2.387,1.732c-1.826,3.535-2.738,6.882-2.738,10.673c0,3.839,0.866,6.835,2.738,10.417l-2.481,1.662
			C2.873,22.302,1,18.674,1,13.735C1,8.726,2.943,5.028,6.267,1.4 M6.132,0.067L5.529,0.725C1.705,4.898,0,8.911,0,13.735
			c0,4.79,1.677,8.745,5.438,12.826l0.581,0.63l0.711-0.477l2.481-1.662l0.745-0.5L9.54,23.758
			c-1.889-3.612-2.625-6.403-2.625-9.953c0-3.547,0.81-6.697,2.627-10.214l0.394-0.764L9.241,2.322L6.854,0.59L6.132,0.067
			L6.132,0.067z"/>
	</g>
	<g>
		<path fill="#FFFFFF" d="M19.422,22.357c-3.201,0-5.639-0.745-7.904-2.415l-0.203-0.15v-6.417h7.062v2.747
			c-0.003,0.337,0.078,0.621,0.211,0.757c0.053,0.053,0.148,0.125,0.365,0.125c0.352,0,0.465-0.114,0.503-0.152
			c0.291-0.292,0.288-1.144,0.285-1.967v-0.537c0.003-0.754,0.008-1.693-0.312-2.014c-0.057-0.058-0.162-0.135-0.405-0.135
			c-0.567,0-0.618,0.273-0.646,0.42l-0.076,0.408l-0.425,0.038h-6.562V0.9H26.57v6.454h-3.944c1.031,0.211,2.196,0.657,2.983,1.588
			c1.218,1.416,1.382,3.514,1.382,5.378c0,1.935,0,4.342-1.589,6.009C24.139,21.656,22.071,22.357,19.422,22.357z M18.378,7.466
			c0.414-0.115,0.86-0.196,1.343-0.244l-0.044-0.295c-0.056-0.373-0.139-0.598-0.261-0.708c-0.124-0.123-0.352-0.176-0.696-0.176
			h-0.342V7.466z"/>
		<path d="M26.07,1.4v5.454h-5.899c-0.07-0.468-0.187-0.796-0.421-1.006c-0.211-0.211-0.539-0.305-1.03-0.305h-0.842v2.622
			c0.913-0.375,1.942-0.492,2.926-0.492c1.521,0,3.394,0.375,4.424,1.592c1.147,1.334,1.264,3.371,1.264,5.056
			c0,1.943-0.023,4.167-1.451,5.665c-1.405,1.475-3.652,1.873-5.618,1.873c-2.855,0-5.29-0.608-7.607-2.317v-5.665h6.062v2.247
			c0,0.094-0.047,1.381,1.077,1.381c1.381,0,1.287-1.334,1.287-2.903c0-1.334,0.094-2.902-1.217-2.902
			c-1.124,0-1.124,0.866-1.147,0.866h-6.062V1.4H26.07 M27.07,0.4h-1H11.815h-1v1v11.165v1v0.311v5.665v0.505l0.406,0.3
			c2.325,1.714,4.93,2.513,8.201,2.513c2.789,0,4.982-0.755,6.342-2.183c1.727-1.812,1.727-4.438,1.727-6.354
			c0-1.957-0.179-4.164-1.506-5.708c-0.25-0.295-0.533-0.546-0.835-0.759h0.919h1v-1V1.4V0.4L27.07,0.4z M18.878,6.837v-0.29
			c0.149,0.011,0.2,0.034,0.203,0.035c-0.005,0.001,0.026,0.047,0.063,0.209C19.054,6.806,18.965,6.821,18.878,6.837L18.878,6.837z
			 M18.871,12.712c0.03-0.007,0.08-0.014,0.154-0.014c0.058,0,0.082,0.008,0.082,0.008c0.142,0.182,0.138,1.129,0.136,1.639
			l-0.001,0.256l0,0.285c0.002,0.528,0.005,1.407-0.137,1.609c-0.001,0-0.002,0-0.004,0c-0.014,0-0.062,0.009-0.146,0.009
			c-0.008,0-0.015,0-0.021,0c-0.025-0.058-0.058-0.184-0.056-0.359v-2.269v-1h-0.039L18.871,12.712L18.871,12.712z"/>
	</g>
	<g>
		<path fill="#FFFFFF" d="M27.819,21.959v-4.334l0.235-0.147c0.433-0.271,0.45-0.653,0.445-1.361V6.742
			c0.005-0.708-0.012-1.09-0.445-1.361l-0.235-0.147V0.9h7.929l-0.001,15.217c-0.005,0.708,0.012,1.09,0.445,1.361l0.235,0.147
			v4.334H27.819z"/>
		<path d="M35.248,1.4v14.536c0,0.749-0.07,1.498,0.679,1.966v3.558h-7.607v-3.558c0.749-0.468,0.679-1.217,0.679-1.966V6.924
			c0-0.749,0.07-1.498-0.679-1.966V1.4H35.248 M36.248,0.4h-1h-6.929h-1v1v3.558v0.554l0.47,0.294
			c0.172,0.107,0.215,0.213,0.21,0.933l-0.001,0.185v9.012l0.001,0.185c0.005,0.72-0.038,0.826-0.21,0.933l-0.47,0.294v0.554v3.558
			v1h1h7.607h1v-1v-3.558v-0.554l-0.47-0.294c-0.172-0.107-0.215-0.213-0.21-0.933l0.001-0.185V1.4V0.4L36.248,0.4z"/>
	</g>
	<g>
		<path fill="#FFFFFF" d="M45.313,22.357c-2.033,0-4.939-0.372-7.233-2.141l-0.195-0.15v-5.029h4.61
			c-1.18-0.172-2.233-0.617-3.091-1.312c-1.642-1.277-1.776-2.872-1.776-4.672V7.275c0-4.811,2.22-6.773,7.662-6.773
			c5.885,0,8.178,1.958,8.178,6.983v7.654C53.468,18.709,52.499,22.357,45.313,22.357z M44.643,15.538
			c0,0.229,0.067,0.559,0.198,1.127c0.042,0.155,0.184,0.362,0.589,0.362c0.629,0,0.811-0.339,0.811-1.513v-0.782
			c-0.53,0.155-1.067,0.265-1.599,0.327V15.538z M45.524,5.832c-0.554,0-0.741,0.399-0.741,1.583v1.17
			c0,1.184,0.187,1.583,0.741,1.583c0.458,0,0.741-0.265,0.741-1.583v-1.17C46.265,6.097,45.982,5.832,45.524,5.832z"/>
		<path d="M45.29,1.002c5.618,0,7.678,1.708,7.678,6.483v7.654c0,3.09-0.562,6.718-7.654,6.718c-2.434,0-4.985-0.539-6.928-2.037
			v-4.283h5.758c0,0.281,0.07,0.632,0.211,1.24c0.07,0.258,0.328,0.749,1.077,0.749c1.264,0,1.311-1.146,1.311-2.013V14.04
			c-1.018,0.378-2.08,0.579-3.105,0.579c-1.453,0-2.833-0.403-3.917-1.281c-1.475-1.147-1.591-2.528-1.591-4.284V7.275
			C38.128,3.108,39.79,1.002,45.29,1.002 M45.524,10.669c1.194,0,1.241-1.288,1.241-2.083v-1.17c0-0.796-0.047-2.083-1.241-2.083
			c-1.217,0-1.241,1.288-1.241,2.083v1.17C44.284,9.381,44.307,10.669,45.524,10.669 M45.29,0.002c-5.645,0-8.162,2.243-8.162,7.273
			v1.779c0,1.863,0.151,3.653,1.978,5.073c0.182,0.147,0.372,0.284,0.571,0.411h-1.291h-1v1v4.283v0.492l0.389,0.3
			c2.406,1.855,5.428,2.245,7.539,2.245c8.654,0,8.654-5.408,8.654-7.718V7.485C53.968,2.17,51.454,0.002,45.29,0.002L45.29,0.002z
			 M45.429,6.338c0.008,0,0.039-0.006,0.095-0.006c0.069,0,0.095,0.011,0.096,0.011c0.035,0.04,0.145,0.241,0.145,1.073v1.17
			c0,0.815-0.106,1.025-0.155,1.078c0,0-0.001,0-0.002,0c-0.007,0-0.035,0.005-0.084,0.005c-0.078,0-0.107-0.012-0.107-0.012
			c-0.054-0.062-0.133-0.307-0.133-1.071v-1.17c0-0.754,0.078-1.002,0.144-1.077C45.428,6.338,45.428,6.338,45.429,6.338
			L45.429,6.338z M45.143,15.494c0.2-0.033,0.399-0.071,0.599-0.116v0.137c0,0.705-0.07,0.928-0.13,0.99l0,0
			c-0.002,0-0.051,0.023-0.181,0.023c-0.073,0-0.111-0.011-0.12-0.016c-0.1-0.466-0.168-0.795-0.168-0.974V15.494L45.143,15.494z"/>
	</g>
	<g>
		<path fill="#FFFFFF" d="M54.528,24.304l0.197-0.382c1.855-3.592,2.683-6.813,2.683-10.444c0-3.591-0.777-6.542-2.681-10.185
			l-0.208-0.397l3.209-2.149l0.29,0.315c3.719,4.035,5.305,7.77,5.305,12.487c0,4.69-1.665,8.599-5.398,12.673l-0.301,0.329
			L54.528,24.304z"/>
		<path d="M57.651,1.4c3.3,3.581,5.173,7.209,5.173,12.148c0,5.009-1.943,8.708-5.267,12.335l-2.387-1.732
			c1.826-3.535,2.738-6.882,2.738-10.674c0-3.838-0.866-6.834-2.738-10.416L57.651,1.4 M57.806,0.092l-0.711,0.477L54.613,2.23
			l-0.745,0.5l0.416,0.795c1.889,3.612,2.625,6.403,2.625,9.953c0,3.547-0.81,6.698-2.627,10.215l-0.394,0.764l0.695,0.505
			l2.387,1.732l0.722,0.523l0.603-0.658c3.824-4.174,5.529-8.187,5.529-13.011c0-4.79-1.677-8.745-5.438-12.826L57.806,0.092
			L57.806,0.092z"/>
	</g>
	<g>
		<path fill="#FFFFFF" d="M74.398,21.959l4.38-11.914h-5.896V0.9h15.396v4.194l-6.214,16.866H74.398z M80.241,6.065
			c-1.132,0.088-1.186,0.451-1.186,1.42v1.807L80.241,6.065z"/>
		<path d="M87.778,1.4v3.604l-6.062,16.455h-6.601l5.852-15.917c-1.943,0-2.411,0.375-2.411,1.943v2.06h-5.173V1.4H87.778
			 M88.778,0.4h-1H73.382h-1v1v8.146v1h1h4.679l-3.885,10.569l-0.495,1.345h1.433h6.601h0.697l0.241-0.654L88.716,5.35l0.062-0.167
			V5.004V1.4V0.4L88.778,0.4z"/>
	</g>
	<g>
		<path fill="#FFFFFF" d="M96.674,22.357c-6.952,0-8.412-3.632-8.412-6.68c0-2.168,0.851-3.875,2.37-4.822
			c-1.356-0.908-1.972-2.258-1.972-4.259c0-4.044,2.657-6.094,7.897-6.094c6.643,0,8.037,3.225,8.037,5.93
			c0,2.098-0.61,3.552-1.858,4.412c1.498,0.876,2.256,2.474,2.256,4.764C104.992,21.59,100.546,22.357,96.674,22.357z
			 M96.627,13.346c-0.421,0-0.568,0.158-0.66,0.396c-0.127,0.329-0.127,0.809-0.127,1.232v0.146
			c-0.001,0.567-0.002,1.424,0.323,1.75c0.067,0.067,0.188,0.157,0.464,0.157c0.34,0,0.461-0.123,0.501-0.163
			c0.298-0.301,0.292-1.066,0.288-1.625l-0.001-0.216c0-0.472,0-0.952-0.127-1.281C97.196,13.504,97.048,13.346,96.627,13.346z
			 M96.627,5.832c-0.555,0-0.787,0.204-0.787,1.466s0.232,1.466,0.787,1.466c0.544,0,0.788-0.212,0.788-1.466
			C97.415,6.036,97.183,5.832,96.627,5.832z"/>
		<path d="M96.557,1.002c5.992,0,7.537,2.668,7.537,5.43c0,1.99-0.538,3.698-2.504,4.447c2.224,0.726,2.902,2.598,2.902,4.729
			c0,5.079-3.324,6.25-7.818,6.25c-6.016,0-7.912-2.715-7.912-6.18c0-2.153,0.89-4.026,2.949-4.798
			c-1.919-0.866-2.551-2.271-2.551-4.283C89.16,2.125,92.695,1.002,96.557,1.002 M96.627,9.265c1.217,0,1.288-1.077,1.288-1.966
			c0-0.983-0.094-1.966-1.288-1.966c-1.193,0-1.287,0.983-1.287,1.966C95.34,8.281,95.434,9.265,96.627,9.265 M96.627,17.527
			c1.405,0,1.288-1.521,1.288-2.504c0-0.936,0.023-2.177-1.288-2.177c-1.311,0-1.287,1.241-1.287,2.177
			C95.34,16.006,95.293,17.527,96.627,17.527 M96.557,0.002c-6.94,0-8.397,3.586-8.397,6.594c0,1.873,0.526,3.256,1.636,4.243
			c-1.31,1.082-2.034,2.768-2.034,4.838c0,3.275,1.546,7.18,8.912,7.18c3.785,0,8.818-0.751,8.818-7.25
			c0-2.476-0.863-3.933-1.923-4.789c1.023-0.972,1.525-2.422,1.525-4.387C105.094,4.031,103.985,0.002,96.557,0.002L96.557,0.002z
			 M96.456,6.347c0.01,0,0.062-0.015,0.171-0.015c0.138,0,0.186,0.024,0.187,0.024c0.028,0.042,0.101,0.239,0.101,0.942
			c0,0.705-0.078,0.898-0.124,0.951c0,0,0,0,0,0c-0.006,0-0.06,0.016-0.164,0.016c-0.138,0-0.186-0.024-0.186-0.024
			c-0.028-0.042-0.101-0.239-0.101-0.942c0-0.69,0.07-0.893,0.114-0.952C96.455,6.347,96.455,6.347,96.456,6.347L96.456,6.347z
			 M96.465,13.86c0.008,0,0.062-0.014,0.162-0.014c0.107,0,0.162,0.017,0.174,0.023c0.114,0.137,0.113,0.815,0.113,1.105
			l0.001,0.269c0.003,0.332,0.009,1.109-0.142,1.269h0c-0.004,0-0.047,0.016-0.146,0.016c-0.071,0-0.108-0.01-0.117-0.014
			c-0.172-0.165-0.171-1.056-0.17-1.392v-0.099C96.34,14.684,96.339,14.005,96.465,13.86C96.464,13.86,96.465,13.86,96.465,13.86
			L96.465,13.86z"/>
	</g>
	<g>
		<path fill="#FFFFFF" d="M113.271,22.357c-7.617,0-8.248-3.669-8.248-7.756V7.673c0-1.962,0.14-3.997,1.815-5.415
			c1.252-1.099,3.504-1.758,6.016-1.758c2.844,0,5.603,0.82,7.569,2.251l0.206,0.15v5.225h-3.903
			c1.051,0.263,1.979,0.717,2.619,1.31c1.408,1.302,1.588,3.319,1.588,4.932c0,1.037-0.073,3.051-0.346,4.021
			C119.789,21.025,117.328,22.357,113.271,22.357z M112.944,12.995c-0.495,0-0.67,0.218-0.67,1.443v1.264
			c0,1.142,0.218,1.326,0.741,1.326c0.217,0,0.67,0,0.67-1.326v-1.264C113.684,13.203,113.456,12.995,112.944,12.995z
			 M113.014,5.832c-0.533,0-0.647,0.128-0.647,1.49v0.883c0.405-0.129,0.84-0.222,1.294-0.276V7.322
			C113.661,6.152,113.522,5.832,113.014,5.832z"/>
		<path d="M112.855,1c2.503,0,5.232,0.669,7.274,2.155v4.471h-5.969V7.322c0-0.819,0-1.99-1.147-1.99s-1.147,0.89-1.147,1.99v1.615
			c0.817-0.387,1.789-0.565,2.769-0.565c1.686,0,3.394,0.528,4.371,1.432c1.24,1.147,1.428,2.973,1.428,4.564
			c0,0.983-0.07,2.973-0.328,3.886c-0.468,1.544-1.849,3.604-6.835,3.604c-7.069,0-7.748-3.09-7.748-7.256V7.673
			c0-1.849,0.117-3.745,1.638-5.033C108.362,1.587,110.51,1,112.855,1 M113.014,17.527c1.03,0,1.17-1.03,1.17-1.826v-1.264
			c0-0.89-0.07-1.943-1.24-1.943c-1.147,0-1.17,1.077-1.17,1.943v1.264C111.773,16.591,111.867,17.527,113.014,17.527 M112.855,0
			L112.855,0c-2.669,0-4.985,0.688-6.353,1.888c-1.825,1.544-1.979,3.796-1.979,5.785v6.928c0,4.178,0.675,8.256,8.748,8.256
			c4.302,0,6.924-1.452,7.792-4.314c0.36-1.278,0.371-3.883,0.371-4.176c0-1.714-0.199-3.865-1.749-5.299
			c-0.169-0.157-0.357-0.304-0.56-0.442h1.004h1v-1V3.155V2.646l-0.412-0.299C118.669,0.855,115.803,0,112.855,0L112.855,0z
			 M112.921,6.336c0.023-0.002,0.054-0.004,0.093-0.004c0.024,0,0.042,0.001,0.056,0.003c0.091,0.189,0.091,0.743,0.091,0.987v0.175
			c-0.099,0.018-0.197,0.037-0.294,0.058V7.322C112.867,7.002,112.867,6.537,112.921,6.336L112.921,6.336z M112.86,13.5
			c0.018-0.003,0.045-0.005,0.083-0.005c0.105,0,0.143,0.017,0.144,0.017c0.023,0.039,0.097,0.234,0.097,0.926v1.264
			c0,0.573-0.091,0.773-0.123,0.825c-0.002,0-0.004,0-0.006,0c-0.009,0-0.022,0.001-0.041,0.001c-0.123,0-0.167-0.02-0.168-0.021
			c-0.003-0.019-0.073-0.183-0.073-0.805v-1.264C112.773,14.226,112.773,13.683,112.86,13.5L112.86,13.5z"/>
	</g>
	<g>
		<rect x="120.427" y="10.637" fill="#FFFFFF" width="8.958" height="5.728"/>
		<path d="M128.886,11.137v4.728h-7.958v-4.728H128.886 M129.886,10.137h-1h-7.958h-1v1v4.728v1h1h7.958h1v-1v-4.728V10.137
			L129.886,10.137z"/>
	</g>
	<g>
		<path fill="#FFFFFF" d="M136.939,22.357c-3.202,0-5.64-0.745-7.904-2.415l-0.203-0.15v-6.417h7.062v2.747
			c-0.003,0.337,0.078,0.621,0.211,0.757c0.053,0.053,0.148,0.125,0.365,0.125c0.352,0,0.465-0.114,0.503-0.152
			c0.291-0.292,0.288-1.144,0.285-1.967v-0.537c0.003-0.754,0.008-1.693-0.312-2.014c-0.057-0.058-0.162-0.135-0.405-0.135
			c-0.567,0-0.618,0.273-0.646,0.42l-0.076,0.408l-0.425,0.038h-6.562V0.9h15.255v6.454h-3.944c1.031,0.211,2.196,0.657,2.983,1.588
			c1.218,1.416,1.382,3.514,1.382,5.378c0,1.935,0,4.342-1.59,6.01C141.655,21.656,139.587,22.357,136.939,22.357z M135.894,7.466
			c0.415-0.115,0.861-0.196,1.344-0.244l-0.044-0.295c-0.056-0.374-0.139-0.599-0.261-0.709c-0.124-0.123-0.352-0.176-0.696-0.176
			h-0.342V7.466z"/>
		<path d="M143.586,1.4v5.454h-5.898c-0.07-0.468-0.188-0.796-0.421-1.006c-0.211-0.211-0.539-0.305-1.03-0.305h-0.842v2.622
			c0.913-0.375,1.942-0.492,2.926-0.492c1.521,0,3.394,0.375,4.424,1.592c1.147,1.334,1.264,3.371,1.264,5.056
			c0,1.943-0.023,4.167-1.452,5.665c-1.404,1.475-3.651,1.873-5.617,1.873c-2.856,0-5.29-0.608-7.607-2.317v-5.665h6.062v2.247
			c0,0.094-0.047,1.381,1.077,1.381c1.381,0,1.287-1.334,1.287-2.903c0-1.334,0.094-2.902-1.217-2.902
			c-1.124,0-1.124,0.866-1.147,0.866h-6.062V1.4H143.586 M144.586,0.4h-1h-14.255h-1v1v11.165v1v0.311v5.665v0.505l0.406,0.3
			c2.325,1.714,4.931,2.513,8.201,2.513c2.789,0,4.981-0.755,6.341-2.183c1.728-1.812,1.728-4.437,1.728-6.354
			c0-1.957-0.179-4.164-1.506-5.708c-0.25-0.295-0.533-0.546-0.835-0.759h0.919h1v-1V1.4V0.4L144.586,0.4z M136.394,6.837v-0.29
			c0.149,0.011,0.2,0.034,0.203,0.035c-0.004,0.001,0.026,0.047,0.063,0.209C136.57,6.806,136.481,6.821,136.394,6.837
			L136.394,6.837z M136.387,12.712c0.03-0.007,0.08-0.014,0.154-0.014c0.058,0,0.082,0.008,0.082,0.008
			c0.142,0.182,0.138,1.129,0.136,1.639l0,0.256l0,0.285c0.002,0.528,0.005,1.407-0.137,1.609c-0.001,0-0.002,0-0.004,0
			c-0.015,0-0.062,0.009-0.147,0.009c-0.008,0-0.015,0-0.021,0c-0.025-0.058-0.058-0.184-0.056-0.359v-2.269v-1h-0.039
			L136.387,12.712L136.387,12.712z"/>
	</g>
	<g>
		<path fill="#FFFFFF" d="M152.061,22.357c-2.033,0-4.939-0.372-7.233-2.141l-0.195-0.15v-5.029h4.61
			c-1.18-0.172-2.233-0.617-3.091-1.312c-1.642-1.277-1.776-2.872-1.776-4.672V7.275c0-4.811,2.22-6.773,7.662-6.773
			c5.885,0,8.178,1.958,8.178,6.983v7.654C160.215,18.709,159.247,22.357,152.061,22.357z M151.391,15.538
			c0,0.23,0.066,0.561,0.198,1.127c0.042,0.155,0.184,0.362,0.589,0.362c0.629,0,0.811-0.339,0.811-1.513v-0.782
			c-0.53,0.155-1.067,0.265-1.598,0.327V15.538z M152.272,5.832c-0.554,0-0.741,0.399-0.741,1.583v1.17
			c0,1.184,0.187,1.583,0.741,1.583c0.457,0,0.74-0.265,0.74-1.583v-1.17C153.012,6.097,152.729,5.832,152.272,5.832z"/>
		<path d="M152.038,1.002c5.618,0,7.678,1.708,7.678,6.483v7.654c0,3.09-0.562,6.718-7.654,6.718c-2.434,0-4.985-0.539-6.928-2.037
			v-4.283h5.758c0,0.281,0.07,0.632,0.21,1.24c0.07,0.258,0.328,0.749,1.077,0.749c1.264,0,1.311-1.146,1.311-2.013V14.04
			c-1.018,0.378-2.08,0.579-3.105,0.579c-1.453,0-2.833-0.403-3.917-1.281c-1.475-1.147-1.591-2.528-1.591-4.284V7.275
			C144.875,3.108,146.537,1.002,152.038,1.002 M152.272,10.669c1.194,0,1.24-1.288,1.24-2.083v-1.17c0-0.796-0.046-2.083-1.24-2.083
			c-1.217,0-1.241,1.288-1.241,2.083v1.17C151.031,9.381,151.055,10.669,152.272,10.669 M152.038,0.002
			c-5.645,0-8.162,2.243-8.162,7.273v1.779c0,1.863,0.151,3.653,1.978,5.073c0.182,0.147,0.372,0.284,0.571,0.411h-1.291h-1v1v4.283
			v0.492l0.389,0.3c2.406,1.855,5.428,2.245,7.539,2.245c8.654,0,8.654-5.408,8.654-7.718V7.485
			C160.715,2.17,158.201,0.002,152.038,0.002L152.038,0.002z M152.177,6.338c0.008,0,0.039-0.006,0.095-0.006
			c0.069,0,0.095,0.011,0.095,0.011c0.035,0.04,0.145,0.241,0.145,1.073v1.17c0,0.815-0.106,1.025-0.155,1.079c0,0-0.001,0-0.001,0
			c-0.007,0-0.035,0.005-0.084,0.005c-0.078,0-0.107-0.012-0.107-0.012c-0.054-0.062-0.133-0.307-0.133-1.071v-1.17
			c0-0.754,0.078-1.002,0.144-1.077C152.175,6.338,152.176,6.338,152.177,6.338L152.177,6.338z M151.891,15.494
			c0.199-0.033,0.399-0.071,0.598-0.116v0.137c0,0.705-0.07,0.928-0.13,0.99l0,0c-0.002,0-0.051,0.023-0.181,0.023
			c-0.073,0-0.111-0.011-0.12-0.016c-0.1-0.465-0.167-0.793-0.167-0.974V15.494L151.891,15.494z"/>
	</g>
	<g>
		<path fill="#FFFFFF" d="M168.214,22.357c-3.939,0-7.967-0.852-7.967-7.171V7.673c0-6.319,4.027-7.171,7.967-7.171
			s7.967,0.852,7.967,7.171v7.514C176.181,21.505,172.153,22.357,168.214,22.357z M168.19,5.832c-0.368,0-0.494,0.138-0.577,0.359
			c-0.117,0.31-0.117,0.757-0.117,1.152l0,8.056c-0.003,0.508-0.008,1.204,0.268,1.481c0.036,0.036,0.145,0.146,0.45,0.146
			c0.324,0,0.434-0.111,0.47-0.147c0.259-0.261,0.253-0.94,0.249-1.436l-0.001-8.017c0.003-0.526,0.007-1.181-0.253-1.443
			C168.641,5.946,168.527,5.832,168.19,5.832z"/>
		<path d="M168.214,1.002c4.822,0,7.467,1.475,7.467,6.671v7.514c0,5.196-2.645,6.671-7.467,6.671s-7.467-1.475-7.467-6.671V7.673
			C160.747,2.477,163.392,1.002,168.214,1.002 M168.214,17.527c1.334,0,1.217-1.381,1.217-2.293V7.603
			c0-0.936,0.093-2.271-1.241-2.271c-1.217,0-1.194,1.194-1.194,2.06v7.841C166.997,16.099,166.903,17.527,168.214,17.527
			 M168.214,0.002c-7.504,0-8.467,4.1-8.467,7.671v7.514c0,6.799,4.525,7.671,8.467,7.671c7.504,0,8.467-4.1,8.467-7.671V7.673
			C176.681,0.874,172.156,0.002,168.214,0.002L168.214,0.002z M168.103,6.335c0.015,0,0.045-0.003,0.088-0.003
			c0.111,0,0.152,0.018,0.152,0.019c0.095,0.132,0.091,0.768,0.089,1.073l0,0.179v7.631l0.001,0.214
			c0.002,0.296,0.008,0.906-0.101,1.074c-0.001,0-0.003-0.001-0.006-0.001c-0.015,0-0.052,0.006-0.112,0.006
			c-0.084,0-0.116-0.013-0.117-0.013c-0.107-0.141-0.103-0.82-0.102-1.11l0.001-0.17V7.392c0-0.322,0-0.887,0.097-1.058
			C168.096,6.335,168.099,6.335,168.103,6.335L168.103,6.335z"/>
	</g>
	<g>
		<path fill="#FFFFFF" d="M176.47,21.959v-5.182c0-1.726,0.1-3.153,1.35-4.505c0.994-1.087,2.464-1.832,3.761-2.488l0.288-0.146
			c0.426-0.214,0.798-0.404,1.125-0.576h-6.173V2.88l0.203-0.15c1.972-1.458,4.697-2.228,7.881-2.228
			c2.247,0,3.971,0.435,5.269,1.329c1.544,1.073,2.394,2.807,2.394,4.882v0.703c0,3.746-2.298,5.297-4.026,6.137
			c0,0-2.236,1.106-2.244,1.11h5.896v7.296H176.47z M183.758,16.816c1.25,0,1.517-0.277,1.559-1.646
			c-1.548,0.839-1.767,1.19-1.789,1.646H183.758z M184.484,5.832c-0.267,0-0.379,0.083-0.44,0.145
			c-0.29,0.292-0.283,1.046-0.278,1.597l0.001,1.072c1.551-0.867,1.551-1.125,1.551-1.746
			C185.318,6.579,185.237,5.832,184.484,5.832z"/>
		<path d="M184.905,1.002c1.708,0,3.558,0.257,4.985,1.24c1.381,0.96,2.177,2.528,2.177,4.471v0.703c0,3.417-2.06,4.868-3.745,5.688
			l-2.224,1.1c-3.371,1.686-3.066,2.037-3.066,3.113h0.726c1.568,0,2.013-0.539,2.06-2.153h5.875v6.296H176.97v-4.682
			c0-1.591,0.07-2.926,1.217-4.166c1.006-1.1,2.575-1.849,3.909-2.528c3.488-1.755,3.722-2.06,3.722-3.183
			c0-0.796-0.398-1.568-1.334-1.568c-1.334,0-1.217,1.521-1.217,2.458v0.772h-5.945v-5.43C179.475,1.54,182.26,1.002,184.905,1.002
			 M184.905,0.002c-3.292,0-6.12,0.804-8.178,2.326l-0.406,0.3v0.504v5.43v1h1h3.593c-1.218,0.624-2.522,1.344-3.465,2.375
			c-1.368,1.479-1.479,3.067-1.479,4.841v4.682v1h1h14.723h1v-1v-6.296v-1h-1h-3.258L188.766,14c1.06-0.515,4.302-2.092,4.302-6.584
			V6.713c0-2.245-0.926-4.124-2.606-5.292C189.073,0.465,187.257,0.002,184.905,0.002L184.905,0.002z M184.398,6.336
			c0.012,0,0.041-0.004,0.086-0.004c0.083,0,0.334,0,0.334,0.568c0,0.297,0,0.479-0.551,0.859l-0.001-0.19
			c-0.002-0.316-0.009-1.05,0.128-1.234C184.394,6.336,184.396,6.336,184.398,6.336L184.398,6.336z"/>
	</g>
</g>
</svg>
